<svg width="120" height="120" viewBox="0 0 120 120" fill="none" xmlns="http://www.w3.org/2000/svg">
<g id="Layer_1" clip-path="url(#clip0_1162_4005)">
<g id="Group">
<path id="Vector" d="M64.7054 58.573C64.3579 58.7573 64.1406 59.1185 64.1406 59.5117V86.521C66.6561 86.1187 69.121 85.3424 71.4391 84.1873L71.7074 84.0531C80.4122 79.715 85.8186 70.9799 85.8186 61.2558V61.1047C85.8186 56.7754 84.739 52.6374 82.7744 48.9946L64.7054 58.573Z" fill="#3487B4"/>
<path id="Vector_2" d="M44.8025 91.38C39.2017 88.5849 34.5012 84.2941 31.2087 78.9711C27.9162 73.648 26.1758 67.5264 26.1758 61.267V60.8424C26.1758 55.1938 27.5957 49.6637 30.2902 44.7266L6.14652 31.4594C5.81346 31.2765 5.40625 31.5173 5.40625 31.8973V90.589C5.40625 93.1847 6.87377 95.5573 9.19638 96.7164L55.2336 119.692C55.5657 119.857 55.9564 119.616 55.9564 119.245V94.772C52.1951 94.3127 48.4994 93.225 45.0493 91.5032L44.8025 91.38Z" fill="#3487B4"/>
<path id="Vector_3" d="M11.0363 24.808L35.0952 38.0285C37.9073 34.9784 41.2674 32.4604 45.0308 30.6172C54.4688 25.996 65.6972 26.0768 75.0668 30.8336L75.5845 31.0963C79.2946 32.9798 82.542 35.4777 85.2382 38.4271L109.129 25.7626C109.487 25.573 109.483 25.0588 109.122 24.8755L63.062 1.49181C61.1445 0.518422 58.8814 0.502152 56.9502 1.44788L11.0573 23.9214C10.6938 24.0994 10.6817 24.6133 11.0363 24.808Z" fill="#3487B4"/>
<path id="Vector_4" d="M55.4054 58.5277L37.4613 48.6672C35.4297 52.3981 34.3594 56.5759 34.3594 60.8424V61.2671C34.3594 70.9851 39.7611 79.7179 48.4562 84.0572L48.7031 84.1806C51.0071 85.3304 53.4563 86.106 55.956 86.5118V59.459C55.9562 59.0714 55.7452 58.7144 55.4054 58.5277Z" fill="#3487B4"/>
<path id="Vector_5" d="M114.038 32.4224L90.0105 45.1592C92.5874 49.959 94.0026 55.4065 94.0026 61.1048V61.2559C94.0026 67.5183 92.2606 73.6429 88.9648 78.9679C85.6691 84.2925 80.9646 88.5838 75.3595 91.3768L75.0913 91.5109C71.6274 93.2371 67.9163 94.3251 64.1406 94.7795V119.25C64.1406 119.621 64.5311 119.863 64.8632 119.697L110.979 96.7144C113.303 95.556 114.772 93.1822 114.772 90.5852V32.8638C114.772 32.4872 114.371 32.246 114.038 32.4224Z" fill="#3487B4"/>
<path id="Vector_6" d="M71.8775 38.3933L71.3599 38.1307C67.7585 36.3022 63.7932 35.3867 59.8278 35.3867C55.9854 35.3867 52.1433 36.2458 48.6281 37.9673C46.3992 39.0588 44.3578 40.464 42.5547 42.1288L59.5801 51.4845C59.8938 51.6569 60.2731 51.6597 60.5895 51.4922L77.6855 42.4298C75.9749 40.8484 74.0281 39.4852 71.8775 38.3933Z" fill="#3487B4"/>
</g>
</g>
<defs>
<clipPath id="clip0_1162_4005">
<rect width="119" height="119" fill="white" transform="translate(0.589844 0.75)"/>
</clipPath>
</defs>
</svg>
