<svg width="90" height="91" viewBox="0 0 90 91" fill="none" xmlns="http://www.w3.org/2000/svg">
<g id="Frame" clip-path="url(#clip0_1162_630)">
<path id="Vector" d="M29.1797 82.021L34.7834 78.631C36.2343 79.869 37.8932 80.8434 39.7266 81.495V87.7373H50.2734V81.495C52.1068 80.8434 53.765 79.869 55.2166 78.631L60.8203 82.021L66.0938 72.8872L60.5305 69.5206C60.7029 68.5847 60.8203 67.6289 60.8203 66.6436C60.8203 65.6575 60.7029 64.7017 60.5305 63.7665L66.0938 60.3999L60.8203 51.2661L55.2166 54.6561C53.7657 53.4181 52.1068 52.4437 50.2734 51.7921V45.5498H39.7266V51.7921C37.8932 52.4437 36.235 53.4181 34.7834 54.6561L29.1797 51.2661L23.9062 60.3999L29.4695 63.7665C29.2971 64.7017 29.1797 65.6582 29.1797 66.6436C29.1797 67.6289 29.2971 68.5854 29.4695 69.5206L23.9062 72.8872L29.1797 82.021ZM45 61.3701C47.9128 61.3701 50.2734 63.7308 50.2734 66.6436C50.2734 69.5556 47.9128 71.917 45 71.917C42.0872 71.917 39.7266 69.5556 39.7266 66.6436C39.7266 63.7308 42.0872 61.3701 45 61.3701Z" fill="#7C7F86"/>
<path id="Vector_2" d="M73.8776 24.6263C72.6389 12.6966 62.5246 3.3623 50.2734 3.3623C42.3585 3.3623 34.9839 7.39223 30.5962 13.9991C23.4895 13.0674 17.4792 18.0833 16.2302 24.6105C7.18437 25.7923 0 33.5507 0 42.9131C0 52.6435 7.77145 60.5564 17.3309 61.2383L27.3024 43.9691L34.4531 48.2923V40.2764H55.5469V48.2923L62.6976 43.9691L72.6691 61.2383C82.2285 60.5564 90 52.6435 90 42.9131C90 33.5864 82.8719 25.8541 73.8776 24.6263Z" fill="#7C7F86"/>
</g>
<defs>
<clipPath id="clip0_1162_630">
<rect width="90" height="90" fill="white" transform="translate(0 0.549805)"/>
</clipPath>
</defs>
</svg>
