<svg width="25" height="24" viewBox="0 0 25 24" fill="none" xmlns="http://www.w3.org/2000/svg">
<g id="Programming" clip-path="url(#clip0_990_9243)">
<g id="Group">
<path id="Vector" d="M21.1034 3.22031H3.89656C2.02391 3.22031 0.5 4.74421 0.5 6.61734V17.3827C0.5 19.2558 2.02391 20.7797 3.89656 20.7797H21.1034C22.9761 20.7797 24.5 19.2558 24.5 17.3827V6.61734C24.5 4.74421 22.9761 3.22031 21.1034 3.22031ZM9.20984 8.62453L5.63656 12.1978L8.81422 15.3755C9.08891 15.6502 9.08891 16.0955 8.81422 16.3697C8.54 16.6444 8.09469 16.6444 7.82 16.3697L4.145 12.6947C3.87031 12.42 3.87031 11.9752 4.145 11.7005L8.21516 7.63031C8.48984 7.35562 8.93516 7.35562 9.20984 7.63031C9.48406 7.90453 9.48406 8.34984 9.20984 8.62453ZM15.0097 6.97031L11.2916 17.498C11.1622 17.8645 10.7605 18.0562 10.3944 17.9269C10.0283 17.7975 9.83609 17.3958 9.96547 17.0297L13.6836 6.50203C13.813 6.13593 14.2142 5.94374 14.5808 6.07312C14.9469 6.20249 15.1391 6.60421 15.0097 6.97031ZM20.855 12.2995L16.7848 16.3697C16.5102 16.6444 16.0648 16.6444 15.7902 16.3697C15.5159 16.0955 15.5159 15.6502 15.7902 15.3755L19.3634 11.8022L16.1858 8.62453C15.9111 8.34984 15.9111 7.90453 16.1858 7.63031C16.46 7.35562 16.9053 7.35562 17.18 7.63031L20.855 11.3053C21.1297 11.58 21.1297 12.0248 20.855 12.2995Z" fill="#0D0316"/>
</g>
</g>
<defs>
<clipPath id="clip0_990_9243">
<rect width="24" height="24" fill="white" transform="translate(0.5)"/>
</clipPath>
</defs>
</svg>
