<svg width="90" height="91" viewBox="0 0 90 91" fill="none" xmlns="http://www.w3.org/2000/svg">
<g id="Capa_1" clip-path="url(#clip0_1162_859)">
<g id="Group">
<path id="Vector" d="M77.0939 0.549805V25.8874L71.1641 31.8172V37.4002C74.6011 38.515 77.0939 41.7461 77.0939 45.5498C77.0939 50.2734 73.2509 54.1163 68.5273 54.1163C63.8036 54.1163 59.9606 50.2734 59.9606 45.5498C59.9606 41.7461 62.4534 38.515 65.8906 37.4002V29.633L71.8204 23.7032V0.549805H59.3041V7.55311C62.7412 8.66791 65.2339 11.8989 65.2339 15.7027C65.2339 20.4263 61.391 24.2692 56.6674 24.2692C51.9438 24.2692 48.1009 20.4263 48.1009 15.7027C48.1009 11.8989 50.5936 8.66791 54.0307 7.55311V0.549805H41.5145V23.7032L47.4443 29.633V37.4002C50.8814 38.515 53.3741 41.7461 53.3741 45.5498C53.3741 50.2734 49.5312 54.1163 44.8076 54.1163C40.084 54.1163 36.2413 50.2734 36.2413 45.5498C36.2413 41.7461 38.734 38.515 42.1711 37.4002V31.8172L36.2413 25.8874V0.549805H23.5273V78.69H71.3616V81.3267C71.3616 86.4124 75.4992 90.5498 80.5847 90.5498C85.6702 90.5498 89.8078 86.4124 89.8078 81.3267V0.549805L77.0939 0.549805ZM47.6421 69.04H42.3686V63.7665H47.6421V69.04ZM59.5019 69.04H54.2284V63.7665H59.5019V69.04ZM71.3616 69.04H66.0882V63.7665H71.3616V69.04Z" fill="#7C7F86"/>
<path id="Vector_2" d="M0.191406 83.9634C1.32854 87.7682 4.86086 90.5497 9.03057 90.5497H69.4084C67.8682 88.6866 66.784 86.434 66.3282 83.9634H0.191406Z" fill="#7C7F86"/>
<path id="Vector_3" d="M44.8087 48.843C46.6274 48.843 48.1018 47.3686 48.1018 45.5499C48.1018 43.7312 46.6274 42.2568 44.8087 42.2568C42.99 42.2568 41.5156 43.7312 41.5156 45.5499C41.5156 47.3686 42.99 48.843 44.8087 48.843Z" fill="#7C7F86"/>
<path id="Vector_4" d="M65.2344 45.5499C65.2344 47.3657 66.7116 48.843 68.5276 48.843C70.3435 48.843 71.8207 47.3657 71.8207 45.5499C71.8207 43.7341 70.3435 42.2568 68.5276 42.2568C66.7116 42.2568 65.2344 43.7341 65.2344 45.5499Z" fill="#7C7F86"/>
<path id="Vector_5" d="M56.6681 18.9958C58.4868 18.9958 59.9612 17.5215 59.9612 15.7028C59.9612 13.884 58.4868 12.4097 56.6681 12.4097C54.8494 12.4097 53.375 13.884 53.375 15.7028C53.375 17.5215 54.8494 18.9958 56.6681 18.9958Z" fill="#7C7F86"/>
</g>
</g>
<defs>
<clipPath id="clip0_1162_859">
<rect width="90" height="90" fill="white" transform="translate(0 0.549805)"/>
</clipPath>
</defs>
</svg>
