<svg width="60" height="60" viewBox="0 0 60 60" fill="none" xmlns="http://www.w3.org/2000/svg">
<g id="Layer_1" clip-path="url(#clip0_1162_2518)">
<g id="Group 5">
<path id="Vector" d="M11.6016 11.4551H27.743V48.4035H11.6016V11.4551Z" fill="#7C7F86"/>
<path id="Vector_2" d="M32.4023 11.4551H48.5438V27.7869H32.4023V11.4551Z" fill="#7C7F86"/>
<path id="Vector_3" d="M32.4023 32.0713H48.5438V48.4031H32.4023V32.0713Z" fill="#7C7F86"/>
<path id="Vector_4" d="M59.5 9.79722V0.5H50.2028V3.42016H9.79722V0.5H0.5V9.79722H3.42016V50.2028H0.5V59.5H9.79722V56.5798H50.2028V59.5H59.5V50.2028H56.5798V9.79722H59.5ZM53.1229 50.2028H50.2028V53.1229H9.79722V50.2028H6.87706V9.79722H9.79722V6.87706H50.2028V9.79722H53.1229V50.2028Z" fill="#7C7F86"/>
</g>
</g>
<defs>
<clipPath id="clip0_1162_2518">
<rect width="59" height="59" fill="white" transform="translate(0.5 0.5)"/>
</clipPath>
</defs>
</svg>
