<svg width="21" height="20" viewBox="0 0 21 20" fill="none" xmlns="http://www.w3.org/2000/svg">
<g id="Group">
<path id="Vector" d="M10.6681 0C5.14588 0 0.667969 4.58454 0.667969 10.2401C0.667969 14.7644 3.5333 18.6028 7.50664 19.9569C8.00641 20.0517 8.18989 19.7347 8.18989 19.4643C8.18989 19.2201 8.18062 18.4134 8.17631 17.5578C5.39428 18.1772 4.80724 16.3496 4.80724 16.3496C4.35234 15.166 3.69691 14.8512 3.69691 14.8512C2.7896 14.2157 3.7653 14.2287 3.7653 14.2287C4.76948 14.301 5.29823 15.284 5.29823 15.284C6.19014 16.8495 7.63762 16.3969 8.20827 16.1352C8.29802 15.4734 8.55718 15.0217 8.84317 14.7659C6.62202 14.507 4.2871 13.629 4.2871 9.70526C4.2871 8.58727 4.67774 7.67379 5.31744 6.95667C5.21361 6.69875 4.87132 5.65725 5.41432 4.24675C5.41432 4.24675 6.25406 3.97153 8.16505 5.2964C8.96273 5.06951 9.81821 4.95573 10.6681 4.95183C11.5179 4.95573 12.374 5.06951 13.1732 5.2964C15.0819 3.97153 15.9205 4.24675 15.9205 4.24675C16.4648 5.65725 16.1223 6.69875 16.0185 6.95667C16.6597 7.67379 17.0477 8.58727 17.0477 9.70526C17.0477 13.6383 14.7083 14.5043 12.4815 14.7578C12.8402 15.0756 13.1598 15.6988 13.1598 16.6541C13.1598 18.0243 13.1482 19.127 13.1482 19.4643C13.1482 19.7368 13.3282 20.0561 13.8351 19.9555C17.8063 18.6 20.668 14.7629 20.668 10.2401C20.668 4.58454 16.1907 0 10.6681 0ZM4.41332 14.5872C4.3913 14.6381 4.31314 14.6534 4.24193 14.6184C4.1694 14.585 4.12866 14.5157 4.15218 14.4646C4.17371 14.4122 4.25203 14.3976 4.3244 14.4327C4.3971 14.4661 4.4385 14.5362 4.41332 14.5872ZM4.90522 15.0367C4.85753 15.0819 4.76429 15.0609 4.70104 14.9894C4.63563 14.918 4.62337 14.8225 4.67173 14.7765C4.72091 14.7313 4.81132 14.7525 4.8769 14.8238C4.94231 14.8961 4.95506 14.9909 4.90522 15.0367ZM5.24267 15.6117C5.1814 15.6553 5.08122 15.6144 5.01928 15.5234C4.95801 15.4323 4.95801 15.3231 5.02061 15.2793C5.08271 15.2356 5.1814 15.2749 5.24417 15.3653C5.30527 15.4579 5.30527 15.5671 5.24267 15.6117ZM5.81339 16.2777C5.75857 16.3396 5.64183 16.323 5.55638 16.2385C5.46895 16.1559 5.4446 16.0388 5.49958 15.9769C5.55506 15.9148 5.67246 15.9323 5.75857 16.016C5.84535 16.0985 5.87184 16.2165 5.81339 16.2777ZM6.55098 16.5025C6.5268 16.5827 6.41436 16.6192 6.30109 16.5851C6.18799 16.55 6.11397 16.4561 6.13682 16.375C6.16033 16.2943 6.27327 16.2563 6.38737 16.2928C6.5003 16.3277 6.57449 16.421 6.55098 16.5025ZM7.39039 16.5979C7.3932 16.6823 7.29715 16.7524 7.17826 16.7539C7.0587 16.7566 6.96199 16.6883 6.96066 16.6052C6.96066 16.5199 7.05456 16.4505 7.17412 16.4485C7.29302 16.4461 7.39039 16.514 7.39039 16.5979ZM8.21501 16.5655C8.22925 16.6479 8.14662 16.7326 8.02855 16.7551C7.91247 16.7768 7.80499 16.7259 7.79025 16.6442C7.77585 16.5598 7.85997 16.4751 7.97589 16.4533C8.09413 16.4322 8.19994 16.4818 8.21501 16.5655Z" fill="#0D0316"/>
</g>
</svg>
