<svg width="50" height="50" viewBox="0 0 50 50" fill="none" xmlns="http://www.w3.org/2000/svg">
<g id="target">
<path id="Vector" d="M5.28206 39.5063H7.61671V24.4084C7.61671 23.9363 8.00295 23.5501 8.47503 23.5501H14.861C15.333 23.5501 15.7193 23.9363 15.7193 24.4084V39.5063H20.38V16.4775C20.38 16.0054 20.7662 15.6192 21.2383 15.6192H27.6243C28.0963 15.6192 28.4826 16.0054 28.4826 16.4775V39.5063H33.1519V21.2069C33.1519 20.7348 33.5295 20.3485 34.0016 20.3485H40.379C40.851 20.3485 41.2373 20.7348 41.2373 21.2069V39.5063H43.5719C44.044 39.5235 44.4217 39.9183 44.4045 40.3904C44.3873 40.8453 44.0268 41.2058 43.5719 41.223H5.28206C4.80998 41.223 4.43232 40.8282 4.4409 40.3475C4.4409 39.884 4.81857 39.5149 5.28206 39.5063ZM46.7821 43.5233H2.94742V34.4251C3.4195 34.4079 3.79716 34.0131 3.77999 33.541C3.76283 33.0861 3.40233 32.7256 2.94742 32.7084V24.4943C3.4195 24.4685 3.78858 24.0651 3.76283 23.593C3.74566 23.1467 3.38516 22.7948 2.94742 22.7776V14.572C3.4195 14.5463 3.78858 14.1429 3.76283 13.6708C3.73708 13.2159 3.37658 12.864 2.92167 12.8554H1.25652C0.78444 12.8554 0.41536 13.2502 0.41536 13.7223C0.41536 14.1686 0.775857 14.5377 1.22219 14.5634V22.769C0.750107 22.7948 0.389611 23.2068 0.41536 23.6788C0.44111 24.1166 0.78444 24.4599 1.22219 24.4857V32.6998C0.750107 32.7342 0.389611 33.1462 0.423944 33.6182C0.449693 34.0474 0.793023 34.3907 1.22219 34.4165V44.3731C1.22219 44.8451 1.60843 45.2314 2.08051 45.2314H46.7735C47.2456 45.2314 47.6232 44.8365 47.6146 44.3559C47.6146 43.8924 47.237 43.5233 46.7735 43.5147L46.7821 43.5233ZM48.3356 4.1262C48.0696 3.73137 47.5374 3.62838 47.1511 3.88587L37.4521 10.3491L24.4055 3.83437C24.1395 3.70563 23.8305 3.71421 23.5815 3.86871L6.71546 13.9798C6.31205 14.2373 6.19189 14.7694 6.4408 15.1728C6.5953 15.4218 6.86138 15.5677 7.15321 15.5763C7.30771 15.5763 7.46221 15.5333 7.59096 15.4561L24.0622 5.57677L37.1259 12.1086C37.4006 12.246 37.7267 12.2288 37.9842 12.0571L48.0953 5.31069C48.4901 5.04461 48.5931 4.51245 48.3356 4.11762V4.1262Z" fill="url(#paint0_linear_1162_4354)"/>
</g>
<defs>
<linearGradient id="paint0_linear_1162_4354" x1="6.73812" y1="15.661" x2="98.919" y2="-19.0464" gradientUnits="userSpaceOnUse">
<stop stop-color="#1B9CE1"/>
<stop offset="1" stop-color="#0D15B8"/>
</linearGradient>
</defs>
</svg>
