<svg width="34" height="33" viewBox="0 0 34 33" fill="none" xmlns="http://www.w3.org/2000/svg">
<g id="Line" clip-path="url(#clip0_990_9239)">
<g id="Group">
<path id="Vector" d="M31.4578 10.9453C30.6323 10.4687 29.6152 10.6157 28.9549 11.2387C20.1159 7.23581 9.52236 10.0743 3.86899 17.9605C2.98562 17.7511 2.03134 18.1323 1.55469 18.9578C0.973133 19.9651 1.31949 21.2577 2.32677 21.8393C3.33405 22.4209 4.62668 22.0745 5.20823 21.0672C5.64761 20.3062 5.55702 19.3824 5.05212 18.7254C10.3128 11.4421 20.1106 8.81587 28.3086 12.4909C28.1913 13.309 28.5454 14.1893 29.325 14.6395C30.3345 15.2223 31.6464 14.8374 32.2299 13.8268C32.8115 12.8195 32.4651 11.5269 31.4578 10.9453ZM3.0299 20.6214C2.69414 20.4276 2.57868 19.9967 2.77254 19.661C2.96639 19.3252 3.39726 19.2097 3.73302 19.4036C4.06878 19.5975 4.18424 20.0283 3.99038 20.3641C3.79653 20.6998 3.36566 20.8153 3.0299 20.6214ZM30.0281 13.4216C29.7038 13.2343 29.5945 12.7665 29.7942 12.4205C29.9881 12.0848 30.419 11.9693 30.7547 12.1632C31.0905 12.357 31.2059 12.7879 31.0121 13.1236C30.8123 13.4696 30.3525 13.6089 30.0281 13.4216Z" fill="white"/>
</g>
</g>
<defs>
<clipPath id="clip0_990_9239">
<rect width="24" height="24" fill="white" transform="translate(12.5) rotate(30)"/>
</clipPath>
</defs>
</svg>
