<svg width="18" height="18" viewBox="0 0 18 18" fill="none" xmlns="http://www.w3.org/2000/svg">
<g id="Group">
<path id="Vector" d="M1.26031 3.96489C0.864707 3.59759 0.667969 3.14293 0.667969 2.60197C0.667969 2.06101 0.86576 1.58635 1.26031 1.21799C1.65592 0.850682 2.16516 0.666504 2.78908 0.666504C3.413 0.666504 3.90226 0.850682 4.29681 1.21799C4.69242 1.5853 4.88916 2.04733 4.88916 2.60197C4.88916 3.15661 4.69137 3.59759 4.29681 3.96489C3.90121 4.3322 3.39933 4.51638 2.78908 4.51638C2.17884 4.51638 1.65592 4.3322 1.26031 3.96489ZM4.55669 6.07191V17.3332H0.999384V6.07191H4.55669Z" fill="#0D0316"/>
<path id="Vector_2" d="M16.3982 7.18482C17.1737 8.02678 17.5609 9.18239 17.5609 10.6537V17.1347H14.1824V11.1105C14.1824 10.3685 13.9899 9.79175 13.6059 9.38129C13.2218 8.97083 12.7042 8.76456 12.0561 8.76456C11.4079 8.76456 10.8903 8.96978 10.5062 9.38129C10.1222 9.79175 9.92966 10.3685 9.92966 11.1105V17.1347H6.53125V6.0408H9.92966V7.51213C10.2737 7.02169 10.7377 6.63439 11.3206 6.34918C11.9035 6.06396 12.559 5.92188 13.2881 5.92188C14.5865 5.92188 15.6239 6.34286 16.3982 7.18377V7.18482Z" fill="#0D0316"/>
</g>
</svg>
