<svg width="50" height="50" viewBox="0 0 50 50" fill="none" xmlns="http://www.w3.org/2000/svg">
<g id="target">
<path id="Vector" d="M32.6915 20.2509V10.1821C32.6915 5.52141 28.9147 1.74463 24.254 1.74463C19.5932 1.74463 15.8245 5.52141 15.8165 10.1821V20.2509C14.5629 20.3393 13.5825 21.3839 13.5825 22.6455V39.9705C13.5825 41.2964 14.6593 42.3812 15.9852 42.3812H32.5066C33.8325 42.3812 34.9174 41.3045 34.9174 39.9786V22.6536C34.9174 21.392 33.937 20.3473 32.6834 20.2589L32.6915 20.2509ZM24.254 4.74999C27.2513 4.74999 29.6861 7.17677 29.6861 10.1821V20.2348H18.8299V10.1821C18.8299 7.18481 21.2647 4.75802 24.262 4.74999H24.254ZM25.3307 34.8116H23.1772C22.7513 34.8116 22.3415 34.6027 22.0924 34.2571C21.4897 33.558 22.2129 32.2964 22.4057 31.5732C21.6102 30.5527 21.795 29.0821 22.8156 28.2946C23.8361 27.4991 25.3066 27.6839 26.0941 28.7044C26.745 29.5482 26.7531 30.7214 26.0941 31.5652L26.5843 33.0518C26.8174 33.7509 26.4316 34.5143 25.7325 34.7473C25.604 34.7875 25.4593 34.8116 25.3227 34.8116H25.3307ZM8.47181 36.8205H11.9754V38.4277H8.97003L7.24235 41.8911C8.36735 42.9598 8.40753 44.7277 7.33878 45.8527C6.27003 46.9777 4.50217 47.0178 3.37717 45.9491C2.25217 44.8803 2.21199 43.1125 3.28074 41.9875C3.8111 41.425 4.55038 41.1116 5.32181 41.1196C5.48253 41.1196 5.64324 41.1437 5.80396 41.1678L7.75663 37.2625C7.89324 36.9893 8.16646 36.8205 8.47181 36.8205ZM7.25038 30.5044H11.9754V32.1116H7.25038C6.80842 33.5982 5.24146 34.45 3.75485 34C2.26824 33.558 1.41646 31.9911 1.86646 30.5044C2.30842 29.0178 3.87538 28.1661 5.36199 28.6161C6.27003 28.8893 6.98521 29.5964 7.25038 30.5044ZM8.97003 24.1964H11.9754V25.8036H8.47181C8.16646 25.8036 7.89324 25.6268 7.75663 25.3536L5.80396 21.4482C5.64324 21.4803 5.48253 21.4964 5.32181 21.4964C3.77092 21.4964 2.50931 20.2348 2.50931 18.6839C2.50931 17.133 3.77092 15.8714 5.32181 15.8714C6.87271 15.8714 8.13431 17.133 8.13431 18.6839C8.13431 19.4553 7.81288 20.2027 7.24235 20.725L8.97003 24.1964ZM41.2575 32.1116H36.5325V30.5044H41.2575C41.6995 29.0178 43.2665 28.1661 44.7531 28.6161C46.2397 29.058 47.0915 30.625 46.6415 32.1116C46.1995 33.5982 44.6325 34.45 43.1459 34C42.2379 33.7268 41.5227 33.0196 41.2575 32.1116ZM40.0361 25.8036H36.5325V24.1964H39.5379L41.2656 20.725C40.695 20.2027 40.3736 19.4553 40.3736 18.6839C40.3736 17.133 41.6352 15.8714 43.1861 15.8714C44.737 15.8714 45.9986 17.133 45.9986 18.6839C45.9986 20.2348 44.737 21.4964 43.1861 21.4964C43.0254 21.4964 42.8647 21.4803 42.704 21.4482L40.7513 25.3536C40.6147 25.6268 40.3415 25.8036 40.0361 25.8036ZM45.9986 43.9321C45.9986 45.483 44.737 46.7446 43.1861 46.7446C41.6352 46.7446 40.3736 45.483 40.3736 43.9321C40.3736 43.1768 40.687 42.4455 41.2334 41.9232L39.5299 38.4277H36.5325V36.8205H40.0361C40.3415 36.8205 40.6227 36.9973 40.7593 37.2705L42.6557 41.1759C42.8325 41.1437 43.0093 41.1196 43.1861 41.1196C44.737 41.1196 45.9986 42.3812 45.9986 43.9321Z" fill="url(#paint0_linear_1162_4369)"/>
</g>
<defs>
<linearGradient id="paint0_linear_1162_4369" x1="7.66921" y1="14.6702" x2="96.8221" y2="-14.3146" gradientUnits="userSpaceOnUse">
<stop stop-color="#1B9CE1"/>
<stop offset="1" stop-color="#0D15B8"/>
</linearGradient>
</defs>
</svg>
