<svg width="18" height="18" viewBox="0 0 18 18" fill="none" xmlns="http://www.w3.org/2000/svg">
<g id="Group">
<path id="Vector" d="M1.25934 4.0147C0.863731 3.64739 0.666992 3.19274 0.666992 2.65177C0.666992 2.11081 0.864783 1.63615 1.25934 1.26779C1.65494 0.900487 2.16418 0.716309 2.78811 0.716309C3.41203 0.716309 3.90128 0.900487 4.29584 1.26779C4.69144 1.6351 4.88818 2.09713 4.88818 2.65177C4.88818 3.20642 4.69039 3.64739 4.29584 4.0147C3.90023 4.382 3.39835 4.56618 2.78811 4.56618C2.17786 4.56618 1.65494 4.382 1.25934 4.0147ZM4.55571 6.12171V17.383H0.998407V6.12171H4.55571Z" fill="white"/>
<path id="Vector_2" d="M16.3973 7.23462C17.1727 8.07659 17.5599 9.23219 17.5599 10.7035V17.1845H14.1815V11.1603C14.1815 10.4183 13.9889 9.84155 13.6049 9.4311C13.2209 9.02064 12.7032 8.81436 12.0551 8.81436C11.407 8.81436 10.8893 9.01959 10.5053 9.4311C10.1212 9.84155 9.92868 10.4183 9.92868 11.1603V17.1845H6.53027V6.09061H9.92868V7.56194C10.2727 7.07149 10.7367 6.6842 11.3196 6.39898C11.9025 6.11377 12.558 5.97168 13.2871 5.97168C14.5855 5.97168 15.6229 6.39266 16.3973 7.23357V7.23462Z" fill="white"/>
</g>
</svg>
