<svg width="110" height="110" viewBox="0 0 110 110" fill="none" xmlns="http://www.w3.org/2000/svg">
<g id="Javascript logo" clip-path="url(#clip0_674_4053)">
<path id="Vector" d="M102.754 0.408203H7.60552C3.75612 0.408203 0.638 3.52632 0.638 7.37572V102.524C0.638 106.363 3.75612 109.492 7.60552 109.492H102.754C106.593 109.492 109.721 106.373 109.721 102.524V7.36557C109.711 3.52632 106.593 0.408203 102.754 0.408203ZM50.1622 61.8869C50.1622 64.9136 49.8778 67.5036 49.2989 69.6365C48.72 71.7694 47.8465 73.4757 46.6886 74.8164C45.5206 76.1368 44.0682 77.1119 42.3314 77.7213C40.5946 78.3408 38.5734 78.6455 36.2678 78.6455C34.2365 78.6455 32.4083 78.3205 30.7629 77.6908C27.5432 76.4821 25.0243 73.8922 23.9172 70.642C23.2672 68.824 22.9523 66.9145 22.9828 64.9847V63.6237H29.5136C29.5136 69.7076 31.7684 72.7546 36.278 72.7546C37.4358 72.7546 38.4515 72.6226 39.3656 72.3484C40.2696 72.064 41.0313 71.5561 41.661 70.7842C42.2908 70.0225 42.758 68.9662 43.083 67.595C43.408 66.2238 43.5705 64.4464 43.5705 62.2424V28.197H50.1825L50.1622 61.8869ZM86.6351 71.7694C85.9444 73.1609 84.9694 74.3899 83.7709 75.3751C82.4302 76.4517 80.8864 77.2744 79.241 77.7822C77.4635 78.351 75.4728 78.6354 73.2688 78.6354C63.5082 78.6354 58.3587 74.786 57.8306 67.0668H64.2496C64.2801 71.4241 67.2662 73.6078 73.1977 73.6078C74.5181 73.6078 75.6963 73.4656 76.7018 73.1711C77.7175 72.8867 78.5605 72.4804 79.2308 71.9725C80.541 71.028 81.3129 69.5146 81.3028 67.8997C81.3333 67.1887 81.1911 66.4879 80.9067 65.8379C80.6426 65.3097 80.1246 64.8527 79.3628 64.4464C78.3472 63.9487 77.2909 63.5526 76.1939 63.2682C74.4368 62.7604 72.6696 62.2729 70.8921 61.8158C68.7694 61.2877 66.931 60.7595 65.3973 60.2314C64.0363 59.8048 62.7566 59.1649 61.5987 58.3219C60.6338 57.6008 59.8721 56.646 59.3947 55.5491C58.9173 54.442 58.6837 53.0506 58.6837 51.3747C58.6837 49.902 58.9986 48.5308 59.6182 47.2612C60.2479 46.0018 61.1315 44.9049 62.3097 43.9704C63.4676 43.0462 64.8793 42.325 66.5247 41.7969C68.3123 41.2484 70.1812 40.9844 72.05 41.0047C81.4856 41.0047 86.2897 44.3564 86.4319 51.07H80.1144C79.891 47.7183 77.362 46.0323 72.5274 46.0323C71.4508 46.0323 70.4656 46.144 69.5413 46.3573C68.617 46.5706 67.835 46.8753 67.1545 47.2815C66.474 47.6776 65.956 48.1753 65.57 48.7644C65.1942 49.3738 64.9911 50.0848 65.0114 50.8059C65.0114 51.5067 65.1028 52.0857 65.2755 52.5326C65.4481 52.9896 65.8645 53.406 66.5349 53.792C67.1951 54.178 68.1803 54.5639 69.4803 54.9397C70.7804 55.3155 72.5578 55.7827 74.8126 56.3312C76.9862 56.8593 78.8855 57.3976 80.4902 57.9664C82.0849 58.5352 83.4154 59.2157 84.492 60.0181C85.5585 60.8103 86.3405 61.7955 86.8585 62.9432C87.3664 64.0909 87.6304 65.5332 87.6304 67.2598C87.6507 68.8951 87.3054 70.3881 86.6351 71.7694Z" fill="#3487B4"/>
</g>
<defs>
<clipPath id="clip0_674_4053">
<rect width="109.073" height="109.083" fill="white" transform="translate(0.638 0.408203)"/>
</clipPath>
</defs>
</svg>
