<svg width="60" height="60" viewBox="0 0 60 60" fill="none" xmlns="http://www.w3.org/2000/svg">
<g id="nextjs">
<path id="Vector" d="M19.1214 18.6422L20.6493 17.5387C20.1706 16.876 19.3193 16.5974 18.5415 16.8489C17.7637 17.1004 17.2367 17.8247 17.2367 18.6422H19.1214ZM30.4297 54.4519C16.898 54.4519 5.92832 43.4824 5.92832 29.9505H2.15887C2.15887 45.5639 14.8161 58.2214 30.4297 58.2214V54.4519ZM54.9311 29.9505C54.9311 43.4824 43.9616 54.4519 30.4297 54.4519V58.2214C46.0431 58.2214 58.7005 45.5639 58.7005 29.9505H54.9311ZM30.4297 5.44913C43.9616 5.44913 54.9311 16.4188 54.9311 29.9505H58.7005C58.7005 14.337 46.0431 1.67969 30.4297 1.67969V5.44913ZM30.4297 1.67969C14.8161 1.67969 2.15887 14.337 2.15887 29.9505H5.92832C5.92832 16.4188 16.898 5.44913 30.4297 5.44913V1.67969ZM21.0061 46.913V18.6422H17.2367V46.913H21.0061ZM17.5935 19.7457L42.095 53.6705L45.1505 51.4639L20.6493 17.5387L17.5935 19.7457ZM39.8533 16.7575V39.3741H43.6228V16.7575H39.8533Z" fill="#9A9FA6"/>
</g>
</svg>
