<svg width="58" height="52" viewBox="0 0 58 52" fill="none" xmlns="http://www.w3.org/2000/svg">
<g id="reactjs logo" clip-path="url(#clip0_674_4282)">
<path id="path4783" d="M24.137 25.9665C24.137 23.1787 26.4015 20.9142 29.1893 20.9142C31.9772 20.9142 34.2417 23.1787 34.2417 25.9665C34.2417 28.7543 31.9772 31.0188 29.1893 31.0188C26.4015 31.0188 24.137 28.7543 24.137 25.9665ZM57.4501 25.9665C57.4501 29.4387 53.3539 32.9512 46.7517 35.1351C46.4095 35.2458 46.0572 35.3566 45.6949 35.4673C45.8258 35.9805 45.9365 36.4838 46.0371 36.9769C46.651 40.0969 46.7517 42.9954 46.3189 45.3505C45.856 47.8565 44.8093 49.6379 43.2996 50.5135C42.5448 50.9563 41.649 51.1778 40.6527 51.1778C37.9152 51.1778 34.443 49.5272 30.8198 46.4072C30.3065 45.9644 29.8033 45.5014 29.29 45.0083C28.8975 45.3907 28.505 45.7531 28.1125 46.0952C25.7171 48.1886 23.2514 49.7184 20.9969 50.5135C19.8194 50.9362 18.7123 51.1476 17.726 51.1476C16.6995 51.1476 15.7937 50.9261 15.0288 50.4833C12.1403 48.8126 11.1339 44.0019 12.3516 37.611C12.4724 36.9568 12.6234 36.2825 12.7945 35.5981C12.2611 35.4471 11.7478 35.2861 11.2546 35.115C8.24538 34.0884 5.68903 32.7197 3.86737 31.1597C1.93501 29.5092 0.908447 27.7076 0.908447 25.9665C0.908447 22.6251 4.57188 19.3542 10.7212 17.2205C11.3955 16.9891 12.1 16.7677 12.8247 16.5563C12.6636 15.9222 12.5227 15.2983 12.402 14.6843C11.8082 11.6449 11.6975 8.85705 12.0799 6.61269C12.5026 4.16705 13.499 2.42591 14.9784 1.57044C17.9776 -0.170696 23.0803 1.62076 28.2735 6.24031C28.5855 6.52211 28.8975 6.81398 29.2195 7.11591C29.6926 6.66302 30.1656 6.23025 30.6285 5.81761C32.9635 3.7846 35.3286 2.29508 37.4623 1.51006C39.7871 0.654583 41.8 0.654583 43.2694 1.49999C46.2787 3.23106 47.275 8.54505 45.866 15.3486C45.7855 15.7612 45.6849 16.1739 45.5842 16.5966C46.2082 16.7777 46.8121 16.9689 47.3958 17.1702C50.3245 18.1767 52.7903 19.485 54.5415 20.9343C56.4437 22.5245 57.4501 24.2656 57.4501 25.9665ZM30.9104 8.83692C32.5207 10.568 34.131 12.5809 35.6809 14.795C38.3479 15.0466 40.8942 15.4492 43.2493 15.9927C43.3399 15.6102 43.4304 15.2379 43.5009 14.8655C44.8193 8.45447 43.682 4.52937 42.0617 3.59338C41.2364 3.12036 39.8978 3.18074 38.2875 3.77454C36.4256 4.45892 34.3222 5.79748 32.2087 7.63926C31.7759 8.01164 31.3431 8.41422 30.9104 8.83692ZM15.7836 33.857C17.3939 34.2092 19.135 34.491 20.9869 34.6923C20.383 33.7463 19.7892 32.7801 19.2155 31.7938C18.6519 30.8276 18.1185 29.8513 17.6153 28.8751C16.9007 30.5659 16.2767 32.2467 15.7836 33.857ZM19.2155 20.26C19.7792 19.2938 20.3528 18.3377 20.9466 17.4118C19.1552 17.6332 17.4342 17.9351 15.8138 18.2874C16.3069 19.8775 16.9108 21.518 17.6153 23.1887C18.1185 22.2125 18.6519 21.2362 19.2155 20.26ZM21.3089 30.586C22.1845 32.0957 23.1105 33.5651 24.0766 34.964C25.7171 35.0647 27.4281 35.1251 29.1893 35.1251C30.9607 35.1251 32.6917 35.0647 34.3624 34.9439C35.2783 33.5651 36.1841 32.1058 37.0798 30.5659C37.9655 29.0361 38.7807 27.4963 39.5154 25.9866C38.7807 24.5072 37.9755 22.9975 37.0798 21.4576C36.2042 19.9379 35.2884 18.4887 34.3524 17.0998C32.6716 16.9689 30.9405 16.9086 29.1893 16.9086C27.4583 16.9086 25.7272 16.979 24.0364 17.1098C23.0903 18.4987 22.1644 19.9581 21.2989 21.4677C20.4333 22.9673 19.6282 24.4971 18.8935 26.0269C19.6282 27.5466 20.4333 29.0764 21.3089 30.586ZM37.4421 34.6521C39.304 34.4306 41.0754 34.1287 42.7159 33.7563C42.2126 32.1762 41.5786 30.5055 40.8137 28.7745C40.3004 29.7708 39.7469 30.7773 39.1732 31.7736C38.5995 32.7599 38.0259 33.7261 37.4421 34.6521ZM42.5951 18.3176C40.9647 17.9452 39.2336 17.6433 37.4321 17.4118C38.0158 18.3276 38.5895 19.2737 39.1531 20.2399C39.7267 21.2362 40.2702 22.2225 40.7835 23.1887C41.4981 21.518 42.112 19.8775 42.5951 18.3176ZM25.858 14.5736C26.9551 14.5233 28.0621 14.4931 29.1793 14.4931C30.3166 14.4931 31.4337 14.5233 32.5508 14.5736C31.4538 13.1143 30.3367 11.7657 29.2195 10.5579C28.0823 11.7757 26.9551 13.1243 25.858 14.5736ZM14.7772 14.2214C14.8879 14.795 15.0187 15.3687 15.1697 15.9625C17.5147 15.4291 20.061 15.0366 22.728 14.785C24.2779 12.601 25.8983 10.5982 27.5388 8.82686C27.257 8.55512 26.9752 8.29345 26.6934 8.0519C21.782 3.70409 17.8166 2.72784 16.1962 3.66383C15.371 4.13686 14.757 5.33452 14.4652 7.02533C14.133 8.97782 14.2337 11.4738 14.7772 14.2214ZM16.2264 26.0369C15.1093 23.6014 14.1733 21.196 13.4688 18.8912C12.7945 19.0825 12.1504 19.2837 11.5264 19.5052C5.87018 21.4778 3.33396 24.175 3.33396 25.9766C3.33396 27.8485 6.06141 30.7974 12.0396 32.8405C12.4925 32.9914 12.9555 33.1424 13.4386 33.2833C14.1532 30.9383 15.0892 28.5027 16.2264 26.0369ZM27.5992 43.2873C25.9386 41.516 24.3081 39.493 22.7481 37.2889C19.9905 37.0675 17.4342 36.6951 15.1395 36.1818C14.9784 36.826 14.8476 37.4499 14.7268 38.0538C13.6097 43.9415 14.6866 47.4841 16.2365 48.3799C17.8569 49.3158 21.7719 48.4302 26.5323 44.2635C26.8745 43.9616 27.2369 43.6295 27.5992 43.2873ZM32.6012 37.46C31.484 37.5103 30.3367 37.5405 29.1893 37.5405C28.0621 37.5405 26.9651 37.5204 25.8882 37.4801C27.0054 38.9495 28.1426 40.3082 29.29 41.5461C30.387 40.3284 31.5042 38.9697 32.6012 37.46ZM43.682 37.4499C43.5915 36.997 43.4908 36.5442 43.37 36.0711C41.0351 36.6146 38.4586 37.0071 35.7211 37.2487C34.1611 39.5131 32.5609 41.5361 30.9808 43.2672C31.4538 43.7301 31.9369 44.1629 32.3999 44.5655C36.9389 48.4704 40.542 49.3158 42.1019 48.4101C43.7223 47.4841 44.9099 43.6496 43.682 37.4499ZM55.0447 25.9665C55.0447 25.0104 54.3201 23.8832 53.0017 22.7861C51.4819 21.518 49.2678 20.3606 46.6208 19.4448C46.0774 19.2636 45.5138 19.0825 44.9401 18.9114C44.2457 21.1557 43.3197 23.541 42.1825 25.9766C43.3701 28.4826 44.3362 30.888 45.0407 33.1323C45.3628 33.0317 45.6849 32.931 45.9969 32.8304C52.2066 30.7773 55.0447 27.8284 55.0447 25.9665Z" fill="#9A9FA6"/>
</g>
<defs>
<clipPath id="clip0_674_4282">
<rect width="56.5417" height="50.3106" fill="white" transform="translate(0.908875 0.867188)"/>
</clipPath>
</defs>
</svg>
