<svg width="88" height="78" viewBox="0 0 88 78" fill="none" xmlns="http://www.w3.org/2000/svg">
<g id="reactjs logo" clip-path="url(#clip0_674_4293)">
<path id="path4783" d="M36.3077 38.7373C36.3077 34.4846 39.762 31.0303 44.0146 31.0303C48.2672 31.0303 51.7215 34.4846 51.7215 38.7373C51.7215 42.9899 48.2672 46.4442 44.0146 46.4442C39.762 46.4442 36.3077 42.9899 36.3077 38.7373ZM87.1243 38.7373C87.1243 44.0339 80.8758 49.3919 70.8046 52.7233C70.2826 52.8922 69.7453 53.0611 69.1926 53.23C69.3922 54.0129 69.5611 54.7806 69.7146 55.5328C70.6511 60.2921 70.8046 64.7136 70.1445 68.3061C69.4382 72.1288 67.8416 74.8462 65.5387 76.1819C64.3873 76.8574 63.0209 77.1951 61.501 77.1951C57.3252 77.1951 52.0286 74.6773 46.5017 69.9181C45.7187 69.2426 44.9511 68.5363 44.1681 67.7841C43.5694 68.3675 42.9706 68.9202 42.3719 69.4421C38.718 72.6355 34.9567 74.969 31.5177 76.1819C29.7215 76.8267 28.0327 77.1491 26.5282 77.1491C24.9622 77.1491 23.5805 76.8113 22.4137 76.1358C18.0076 73.5873 16.4723 66.2488 18.33 56.5C18.5142 55.5021 18.7445 54.4735 19.0055 53.4296C18.1918 53.1993 17.4088 52.9536 16.6566 52.6926C12.0662 51.1267 8.16666 49.0387 5.38787 46.6591C2.4402 44.1413 0.874252 41.3932 0.874252 38.7373C0.874252 33.6403 6.46254 28.6507 15.8429 25.396C16.8715 25.0429 17.9462 24.7051 19.0515 24.3827C18.8059 23.4155 18.591 22.4637 18.4067 21.5272C17.5009 16.8907 17.3321 12.6381 17.9155 9.21453C18.5603 5.48388 20.0802 2.82791 22.337 1.52296C26.912 -1.13302 34.6957 1.59972 42.6175 8.64649C43.0935 9.07635 43.5694 9.52158 44.0607 9.98215C44.7822 9.29129 45.5038 8.63113 46.21 8.00168C49.7718 4.90049 53.3796 2.62833 56.6343 1.43084C60.1807 0.125884 63.2512 0.125884 65.4927 1.41549C70.083 4.05611 71.6029 12.1622 69.4536 22.5404C69.3308 23.1699 69.1772 23.7993 69.0237 24.4441C69.9756 24.7205 70.8967 25.0122 71.7872 25.3192C76.2547 26.8545 80.0161 28.8503 82.6874 31.061C85.589 33.4867 87.1243 36.1427 87.1243 38.7373ZM46.6399 12.6074C49.0963 15.248 51.5527 18.3185 53.9169 21.6961C57.9853 22.0799 61.8695 22.694 65.462 23.523C65.6001 22.9396 65.7383 22.3716 65.8458 21.8035C67.8569 12.024 66.1221 6.03657 63.6504 4.6088C62.3915 3.88723 60.3496 3.97935 57.8932 4.88514C55.053 5.92911 51.8443 7.97098 48.6203 10.7805C47.9602 11.3485 47.3 11.9626 46.6399 12.6074ZM23.5652 50.7736C26.0215 51.3109 28.6775 51.7408 31.5024 52.0478C30.5812 50.6047 29.6754 49.1309 28.8003 47.6263C27.9406 46.1525 27.1269 44.6633 26.3593 43.1741C25.2693 45.7533 24.3174 48.3172 23.5652 50.7736ZM28.8003 30.0324C29.6601 28.5586 30.5352 27.1001 31.441 25.6877C28.7082 26.0254 26.083 26.486 23.6112 27.0234C24.3635 29.449 25.2846 31.9515 26.3593 34.5C27.1269 33.0108 27.9406 31.5216 28.8003 30.0324ZM31.9936 45.784C33.3293 48.0869 34.7417 50.3284 36.2156 52.4623C38.718 52.6159 41.3279 52.708 44.0146 52.708C46.7166 52.708 49.3573 52.6159 51.9058 52.4316C53.3028 50.3284 54.6845 48.1023 56.0509 45.7533C57.4019 43.4198 58.6455 41.0708 59.7662 38.768C58.6455 36.5112 57.4173 34.2083 56.0509 31.8594C54.7153 29.5412 53.3182 27.3304 51.8904 25.2118C49.3265 25.0122 46.6859 24.9201 44.0146 24.9201C41.374 24.9201 38.7334 25.0275 36.1542 25.2271C34.711 27.3458 33.2986 29.5719 31.9783 31.8747C30.658 34.1622 29.4298 36.4958 28.3091 38.8294C29.4298 41.1476 30.658 43.4812 31.9936 45.784ZM56.6036 51.9864C59.4438 51.6487 62.1458 51.1881 64.6483 50.6201C63.8807 48.2097 62.9135 45.6612 61.7467 43.0206C60.9637 44.5405 60.1193 46.0757 59.2442 47.5956C58.3691 49.1002 57.494 50.574 56.6036 51.9864ZM64.4641 27.0694C61.977 26.5014 59.3363 26.0408 56.5882 25.6877C57.4787 27.0848 58.3538 28.5279 59.2135 30.0017C60.0886 31.5216 60.9176 33.0262 61.7006 34.5C62.7906 31.9515 63.7271 29.449 64.4641 27.0694ZM38.9329 21.3583C40.6064 21.2815 42.2951 21.2355 43.9993 21.2355C45.7341 21.2355 47.4382 21.2815 49.1423 21.3583C47.4689 19.1322 45.7648 17.075 44.0607 15.2327C42.3258 17.0903 40.6064 19.1476 38.9329 21.3583ZM22.0299 20.821C22.1988 21.6961 22.3984 22.5711 22.6287 23.4769C26.2058 22.6633 30.0899 22.0645 34.1583 21.6807C36.5226 18.3492 38.9944 15.2941 41.4968 12.5921C41.0669 12.1775 40.6371 11.7784 40.2072 11.4099C32.7152 4.77767 26.6663 3.28849 24.1946 4.71626C22.9357 5.43783 21.9992 7.26477 21.554 9.84398C21.0474 12.8223 21.2009 16.6298 22.0299 20.821ZM24.2407 38.8447C22.5365 35.1294 21.1088 31.4602 20.0341 27.9445C19.0055 28.2362 18.0229 28.5432 17.0711 28.881C8.443 31.8901 4.57419 36.0045 4.57419 38.7526C4.57419 41.6082 8.7347 46.1064 17.854 49.223C18.5449 49.4533 19.2511 49.6836 19.988 49.8985C21.0781 46.3214 22.5058 42.6061 24.2407 38.8447ZM41.5889 65.1588C39.0558 62.4568 36.5687 59.3709 34.189 56.0088C29.9825 55.671 26.083 55.103 22.5826 54.32C22.337 55.3026 22.1374 56.2544 21.9531 57.1755C20.249 66.1567 21.8917 71.5608 24.256 72.9271C26.7278 74.3549 32.6999 73.0039 39.9616 66.648C40.4835 66.1874 41.0362 65.6808 41.5889 65.1588ZM49.2191 56.2698C47.515 56.3465 45.7648 56.3926 44.0146 56.3926C42.2951 56.3926 40.6217 56.3619 38.979 56.3005C40.6831 58.5419 42.4179 60.6145 44.1681 62.5028C45.8415 60.6452 47.5457 58.5726 49.2191 56.2698ZM66.1221 56.2544C65.9839 55.5635 65.8304 54.8727 65.6462 54.1511C62.0844 54.9801 58.1542 55.5789 53.9783 55.9473C51.5987 59.4016 49.1577 62.4875 46.7473 65.1281C47.4689 65.8343 48.2058 66.4945 48.912 67.1086C55.836 73.0653 61.3322 74.3549 63.7118 72.9732C66.1835 71.5608 67.9951 65.7115 66.1221 56.2544ZM83.455 38.7373C83.455 37.2788 82.3496 35.5593 80.3385 33.8859C78.0202 31.9515 74.6427 30.186 70.605 28.7889C69.776 28.5125 68.9163 28.2362 68.0412 27.9752C66.9818 31.3988 65.5694 35.0373 63.8346 38.7526C65.6462 42.5754 67.12 46.2446 68.1947 49.6682C68.686 49.5147 69.1773 49.3612 69.6532 49.2076C79.1256 46.0757 83.455 41.5775 83.455 38.7373Z" fill="#9A9FA6"/>
</g>
<defs>
<clipPath id="clip0_674_4293">
<rect width="86.25" height="76.7449" fill="white" transform="translate(0.875 0.450195)"/>
</clipPath>
</defs>
</svg>
