<svg width="60" height="60" viewBox="0 0 60 60" fill="none" xmlns="http://www.w3.org/2000/svg">
<g id="Saas">
<path id="Vector" d="M47.8227 33.638C46.1432 33.6455 44.6886 34.0504 43.4739 34.6502C43.0316 33.758 42.5742 32.9782 42.4992 32.3933C42.4092 31.711 42.3118 31.3062 42.4167 30.4964C42.5217 29.6866 42.9941 28.5394 42.9866 28.457C42.9791 28.3745 42.8816 27.9621 41.9144 27.9546C40.9472 27.9471 40.1149 28.1421 40.0174 28.397C39.9199 28.6519 39.7325 29.2292 39.62 29.8291C39.4476 30.7063 37.6856 33.8404 36.6884 35.475C36.3585 34.8376 36.081 34.2753 36.0211 33.8254C35.9311 33.1431 35.8336 32.7382 35.9386 31.9285C36.0435 31.1187 36.5159 29.9715 36.5084 29.8891C36.5009 29.8066 36.4034 29.3942 35.4362 29.3867C34.469 29.3792 33.6367 29.5741 33.5393 29.8291C33.4418 30.084 33.3368 30.6838 33.1419 31.2612C32.9469 31.8385 30.6001 37.057 29.9853 38.4141C29.6704 39.1039 29.4004 39.6588 29.2055 40.0337C29.0105 40.4086 29.1905 40.0562 29.1755 40.1012C29.0105 40.4236 28.9131 40.6035 28.9131 40.6035V40.611C28.7856 40.8509 28.6432 41.0684 28.5757 41.0684C28.5307 41.0684 28.4332 40.4386 28.5982 39.5763C28.9506 37.7618 29.7828 34.9426 29.7753 34.8451C29.7678 34.7927 29.9328 34.3053 29.228 34.0429C28.5457 33.7954 28.2982 34.2078 28.2383 34.2078C28.1783 34.2078 28.1333 34.3578 28.1333 34.3578C28.1333 34.3578 28.8906 31.1787 26.6787 31.1787C25.2991 31.1787 23.3796 32.6933 22.4349 34.0654C21.8426 34.3878 20.5604 35.0851 19.2108 35.8274C18.6935 36.1123 18.1611 36.4047 17.6588 36.6821C17.6213 36.6446 17.5913 36.6071 17.5538 36.5697C14.8696 33.7055 9.91348 31.681 10.1234 27.8346C10.1984 26.4325 10.6858 22.7511 19.6532 18.2824C27.0011 14.6234 32.8794 15.6281 33.8917 17.8625C35.3462 21.0491 30.7501 26.9799 23.1172 27.8346C20.208 28.1571 18.6785 27.0324 18.2961 26.6125C17.8987 26.1701 17.8387 26.1476 17.6888 26.2301C17.4413 26.3651 17.5988 26.7549 17.6888 26.9874C17.9137 27.5797 18.8509 28.6294 20.448 29.1543C21.8501 29.6116 25.2616 29.8666 29.3854 28.2695C34.0191 26.485 37.6256 21.5139 36.5684 17.3526C35.4887 13.1238 28.4782 11.7367 21.8426 14.0911C17.8912 15.4932 13.6174 17.6975 10.5433 20.5692C6.89184 23.9882 6.307 26.9649 6.54694 28.2095C7.40169 32.6258 13.49 35.505 15.9268 37.6344C15.8068 37.7018 15.6943 37.7618 15.5894 37.8218C14.3672 38.4291 9.72603 40.8584 8.56386 43.4227C7.25174 46.3319 8.7813 48.4163 9.78601 48.7012C12.9201 49.571 16.1292 48.0039 17.8537 45.4321C19.5782 42.8604 19.3683 39.5013 18.5735 37.9718C18.566 37.9493 18.551 37.9343 18.5435 37.9118C18.8584 37.7243 19.1808 37.5369 19.5032 37.3494C20.1256 36.982 20.7329 36.6446 21.2652 36.3522C20.9653 37.162 20.7479 38.1367 20.6354 39.5463C20.5005 41.1958 21.1828 43.3327 22.0675 44.1725C22.4574 44.5399 22.9298 44.5474 23.2222 44.5474C24.2569 44.5474 24.7218 43.6926 25.2391 42.6729C25.8764 41.4283 26.4388 39.9812 26.4388 39.9812C26.4388 39.9812 25.734 43.8951 27.6609 43.8951C28.3657 43.8951 29.0705 42.9878 29.3854 42.523V42.5305C29.3854 42.5305 29.4004 42.5005 29.4379 42.4405C29.5129 42.328 29.5504 42.2605 29.5504 42.2605V42.238C29.8353 41.7507 30.4576 40.6335 31.3949 38.789C32.6095 36.4047 33.7717 33.428 33.7717 33.428C33.7717 33.428 33.8767 34.1553 34.2366 35.3625C34.4465 36.0748 34.8889 36.8546 35.2413 37.6119C34.9564 38.0017 34.7839 38.2267 34.7839 38.2267C34.7839 38.2267 34.7839 38.2342 34.7914 38.2417C34.5665 38.5416 34.3115 38.864 34.0491 39.1789C33.0894 40.3186 31.9497 41.6232 31.7998 41.9981C31.6198 42.4405 31.6648 42.7704 32.0097 43.0253C32.2646 43.2203 32.7145 43.2503 33.1869 43.2128C34.0491 43.1528 34.6564 42.9428 34.9489 42.8079C35.4137 42.6429 35.9536 42.3805 36.4634 42.0131C37.4007 41.3233 37.9705 40.3336 37.918 39.029C37.888 38.3092 37.6556 37.5894 37.3707 36.9146C37.4531 36.7946 37.5431 36.6671 37.6256 36.5397C39.1102 34.3728 40.2573 31.996 40.2573 31.996C40.2573 31.996 40.3623 32.7232 40.7222 33.9304C40.9022 34.5377 41.2546 35.205 41.577 35.8574C40.1824 36.9895 39.3201 38.3017 39.0202 39.1639C38.4654 40.761 38.9002 41.4808 39.7175 41.6457C40.0849 41.7207 40.6097 41.5482 40.9996 41.3833C41.487 41.2183 42.0718 40.9559 42.6192 40.551C43.5564 39.8612 44.4636 38.894 44.4037 37.5819C44.3812 36.9895 44.2162 36.3972 43.9988 35.8274C45.1759 35.3325 46.7055 35.0626 48.655 35.2875C52.8313 35.7749 53.6485 38.3841 53.4911 39.4713C53.3336 40.566 52.4564 41.1658 52.164 41.3458C51.8715 41.5257 51.7816 41.5932 51.8041 41.7282C51.8416 41.9231 51.9765 41.9156 52.2239 41.8706C52.5688 41.8107 54.4133 40.9859 54.4958 38.969C54.6158 36.4197 52.164 33.6155 47.8227 33.638ZM15.6344 44.4874C14.2547 45.9945 12.3203 46.5643 11.488 46.0844C10.5958 45.5671 10.9482 43.3477 12.6502 41.7432C13.6849 40.7685 15.0195 39.8687 15.9043 39.3139C16.1067 39.1939 16.3991 39.014 16.759 38.7965C16.819 38.759 16.849 38.744 16.849 38.744C16.9165 38.699 16.9915 38.6616 17.0664 38.6166C17.6888 40.8959 17.0889 42.9054 15.6344 44.4874ZM25.7115 37.6344C25.2316 38.8115 24.2194 41.8107 23.6046 41.6532C23.0797 41.5182 22.7573 39.2314 23.4996 36.982C23.8745 35.8499 24.6693 34.5002 25.1416 33.9754C25.8989 33.1281 26.7312 32.8582 26.9261 33.1956C27.1886 33.638 26.0114 36.8996 25.7115 37.6344ZM34.0341 41.6082C33.8317 41.7132 33.6442 41.7807 33.5543 41.7282C33.4868 41.6907 33.6367 41.5482 33.6367 41.5482C33.6367 41.5482 34.6789 40.4311 35.0913 39.9212C35.3312 39.6213 35.6087 39.2689 35.9086 38.879C35.9086 38.9165 35.9161 38.954 35.9161 38.999C35.9086 40.3411 34.619 41.2483 34.0341 41.6082ZM40.4523 40.1461C40.3023 40.0412 40.3248 39.6888 40.8272 38.5941C41.0221 38.1667 41.472 37.4469 42.2518 36.7571C42.3418 37.042 42.3942 37.3119 42.3942 37.5669C42.3867 39.2539 41.1796 39.8837 40.4523 40.1461Z" fill="#9A9FA6"/>
</g>
</svg>
