<svg width="91" height="91" viewBox="0 0 91 91" fill="none" xmlns="http://www.w3.org/2000/svg">
<g id="SCSS">
<path id="Vector" d="M45.6606 53.5439C44.3078 54.1654 42.8256 54.9754 39.8584 56.6039C38.7334 57.2367 37.5578 57.8695 36.4637 58.4658C36.3878 58.3898 36.3091 58.2942 36.2331 58.2154C30.3634 51.9436 19.5072 47.5139 19.9684 39.0904C20.14 36.022 21.1947 27.967 40.8175 18.1851C56.9669 10.2257 69.8172 12.4307 72.0362 17.3217C75.2256 24.2939 65.1484 37.2679 48.4703 39.1495C46.6244 39.5239 44.718 39.4787 42.892 39.0172C41.0659 38.5557 39.367 37.6897 37.9206 36.4832C37.0375 35.5242 36.9053 35.4679 36.5791 35.6592C36.0419 35.9404 36.3878 36.8095 36.5791 37.3073C37.2153 38.4592 38.0759 39.4718 39.1102 40.2853C40.1445 41.0988 41.3313 41.6966 42.6006 42.0436C49.1639 43.4622 56.0069 42.7844 62.1644 40.1057C72.2725 36.1936 80.1644 25.3176 77.8525 16.1995C75.5322 6.95481 60.1872 3.90606 45.6691 9.06419C36.577 12.1281 28.1768 16.9513 20.9472 23.2589C12.9484 30.7401 11.6828 37.2426 12.2003 39.9651C14.0622 49.6317 27.3878 55.9232 32.7316 60.5836C32.4503 60.7382 32.2141 60.8648 32.0031 60.9858C29.3369 62.3104 19.1725 67.6232 16.6384 73.2426C13.7612 79.6101 17.0997 84.1748 19.3047 84.7879C22.6276 85.5839 26.1162 85.3222 29.2832 84.0395C32.4502 82.7568 35.1376 80.517 36.97 77.6329C38.5261 75.2414 39.4816 72.5094 39.7553 69.6694C40.0291 66.8293 39.6129 63.9651 38.5422 61.3204C39.1739 60.8166 39.8476 60.3677 40.5559 59.9789C41.9172 59.1745 43.2137 58.3814 44.3641 57.7682C48.3026 55.9234 52.6008 54.9735 56.95 54.9867C66.0794 56.0611 67.8822 61.7564 67.5362 64.1554C67.3744 65.0066 67.0321 65.8132 66.5325 66.5211C66.0328 67.2289 65.3873 67.8214 64.6394 68.2589C64.0066 68.6611 63.7956 68.7961 63.8519 69.0829C63.9278 69.5048 64.2344 69.4851 64.7716 69.4092C66.1432 68.9757 67.3516 68.1374 68.2381 67.0045C69.1245 65.8716 69.6476 64.497 69.7384 63.0614C70.0197 57.4364 64.6562 51.2657 55.1612 51.322C52.3182 51.3269 49.5035 51.8877 46.8756 52.9729C46.4538 53.1473 46.0441 53.3348 45.6466 53.5354L45.6606 53.5439ZM32.0903 75.5911C29.0584 78.8901 24.8397 80.1361 23.0172 79.0814C21.0484 77.9564 21.8275 73.0767 25.5484 69.5864C27.7522 67.6008 30.1341 65.8223 32.6641 64.2736C33.1056 63.9923 33.7581 63.6211 34.5428 63.1486C34.6778 63.0726 34.7537 63.0332 34.7537 63.0332L35.215 62.752C35.8786 64.977 35.939 67.3384 35.39 69.5943C34.8409 71.8503 33.7022 73.9199 32.0903 75.5911Z" fill="#9A9FA6"/>
</g>
</svg>
