<svg width="60" height="60" viewBox="0 0 60 60" fill="none" xmlns="http://www.w3.org/2000/svg">
<g id="Tailwind CSS">
<path id="Vector" d="M31.2407 16.9502C24.9763 16.9502 21.0613 20.0815 19.4951 26.3435C21.8444 23.2122 24.585 22.0384 27.7169 22.821C29.5041 23.2675 30.7813 24.564 32.1954 25.9987C34.4983 28.3357 37.1637 31.0405 42.9863 31.0405C49.2501 31.0405 53.1657 27.9092 54.7314 21.6466C52.3826 24.7779 49.642 25.9523 46.5095 25.1697C44.723 24.7232 43.4458 23.4267 42.0317 21.992C39.7287 19.655 37.0627 16.9502 31.2407 16.9502ZM19.4951 31.0405C13.2313 31.0405 9.31565 34.1718 7.75 40.4344C10.0988 37.3031 12.8394 36.1287 15.9719 36.9119C17.7584 37.3589 19.0356 38.6549 20.4497 40.089C22.7527 42.426 25.4187 45.1314 31.2407 45.1314C37.5051 45.1314 41.4201 42.0001 42.9863 35.7375C40.637 38.8688 37.8963 40.0432 34.7645 39.26C32.9773 38.8141 31.7001 37.517 30.286 36.0829C27.9831 33.7459 25.3176 31.0405 19.4951 31.0405Z" fill="#9A9FA6"/>
</g>
</svg>
