<svg width="51" height="50" viewBox="0 0 51 50" fill="none" xmlns="http://www.w3.org/2000/svg">
<g id="target">
<path id="Vector" d="M5.61312 39.5564H7.94776V24.4585C7.94776 23.9864 8.33401 23.6001 8.80609 23.6001H15.192C15.6641 23.6001 16.0503 23.9864 16.0503 24.4585V39.5564H20.7111V16.5275C20.7111 16.0555 21.0973 15.6692 21.5694 15.6692H27.9553C28.4274 15.6692 28.8136 16.0555 28.8136 16.5275V39.5564H33.4829V21.2569C33.4829 20.7848 33.8606 20.3986 34.3327 20.3986H40.71C41.1821 20.3986 41.5683 20.7848 41.5683 21.2569V39.5564H43.903C44.3751 39.5736 44.7527 39.9684 44.7356 40.4405C44.7184 40.8954 44.3579 41.2559 43.903 41.273H5.61312C5.14104 41.273 4.76337 40.8782 4.77196 40.3976C4.77196 39.9341 5.14962 39.565 5.61312 39.5564ZM47.1131 43.5734H3.27847V34.4751C3.75055 34.4579 4.12821 34.0631 4.11105 33.591C4.09388 33.1361 3.73339 32.7756 3.27847 32.7585V24.5443C3.75055 24.5186 4.11963 24.1151 4.09388 23.6431C4.07672 23.1967 3.71622 22.8448 3.27847 22.8277V14.6221C3.75055 14.5963 4.11963 14.1929 4.09388 13.7208C4.06813 13.2659 3.70764 12.914 3.25272 12.9054H1.58757C1.11549 12.9054 0.746415 13.3002 0.746415 13.7723C0.746415 14.2187 1.10691 14.5877 1.55324 14.6135V22.8191C1.08116 22.8448 0.720665 23.2568 0.746415 23.7289C0.772165 24.1666 1.11549 24.51 1.55324 24.5357V32.7499C1.08116 32.7842 0.720665 33.1962 0.754998 33.6683C0.780748 34.0975 1.12408 34.4408 1.55324 34.4665V44.4231C1.55324 44.8952 1.93949 45.2814 2.41157 45.2814H47.1045C47.5766 45.2814 47.9543 44.8866 47.9457 44.4059C47.9457 43.9424 47.568 43.5734 47.1045 43.5648L47.1131 43.5734ZM48.6667 4.17625C48.4006 3.78142 47.8684 3.67842 47.4822 3.93592L37.7831 10.3991L24.7366 3.88442C24.4705 3.75567 24.1615 3.76426 23.9126 3.91876L7.04652 14.0298C6.64311 14.2873 6.52294 14.8195 6.77185 15.2229C6.92635 15.4718 7.19243 15.6177 7.48426 15.6263C7.63876 15.6263 7.79326 15.5834 7.92201 15.5061L24.3933 5.62682L37.457 12.1587C37.7316 12.296 38.0578 12.2788 38.3153 12.1072L48.4264 5.36074C48.8212 5.09466 48.9242 4.5625 48.6667 4.16767V4.17625Z" fill="url(#paint0_linear_335_131)"/>
</g>
<defs>
<linearGradient id="paint0_linear_335_131" x1="7.06917" y1="15.7111" x2="99.2501" y2="-18.9964" gradientUnits="userSpaceOnUse">
<stop stop-color="#1B9CE1"/>
<stop offset="1" stop-color="#0D15B8"/>
</linearGradient>
</defs>
</svg>
