<svg width="50" height="50" viewBox="0 0 50 50" fill="none" xmlns="http://www.w3.org/2000/svg">
<g id="target">
<path id="Vector" d="M8.69076 24.3094C9.0148 24.8754 8.82056 25.5981 8.25585 25.9229L6.02732 27.2125C5.46261 27.5373 4.74155 27.3426 4.41751 26.7766C4.09346 26.2106 4.2877 25.4879 4.85241 25.1631L7.08094 23.8735C7.64566 23.5487 8.36671 23.7434 8.69076 24.3094ZM42.0107 8.40619L44.2393 7.11654C44.804 6.79175 44.9982 6.06905 44.6742 5.50305C44.3501 4.93704 43.6291 4.74236 43.0644 5.06715L40.8358 6.3568C40.2711 6.68159 40.0769 7.40429 40.4009 7.97029C40.725 8.5363 41.446 8.73098 42.0107 8.40619ZM8.25964 6.3568L6.03111 5.06715C5.4664 4.73951 4.74345 4.9323 4.41656 5.4983C4.08967 6.0643 4.28201 6.7889 4.84673 7.11654L7.07526 8.40619C7.63997 8.73383 8.36292 8.54104 8.68981 7.97504C9.0167 7.40904 8.82435 6.68444 8.25964 6.3568ZM6.51055 16.1394C6.51055 15.4841 5.97994 14.9523 5.32616 14.9523H2.75274C2.09896 14.9523 1.56836 15.4841 1.56836 16.1394C1.56836 16.7946 2.09896 17.3264 2.75274 17.3264H5.32616C5.97994 17.3264 6.51055 16.7946 6.51055 16.1394ZM46.338 14.9523H43.7646C43.1108 14.9523 42.5802 15.4841 42.5802 16.1394C42.5802 16.7946 43.1108 17.3264 43.7646 17.3264H46.338C46.9918 17.3264 47.5224 16.7946 47.5224 16.1394C47.5224 15.4841 46.9918 14.9523 46.338 14.9523ZM44.244 25.1631L42.0155 23.8735C41.4507 23.5458 40.7278 23.7386 40.4009 24.3046C40.074 24.8706 40.2664 25.5952 40.8311 25.9229L43.0596 27.2125C43.6243 27.5402 44.3473 27.3474 44.6742 26.7814C45.001 26.2154 44.8087 25.4908 44.244 25.1631ZM29.9897 36.9884H19.101C18.4463 36.9884 17.9166 37.5202 17.9166 38.1755C17.9166 38.8308 18.4463 39.3626 19.101 39.3626H29.9897C30.6435 39.3626 31.1741 38.8308 31.1741 38.1755C31.1741 37.5202 30.6435 36.9884 29.9897 36.9884ZM27.4258 41.3446H21.6649C21.0112 41.3446 20.4806 41.8754 20.4806 42.5317C20.4806 43.1879 21.0112 43.7188 21.6649 43.7188H23.361V44.1575C23.361 44.8128 23.8906 45.3446 24.5454 45.3446C25.2001 45.3446 25.7297 44.8128 25.7297 44.1575V43.7188H27.4258C28.0796 43.7188 28.6102 43.1869 28.6102 42.5317C28.6102 41.8764 28.0796 41.3446 27.4258 41.3446ZM24.5454 2.79459C17.5651 2.79459 10.5839 6.97314 10.5839 15.3302C10.5839 24.4385 17.5641 26.3426 17.5641 33.1204V33.7045C17.5641 34.4215 18.1469 35.0055 18.8622 35.0055H23.361V23.525C21.5598 23.0083 20.2371 21.3426 20.2371 19.373C20.2371 16.9922 22.17 15.0558 24.5454 15.0558C26.9208 15.0558 28.8527 16.9922 28.8527 19.373C28.8527 21.3426 27.5309 23.0074 25.7297 23.524V35.0046H30.2275C30.9429 35.0046 31.5256 34.4205 31.5256 33.7035V33.1195C31.5256 26.3417 38.5059 24.4376 38.5059 15.3293C38.5068 6.97314 31.5256 2.79459 24.5454 2.79459ZM26.484 19.373C26.484 18.3018 25.6141 17.43 24.5454 17.43C23.4766 17.43 22.6058 18.3018 22.6058 19.373C22.6058 20.4442 23.4756 21.316 24.5454 21.316C25.6151 21.316 26.484 20.4442 26.484 19.373Z" fill="url(#paint0_linear_335_289)"/>
</g>
<defs>
<linearGradient id="paint0_linear_335_289" x1="7.61494" y1="15.0164" x2="97.2079" y2="-16.4307" gradientUnits="userSpaceOnUse">
<stop stop-color="#1B9CE1"/>
<stop offset="1" stop-color="#0D15B8"/>
</linearGradient>
</defs>
</svg>
