<svg width="49" height="50" viewBox="0 0 49 50" fill="none" xmlns="http://www.w3.org/2000/svg">
<g id="target">
<path id="Vector" d="M27.8438 20.2792C27.5097 20.6053 27.3555 21.076 27.4358 21.537L28.0671 25.2187L24.7597 23.4806C24.3453 23.2638 23.8505 23.2638 23.4377 23.4806L20.1303 25.2187L20.7616 21.537C20.8403 21.076 20.6877 20.6053 20.3536 20.2792L17.6791 17.6706L21.3768 17.1325C21.8394 17.065 22.2394 16.7743 22.4466 16.355L24.0995 13.0059L25.7524 16.3566C25.9596 16.7759 26.3596 17.0666 26.8222 17.1341L30.5199 17.6722L27.8438 20.2792ZM37.5106 34.5995C36.9998 35.6517 36.1982 36.903 34.7638 37.7334C33.7823 38.3005 32.6933 38.5768 31.4307 38.5768C30.7496 38.5768 30.1167 38.4948 29.6091 38.429C29.5176 38.4177 29.4132 38.4033 29.3104 38.392L33.0097 48.5584C33.3567 49.5109 34.6803 49.5688 35.1092 48.6499L36.6384 45.3699L39.9185 46.8991C40.8357 47.3279 41.8139 46.4316 41.4669 45.4791L37.5074 34.5995H37.5106ZM16.7667 38.5768C15.5057 38.5768 14.415 38.3005 13.4336 37.7334C12.0007 36.9046 11.1976 35.6533 10.6884 34.6011L6.72882 45.4807C6.38186 46.4332 7.3601 47.3279 8.27731 46.9007L11.5574 45.3715L13.0866 48.6515C13.5139 49.5688 14.8391 49.5125 15.1861 48.56L18.887 38.3936C18.7826 38.4065 18.6766 38.4193 18.5882 38.4306C18.079 38.4964 17.4477 38.5784 16.7667 38.5784V38.5768ZM29.9738 35.6099C29.4003 35.536 28.8076 35.4589 28.4622 35.5521C28.1506 35.6356 27.6928 35.9858 27.2511 36.3263C26.427 36.9592 25.4006 37.7479 24.0995 37.7479C22.7984 37.7479 21.7719 36.9608 20.9479 36.3263C20.5062 35.9874 20.0484 35.6356 19.7367 35.5521C19.3914 35.4589 18.797 35.536 18.2236 35.6099C17.157 35.748 15.9491 35.9039 14.8568 35.2726C13.7516 34.6333 13.2617 33.4494 12.8681 32.5001C12.6497 31.9732 12.4248 31.4287 12.1823 31.1877C11.9397 30.9452 11.3952 30.7203 10.8699 30.5018C9.91896 30.1083 8.73671 29.6183 8.0974 28.5132C7.46612 27.4209 7.62193 26.213 7.76007 25.1464C7.83396 24.5729 7.91107 23.9802 7.8179 23.6348C7.73437 23.3232 7.3842 22.8654 7.04366 22.4237C6.41077 21.5996 5.62207 20.5732 5.62207 19.2721C5.62207 17.971 6.40916 16.9445 7.04366 16.1205C7.38259 15.6788 7.73437 15.221 7.8179 14.9093C7.90946 14.564 7.83396 13.9697 7.76007 13.3962C7.62193 12.3296 7.46612 11.1217 8.0974 10.0294C8.73671 8.92423 9.92056 8.4343 10.8699 8.04075C11.3968 7.8223 11.9413 7.59741 12.1823 7.35486C12.4248 7.11231 12.6497 6.56776 12.8681 6.0425C13.2617 5.09156 13.7516 3.90932 14.8568 3.27001C15.9491 2.63872 17.157 2.79454 18.2236 2.93268C18.797 3.00657 19.3898 3.08367 19.7351 2.99051C20.0468 2.90698 20.5046 2.5568 20.9463 2.21626C21.7703 1.58338 22.7968 0.794678 24.0979 0.794678C25.399 0.794678 26.4254 1.58177 27.2495 2.21626C27.6912 2.5552 28.149 2.90698 28.4606 2.99051C28.806 3.08367 29.4003 3.00657 29.9738 2.93268C31.0404 2.79454 32.2483 2.63872 33.339 3.27001C34.4441 3.90932 34.9341 5.09317 35.3276 6.0425C35.5461 6.56937 35.771 7.11391 36.0135 7.35486C36.2561 7.59741 36.799 7.8223 37.3259 8.04075C38.2768 8.4343 39.459 8.92423 40.0984 10.0294C40.7296 11.1217 40.5738 12.3296 40.4357 13.3962C40.3618 13.9697 40.2847 14.5624 40.3779 14.9077C40.4614 15.2194 40.8116 15.6772 41.1521 16.1189C41.785 16.9429 42.5737 17.9694 42.5737 19.2705C42.5737 20.5716 41.7866 21.598 41.1521 22.4221C40.8132 22.8638 40.4614 23.3216 40.3779 23.6332C40.2847 23.9786 40.3618 24.5729 40.4357 25.1464C40.5738 26.213 40.7296 27.4209 40.0984 28.5116C39.459 29.6167 38.2752 30.1067 37.3259 30.5002C36.799 30.7187 36.2545 30.9436 36.0135 31.1861C35.771 31.4287 35.5461 31.9716 35.3276 32.4985C34.9341 33.4494 34.4441 34.6317 33.339 35.271C32.2467 35.9022 31.0388 35.7464 29.9722 35.6083L29.9738 35.6099ZM29.2943 29.0754C30.3368 29.6232 31.556 28.7381 31.3568 27.5767L30.3641 21.7924L34.5662 17.6963C35.4095 16.8739 34.9437 15.441 33.7791 15.2724L27.9723 14.4291L25.3749 9.16678C24.8545 8.10983 23.3477 8.10983 22.8257 9.16678L20.2283 14.4291L14.4215 15.2724C13.2553 15.441 12.791 16.8739 13.6344 17.6963L17.8365 21.7924L16.8438 27.5767C16.6446 28.7381 17.8638 29.6232 18.9063 29.0754L24.1011 26.3447L29.2959 29.0754H29.2943Z" fill="url(#paint0_linear_335_103)"/>
</g>
<defs>
<linearGradient id="paint0_linear_335_103" x1="10.4841" y1="14.7294" x2="86.7292" y2="-4.14474" gradientUnits="userSpaceOnUse">
<stop stop-color="#1B9CE1"/>
<stop offset="1" stop-color="#0D15B8"/>
</linearGradient>
</defs>
</svg>
