<svg width="49" height="50" viewBox="0 0 49 50" fill="none" xmlns="http://www.w3.org/2000/svg">
<g id="target" clip-path="url(#clip0_335_1188)">
<path id="Vector" fill-rule="evenodd" clip-rule="evenodd" d="M18.865 8.50195C8.99621 8.50195 0.995117 16.6838 0.995117 26.7765C0.995117 36.8692 8.99621 45.05 18.865 45.05C28.7337 45.05 36.7348 36.8682 36.7348 26.7765C36.7348 26.1025 36.6979 25.4371 36.6283 24.7825L32.1484 23.5553C32.3878 24.5895 32.5144 25.6679 32.5144 26.7765C32.5144 34.486 26.4031 40.7342 18.865 40.7342C11.3268 40.7342 5.21554 34.4849 5.21554 26.7765C5.21554 19.0681 11.3268 12.8177 18.865 12.8177C22.4927 12.8177 25.7883 14.2649 28.2328 16.6255L29.434 12.0413C26.4737 9.81759 22.8196 8.50195 18.865 8.50195ZM18.865 23.235C19.6622 23.235 20.3962 23.51 20.9815 23.9737L30.5117 18.3467L32.2845 11.5819L43.3481 5.04999L41.5753 11.8148L42.1142 11.4967C42.7427 11.1246 43.5474 11.3435 43.9112 11.9863C44.275 12.629 44.061 13.4518 43.4324 13.8238L42.8904 14.1441L49.5058 15.9569L38.4422 22.4888L31.8278 20.676L28.507 22.6365C29.03 23.9101 29.3201 25.3088 29.3201 26.7765C29.3201 32.6807 24.6398 37.4667 18.866 37.4667C13.0922 37.4667 8.41197 32.6807 8.41197 26.7765C8.41197 20.8723 13.0922 16.0863 18.866 16.0863C21.2821 16.0863 23.5072 16.9253 25.2779 18.3326L21.4909 20.5692C20.6862 20.2134 19.7993 20.0149 18.866 20.0149C15.214 20.0149 12.2527 23.042 12.2527 26.7765C12.2527 30.511 15.213 33.5381 18.866 33.5381C22.5191 33.5381 25.4782 30.511 25.4782 26.7765C25.4782 26.0249 25.358 25.3023 25.1365 24.6262L22.2966 26.3031C22.3166 26.4584 22.3271 26.6158 22.3271 26.7765C22.3271 28.7316 20.7769 30.3169 18.865 30.3169C16.953 30.3169 15.4028 28.7316 15.4028 26.7765C15.4028 24.8214 16.953 23.2361 18.865 23.2361V23.235Z" fill="url(#paint0_linear_335_1188)"/>
</g>
<defs>
<linearGradient id="paint0_linear_335_1188" x1="7.37809" y1="16.5394" x2="99.3236" y2="-19.7008" gradientUnits="userSpaceOnUse">
<stop stop-color="#1B9CE1"/>
<stop offset="1" stop-color="#0D15B8"/>
</linearGradient>
<clipPath id="clip0_335_1188">
<rect width="48.5106" height="48.5106" fill="white" transform="translate(0.144531 0.794678)"/>
</clipPath>
</defs>
</svg>
