<svg width="20" height="21" viewBox="0 0 20 21" fill="none" xmlns="http://www.w3.org/2000/svg">
<g id="Group">
<path id="Vector" d="M9.999 1.85213C12.6691 1.85213 12.9854 1.86229 14.0398 1.9104C15.0148 1.9549 15.5443 2.11781 15.8967 2.25472C16.3635 2.43613 16.6966 2.65286 17.0465 3.00277C17.3965 3.35268 17.6132 3.68584 17.7946 4.15258C17.9315 4.50499 18.0944 5.03448 18.1389 6.00943C18.187 7.06393 18.1972 7.38019 18.1972 10.0503C18.1972 12.7204 18.187 13.0367 18.1389 14.0912C18.0944 15.0661 17.9315 15.5956 17.7946 15.948C17.6132 16.4148 17.3965 16.7479 17.0465 17.0979C16.6966 17.4478 16.3635 17.6645 15.8967 17.8459C15.5443 17.9828 15.0148 18.1457 14.0398 18.1902C12.9855 18.2383 12.6693 18.2485 9.999 18.2485C7.32872 18.2485 7.01247 18.2383 5.95817 18.1902C4.98318 18.1457 4.45368 17.9828 4.10131 17.8459C3.63454 17.6645 3.30137 17.4478 2.95146 17.0979C2.60155 16.7479 2.38482 16.4148 2.20345 15.948C2.0665 15.5956 1.90359 15.0661 1.85909 14.0912C1.81098 13.0367 1.80082 12.7204 1.80082 10.0503C1.80082 7.38019 1.81098 7.06393 1.85909 6.00947C1.90359 5.03448 2.0665 4.50499 2.20345 4.15258C2.38482 3.68584 2.60155 3.35268 2.95146 3.00277C3.30137 2.65286 3.63454 2.43613 4.10131 2.25472C4.45368 2.11781 4.98317 1.9549 5.95813 1.9104C7.01262 1.86229 7.32888 1.85213 9.999 1.85213ZM9.999 0.050293C7.28315 0.050293 6.94264 0.0618045 5.87604 0.110471C4.81161 0.159057 4.08472 0.328079 3.4486 0.5753C2.79102 0.830857 2.23334 1.17279 1.67741 1.72872C1.12148 2.28465 0.779547 2.84232 0.523991 3.49991C0.27677 4.13603 0.107748 4.86292 0.0591615 5.92735C0.0104953 6.99391 -0.000976562 7.33446 -0.000976562 10.0503C-0.000976562 12.7662 0.0104953 13.1067 0.0591615 14.1733C0.107748 15.2377 0.27677 15.9646 0.523991 16.6007C0.779547 17.2583 1.12148 17.816 1.67741 18.3719C2.23334 18.9278 2.79102 19.2698 3.4486 19.5253C4.08472 19.7725 4.81161 19.9416 5.87604 19.9902C6.94264 20.0388 7.28315 20.0503 9.999 20.0503C12.7149 20.0503 13.0554 20.0388 14.122 19.9902C15.1864 19.9416 15.9133 19.7725 16.5494 19.5253C17.207 19.2698 17.7647 18.9278 18.3206 18.3719C18.8765 17.816 19.2185 17.2583 19.474 16.6007C19.7212 15.9646 19.8903 15.2377 19.9388 14.1733C19.9875 13.1067 19.999 12.7662 19.999 10.0503C19.999 7.33446 19.9875 6.99391 19.9388 5.92735C19.8903 4.86292 19.7212 4.13603 19.474 3.49991C19.2185 2.84232 18.8765 2.28465 18.3206 1.72872C17.7647 1.17279 17.207 0.830857 16.5494 0.5753C15.9133 0.328079 15.1864 0.159057 14.122 0.110471C13.0554 0.0618045 12.7149 0.050293 9.999 0.050293ZM9.999 4.91516C7.16295 4.91516 4.86385 7.21426 4.86385 10.0503C4.86385 12.8864 7.16295 15.1855 9.999 15.1855C12.8351 15.1855 15.1342 12.8864 15.1342 10.0503C15.1342 7.21426 12.8351 4.91516 9.999 4.91516ZM9.999 13.3837C8.15807 13.3837 6.66565 11.8913 6.66565 10.0503C6.66565 8.20938 8.15807 6.71696 9.999 6.71696C11.8399 6.71696 13.3324 8.20938 13.3324 10.0503C13.3324 11.8913 11.8399 13.3837 9.999 13.3837ZM16.537 4.71228C16.537 5.37503 15.9998 5.9123 15.337 5.9123C14.6743 5.9123 14.137 5.37503 14.137 4.71228C14.137 4.04953 14.6743 3.5123 15.337 3.5123C15.9998 3.5123 16.537 4.04953 16.537 4.71228Z" fill="white"/>
</g>
</svg>
