<svg width="50" height="50" viewBox="0 0 50 50" fill="none" xmlns="http://www.w3.org/2000/svg">
<g id="target">
<path id="Vector" d="M32.8897 20.3009V10.2322C32.8897 5.57146 29.1129 1.79468 24.4522 1.79468C19.7915 1.79468 16.0227 5.57146 16.0147 10.2322V20.3009C14.7611 20.3893 13.7808 21.434 13.7808 22.6956V40.0206C13.7808 41.3465 14.8576 42.4313 16.1834 42.4313H32.7049C34.0308 42.4313 35.1156 41.3545 35.1156 40.0286V22.7036C35.1156 21.442 34.1352 20.3974 32.8817 20.309L32.8897 20.3009ZM24.4522 4.80003C27.4495 4.80003 29.8843 7.22682 29.8843 10.2322V20.2849H19.0281V10.2322C19.0281 7.23486 21.4629 4.80807 24.4602 4.80003H24.4522ZM25.529 34.8616H23.3754C22.9495 34.8616 22.5397 34.6527 22.2906 34.3072C21.6879 33.6081 22.4111 32.3465 22.604 31.6232C21.8085 30.6027 21.9933 29.1322 23.0138 28.3447C24.0343 27.5491 25.5049 27.734 26.2924 28.7545C26.9433 29.5982 26.9513 30.7715 26.2924 31.6152L26.7826 33.1018C27.0156 33.8009 26.6299 34.5643 25.9308 34.7974C25.8022 34.8375 25.6576 34.8616 25.521 34.8616H25.529ZM8.67006 36.8706H12.1736V38.4777H9.16827L7.44059 41.9411C8.56559 43.0099 8.60577 44.7777 7.53702 45.9027C6.46827 47.0277 4.70041 47.0679 3.57541 45.9991C2.45041 44.9304 2.41023 43.1625 3.47898 42.0375C4.00934 41.475 4.74863 41.1616 5.52006 41.1697C5.68077 41.1697 5.84148 41.1938 6.0022 41.2179L7.95488 37.3125C8.09148 37.0393 8.3647 36.8706 8.67006 36.8706ZM7.44863 30.5545H12.1736V32.1616H7.44863C7.00666 33.6482 5.4397 34.5 3.95309 34.05C2.46648 33.6081 1.6147 32.0411 2.0647 30.5545C2.50666 29.0679 4.07363 28.2161 5.56023 28.6661C6.46827 28.9393 7.18345 29.6465 7.44863 30.5545ZM9.16827 24.2465H12.1736V25.8536H8.67006C8.3647 25.8536 8.09148 25.6768 7.95488 25.4036L6.0022 21.4982C5.84148 21.5304 5.68077 21.5465 5.52006 21.5465C3.96916 21.5465 2.70755 20.2849 2.70755 18.734C2.70755 17.1831 3.96916 15.9215 5.52006 15.9215C7.07095 15.9215 8.33256 17.1831 8.33256 18.734C8.33256 19.5054 8.01113 20.2527 7.44059 20.775L9.16827 24.2465ZM41.4558 32.1616H36.7308V30.5545H41.4558C41.8977 29.0679 43.4647 28.2161 44.9513 28.6661C46.4379 29.1081 47.2897 30.675 46.8397 32.1616C46.3977 33.6482 44.8308 34.5 43.3442 34.05C42.4361 33.7768 41.721 33.0697 41.4558 32.1616ZM40.2343 25.8536H36.7308V24.2465H39.7361L41.4638 20.775C40.8933 20.2527 40.5718 19.5054 40.5718 18.734C40.5718 17.1831 41.8335 15.9215 43.3843 15.9215C44.9352 15.9215 46.1968 17.1831 46.1968 18.734C46.1968 20.2849 44.9352 21.5465 43.3843 21.5465C43.2236 21.5465 43.0629 21.5304 42.9022 21.4982L40.9495 25.4036C40.8129 25.6768 40.5397 25.8536 40.2343 25.8536ZM46.1968 43.9822C46.1968 45.5331 44.9352 46.7947 43.3843 46.7947C41.8335 46.7947 40.5718 45.5331 40.5718 43.9822C40.5718 43.2268 40.8852 42.4956 41.4317 41.9732L39.7281 38.4777H36.7308V36.8706H40.2343C40.5397 36.8706 40.821 37.0474 40.9576 37.3206L42.854 41.2259C43.0308 41.1938 43.2076 41.1697 43.3843 41.1697C44.9352 41.1697 46.1968 42.4313 46.1968 43.9822Z" fill="url(#paint0_linear_335_1059)"/>
</g>
<defs>
<linearGradient id="paint0_linear_335_1059" x1="7.86746" y1="14.7202" x2="97.0204" y2="-14.2645" gradientUnits="userSpaceOnUse">
<stop stop-color="#1B9CE1"/>
<stop offset="1" stop-color="#0D15B8"/>
</linearGradient>
</defs>
</svg>
