<svg width="24" height="25" viewBox="0 0 24 25" fill="none" xmlns="http://www.w3.org/2000/svg">
<g id="Frame">
<path id="Vector" d="M9.89062 12.7532H14.1094V14.1594H9.89062V12.7532Z" fill="#7C7F86"/>
<path id="Vector_2" d="M19.4709 14.1595H15.5156V14.8626C15.5156 15.2512 15.201 15.5657 14.8125 15.5657H9.1875C8.79895 15.5657 8.48438 15.2512 8.48438 14.8626V14.1595H4.52911C3.62 14.1595 2.81598 13.58 2.52814 12.7175L0 5.13184V20.4876C0 21.6507 0.946289 22.597 2.10938 22.597H21.8906C23.0537 22.597 24 21.6507 24 20.4876V5.13239L21.4717 12.7175C21.184 13.58 20.38 14.1595 19.4709 14.1595Z" fill="#7C7F86"/>
<path id="Vector_3" d="M14.8127 1.50317H9.18768C8.0246 1.50317 7.07831 2.44946 7.07831 3.61255V4.31567H1.20996L3.86188 12.2725C3.95801 12.5602 4.22644 12.7532 4.5293 12.7532H8.48456V12.05C8.48456 11.6615 8.79913 11.3469 9.18768 11.3469H14.8127C15.2012 11.3469 15.5158 11.6615 15.5158 12.05V12.7532H19.4711C19.7739 12.7532 20.0424 12.5602 20.1385 12.2725L22.7906 4.31567H16.9221V3.61255C16.9221 2.44946 15.9758 1.50317 14.8127 1.50317ZM8.48456 4.31567V3.61255C8.48456 3.22455 8.79968 2.90942 9.18768 2.90942H14.8127C15.2007 2.90942 15.5158 3.22455 15.5158 3.61255V4.31567H8.48456Z" fill="#7C7F86"/>
</g>
</svg>
