<svg width="25" height="25" viewBox="0 0 25 25" fill="none" xmlns="http://www.w3.org/2000/svg">
<g id="Capa_1" clip-path="url(#clip0_405_8087)">
<path id="Vector" d="M23.1491 10.5006C22.4423 10.0242 21.5407 9.72833 20.6689 9.44221C19.8755 9.18186 19.0605 8.91439 18.4817 8.53138C18.8384 7.8253 19.552 6.46269 20.4 5.11128C22.5828 1.6325 23.6126 1.4563 23.7968 1.4563C24.1852 1.4563 24.5 1.14149 24.5 0.753174C24.5 0.364861 24.1852 0.0500488 23.7968 0.0500488C20.5035 0.0500488 18.8438 1.05491 17.2386 2.02667C15.7323 2.93867 14.3095 3.80005 11.4087 3.80005C10.0845 3.80005 8.99217 3.62727 7.97105 3.25635C7.06814 2.92836 6.34467 2.49036 5.57873 2.02667C5.29997 1.85792 5.01389 1.68524 4.7168 1.51663V15.3364C4.76133 15.3634 4.80539 15.3898 4.85044 15.4171C5.6408 15.8957 6.45811 16.3904 7.49091 16.7656C8.65458 17.1883 9.93609 17.3938 11.4087 17.3938C14.702 17.3938 16.3618 16.3889 17.967 15.4172C19.4733 14.5052 20.8961 13.6438 23.7968 13.6438C24.1852 13.6438 24.5 13.329 24.5 12.9407C24.5 11.9258 24.0455 11.1049 23.1491 10.5006Z" fill="#7C7F86"/>
<path id="Vector_2" d="M0.5 24.0501V1.45654C0.5 0.679871 1.12916 0.050293 1.90527 0.050293C2.68137 0.050293 3.31053 0.679871 3.31053 1.45654V24.0501H0.5Z" fill="#7C7F86"/>
</g>
<defs>
<clipPath id="clip0_405_8087">
<rect width="24" height="24" fill="white" transform="translate(0.5 0.0500488)"/>
</clipPath>
</defs>
</svg>
