<svg width="25" height="25" viewBox="0 0 25 25" fill="none" xmlns="http://www.w3.org/2000/svg">
<g id="Layer_1" clip-path="url(#clip0_405_8054)">
<g id="Group">
<path id="Vector" d="M13.8242 0.949841L13.6594 0.785122C12.9433 0.0691061 11.8107 0.181794 11.1777 0.947637L12.5015 2.27237L13.8242 0.949841Z" fill="#7C7F86"/>
<path id="Vector_2" d="M24.2939 16.0556L22.7643 14.5264C21.7194 15.5716 19.4629 17.8285 17.6893 19.6012C16.8451 20.4456 15.8681 21.1193 14.7822 21.6074L16.7634 23.5881C17.038 23.8626 17.4832 23.8626 17.7578 23.5879L24.294 17.0499C24.5686 16.7753 24.5685 16.3301 24.2939 16.0556Z" fill="#7C7F86"/>
<path id="Vector_3" d="M22.3494 12.9528C23.8258 11.3613 21.6255 9.15753 20.0345 10.6354L20.6122 10.0557C22.0886 8.4627 19.8886 6.26051 18.2932 7.73838L18.875 7.15863C20.3527 5.56428 18.1485 3.36335 16.5561 4.8409L17.1379 4.26157C18.6164 2.66637 16.409 0.466807 14.8189 1.94388L13.4955 3.26721L14.6541 4.42667C16.352 6.08009 15.4694 9.08248 13.1536 9.55456C12.9341 10.6624 11.9609 11.6484 10.839 11.8712C10.6195 12.9811 9.6446 13.9678 8.51988 14.1896C8.03796 16.5045 5.06257 17.3896 3.39297 15.6851C3.39297 15.6852 2.23516 14.5265 2.23516 14.5265L0.705957 16.0556C0.431316 16.3302 0.431363 16.7755 0.706004 17.0501L7.24591 23.5882C7.52055 23.8627 7.96577 23.8627 8.24032 23.588L10.7628 21.0645C12.9875 21.0645 15.1221 20.1804 16.6953 18.6067C19.084 16.2193 22.3494 12.9528 22.3494 12.9528Z" fill="#7C7F86"/>
<path id="Vector_4" d="M4.38748 14.691C5.98132 16.169 8.1836 13.9663 6.70643 12.3733C8.30037 13.8513 10.5026 11.6486 9.02538 10.0556C10.618 11.5341 12.8161 9.32805 11.3403 7.73828C12.932 9.21564 15.1372 7.01514 13.6592 5.42055L10.1848 1.94378C9.54162 1.30422 8.50503 1.30422 7.86593 1.94378C7.22674 2.58335 7.22674 3.62196 7.86593 4.26152L8.44357 4.84085C6.85324 3.36185 4.64506 5.57167 6.12874 7.15858L6.70638 7.73828C5.11324 6.25971 2.91012 8.46274 4.38748 10.0556L4.93371 10.6015C3.32477 9.18991 1.19046 11.3829 2.65024 12.9527C2.65029 12.9526 4.38748 14.691 4.38748 14.691Z" fill="#7C7F86"/>
</g>
</g>
<defs>
<clipPath id="clip0_405_8054">
<rect width="24" height="24" fill="white" transform="translate(0.5 0.0500488)"/>
</clipPath>
</defs>
</svg>
