<svg width="60" height="59" viewBox="0 0 60 59" fill="none" xmlns="http://www.w3.org/2000/svg">
<g id="Group">
<g id="Group_2">
<g id="Group_3">
<g id="Clip path group">
<mask id="mask0_674_4193" style="mask-type:luminance" maskUnits="userSpaceOnUse" x="4" y="0" width="53" height="59">
<g id="SVGID_00000127011107802790718690000006598062930292326331_">
<path id="Vector" d="M56.6552 0H4.2005V59H56.6552V0Z" fill="white"/>
</g>
</mask>
<g mask="url(#mask0_674_4193)">
<g id="Group_4">
<path id="Vector_2" d="M32.9249 3.52654C31.7985 2.88602 30.4291 2.88602 29.3026 3.52654L9.55681 15.056C8.45246 15.6965 7.76776 16.8892 7.76776 18.1702L7.65733 41.0303C7.65733 42.3335 8.34203 43.5262 9.46847 44.1667L29.0376 55.4753C30.164 56.1158 31.5334 56.1158 32.6599 55.4753L52.4278 43.9458C53.5321 43.3053 54.2168 42.1126 54.2168 40.8316L54.3272 17.9494C54.3272 16.6462 53.6425 15.4535 52.5161 14.813L32.9249 3.52654ZM33.8305 1.95836L53.3996 13.2669C55.0782 14.2388 56.1163 16.0278 56.1163 17.9936L56.0279 40.8536C56.0279 42.7752 54.9899 44.5422 53.3333 45.514L33.5654 57.0434C31.8868 58.0153 29.8106 58.0374 28.132 57.0655L8.5629 45.757C6.88428 44.763 5.84619 42.974 5.84619 41.0303L5.95663 18.1482C5.95663 16.2266 6.99472 14.4596 8.65125 13.4878L28.4191 1.95836C30.0757 0.986535 32.1519 0.986535 33.8305 1.95836ZM16.6026 32.836C16.8014 33.6312 17.1548 34.3601 17.6186 35.0227C18.0824 35.6632 18.7008 36.2154 19.3855 36.6129C20.1586 37.0547 21.0642 37.2755 21.9476 37.2535C23.2508 37.3197 24.5539 36.9001 25.5478 36.0387C26.4534 35.1773 27.0939 34.0508 27.359 32.836H29.4572C29.1259 34.5809 28.2866 36.1491 27.0056 37.386C25.5699 38.5345 23.7809 39.1088 21.9476 38.9983C20.7329 39.0204 19.5181 38.7775 18.4137 38.2695C17.464 37.8277 16.6247 37.143 15.9841 36.3037C15.3436 35.4423 14.8798 34.4484 14.5927 33.3882C14.2834 32.2397 14.1288 31.0691 14.1509 29.8985C14.1509 28.772 14.3055 27.6456 14.5927 26.5633C14.8798 25.5031 15.3436 24.5313 15.9841 23.6478C16.6247 22.7864 17.4419 22.0797 18.4137 21.5717C19.496 21.0195 20.7108 20.7544 21.9476 20.7765C24.311 20.6882 26.5638 21.8367 27.867 23.8024C28.5075 24.7522 28.9492 25.7903 29.1922 26.9167C29.4572 28.0873 29.5677 29.28 29.5235 30.4727H16.2713C16.2934 31.29 16.4038 32.063 16.6026 32.836ZM27.0277 26.4087C26.7847 25.7019 26.4092 25.0393 25.9454 24.4651C25.4816 23.8908 24.9073 23.427 24.2447 23.0957C23.5379 22.7423 22.7649 22.5656 21.9697 22.5877C21.1746 22.5656 20.3795 22.7423 19.6727 23.0957C19.0101 23.427 18.4358 23.8908 17.972 24.4651C17.4861 25.0614 17.1106 25.724 16.8455 26.4308C16.5805 27.1597 16.3817 27.9327 16.2934 28.7279H27.4473C27.4252 27.9327 27.2927 27.1597 27.0277 26.4087ZM30.915 21.3066H33.5433L38.4467 27.8444L43.2616 21.3066H45.89L39.6835 29.5672L46.398 38.5566H43.7255L38.3141 31.312L33.0133 38.5566H30.407L37.0773 29.6113L30.915 21.3066Z" fill="#9A9FA6"/>
</g>
</g>
</g>
</g>
</g>
</g>
</svg>
