<svg width="60" height="24" viewBox="0 0 60 24" fill="none" xmlns="http://www.w3.org/2000/svg">
<g id="go-white 1" clip-path="url(#clip0_674_4236)">
<g id="Group">
<path id="Vector" fill-rule="evenodd" clip-rule="evenodd" d="M4.82904 7.70303C4.71503 7.70303 4.68652 7.64602 4.74353 7.56052L5.34208 6.79095C5.39908 6.70544 5.5416 6.64844 5.65561 6.64844H15.831C15.945 6.64844 15.9735 6.73394 15.9165 6.81945L15.4319 7.56052C15.3749 7.64602 15.2324 7.73153 15.1469 7.73153L4.82904 7.70303Z" fill="#9A9FA6"/>
<path id="Vector_2" fill-rule="evenodd" clip-rule="evenodd" d="M0.525081 10.3261C0.411072 10.3261 0.382569 10.2691 0.439574 10.1836L1.03812 9.414C1.09513 9.32849 1.23764 9.27148 1.35165 9.27148H14.3488C14.4628 9.27148 14.5198 9.35699 14.4913 9.4425L14.2632 10.1266C14.2347 10.2406 14.1207 10.2976 14.0067 10.2976L0.525081 10.3261Z" fill="#9A9FA6"/>
<path id="Vector_3" fill-rule="evenodd" clip-rule="evenodd" d="M7.42279 12.9481C7.30878 12.9481 7.28027 12.8626 7.33728 12.7771L7.73631 12.0646C7.79332 11.9791 7.90733 11.8936 8.02134 11.8936H13.7218C13.8358 11.8936 13.8928 11.9791 13.8928 12.0931L13.8358 12.7771C13.8358 12.8911 13.7218 12.9766 13.6363 12.9766L7.42279 12.9481Z" fill="#9A9FA6"/>
<g id="Group_2">
<path id="Vector_4" fill-rule="evenodd" clip-rule="evenodd" d="M37.0083 7.19035C35.2127 7.64639 33.9871 7.98842 32.2199 8.44446C31.7924 8.55847 31.7639 8.58697 31.3933 8.15944C30.9658 7.6749 30.6523 7.36137 30.0537 7.07635C28.2581 6.19277 26.5194 6.44929 24.8948 7.50388C22.9566 8.75799 21.959 10.6106 21.9875 12.9193C22.016 15.1995 23.5837 17.0807 25.8354 17.3942C27.7735 17.6507 29.3982 16.9667 30.6808 15.5131C30.9373 15.1995 31.1653 14.8575 31.4503 14.4585C30.4243 14.4585 29.1416 14.4585 25.9494 14.4585C25.3508 14.4585 25.2083 14.0879 25.4078 13.6034C25.7784 12.7198 26.4624 11.2377 26.8615 10.4966C26.947 10.3256 27.1465 10.0406 27.574 10.0406H37.9489C37.8919 10.8102 37.8919 11.5797 37.7779 12.3493C37.4643 14.4015 36.6948 16.2826 35.4407 17.9358C33.3885 20.6435 30.7093 22.3251 27.3175 22.7812C24.5243 23.1517 21.9305 22.6102 19.6503 20.9C17.5412 19.3039 16.3441 17.1947 16.0305 14.5725C15.66 11.4657 16.5721 8.67248 18.4532 6.22127C20.4769 3.57055 23.1561 1.88891 26.4339 1.29036C29.1131 0.805815 31.6784 1.11934 33.9871 2.68697C35.4977 3.68456 36.5808 5.05267 37.2933 6.70581C37.4643 6.96234 37.3503 7.10485 37.0083 7.19035Z" fill="#9A9FA6"/>
<path id="Vector_5" d="M46.4426 22.9519C43.8489 22.8949 41.4832 22.1539 39.488 20.4437C37.8064 18.9901 36.7518 17.1374 36.4098 14.9428C35.8967 11.722 36.7803 8.87174 38.7185 6.33503C40.7992 3.59879 43.3074 2.17367 46.6992 1.57512C49.6064 1.06208 52.3426 1.3471 54.8223 3.02875C57.074 4.56788 58.4706 6.64855 58.8412 9.38479C59.3257 13.2326 58.2141 16.3679 55.5634 19.0471C53.6822 20.9568 51.3735 22.1539 48.7228 22.6954C47.9533 22.8379 47.1837 22.8664 46.4426 22.9519ZM53.2262 11.437C53.1977 11.0664 53.1977 10.7814 53.1407 10.4964C52.6277 7.67464 50.0339 6.07851 47.3262 6.70556C44.6755 7.30411 42.9653 8.98575 42.3383 11.665C41.8252 13.8882 42.9083 16.1399 44.9605 17.0519C46.5281 17.736 48.0958 17.6505 49.6064 16.8809C51.8581 15.7123 53.0837 13.8882 53.2262 11.437Z" fill="#9A9FA6"/>
</g>
</g>
</g>
<defs>
<clipPath id="clip0_674_4236">
<rect width="59" height="22.2319" fill="white" transform="translate(0.211609 0.833984)"/>
</clipPath>
</defs>
</svg>
