<svg width="120" height="120" viewBox="0 0 120 120" fill="none" xmlns="http://www.w3.org/2000/svg">
<g id="Microservice" clip-path="url(#clip0_674_3980)">
<path id="Vector" fill-rule="evenodd" clip-rule="evenodd" d="M77.171 41.2616L80.7977 44.8023C81.7519 45.7357 81.7705 47.2774 80.8395 48.234L77.986 51.1525C78.8125 52.6477 79.4324 54.2498 79.8341 55.9099L83.5746 55.8634C84.9073 55.8472 86.0125 56.9268 86.0287 58.2596L86.0868 63.3281C86.103 64.6631 85.0257 65.7683 83.6907 65.7822L79.6112 65.831C79.1353 67.4702 78.4434 69.0397 77.5518 70.4955L80.2288 73.1099C81.1831 74.0433 81.2017 75.5873 80.2706 76.5392L76.7299 80.1682C75.7965 81.1225 74.2525 81.141 73.2982 80.2077L70.3774 77.3565C68.8821 78.1807 67.2824 78.803 65.6223 79.2047L65.6664 82.9428C65.6827 84.2778 64.603 85.383 63.2703 85.3993L58.2018 85.4573C56.869 85.4736 55.7639 84.3962 55.7476 83.0612L55.6989 78.9818C54.0597 78.5035 52.4924 77.8092 51.0343 76.92L48.42 79.5994C47.4866 80.5536 45.9426 80.5722 44.9883 79.6388L41.364 76.0981C40.4074 75.1647 40.3888 73.623 41.3222 72.6664L44.1734 69.7479C43.3514 68.2527 42.7245 66.6506 42.3252 64.9928L38.5848 65.0369C37.252 65.0532 36.1468 63.9735 36.1306 62.6408L36.0725 57.5723C36.0563 56.2396 37.1336 55.1344 38.4687 55.1181L42.5481 55.0694C43.0264 53.4302 43.7183 51.8606 44.6075 50.4025L41.9305 47.7882C40.9762 46.8548 40.96 45.3131 41.891 44.3589L45.4318 40.7322C46.3628 39.7779 47.9068 39.7593 48.8611 40.6927L51.7819 43.5439C53.2772 42.7197 54.8769 42.0974 56.537 41.6957L56.4929 37.9576C56.4767 36.6249 57.5563 35.5197 58.8913 35.5035L63.9575 35.4431C65.2926 35.4268 66.3955 36.5042 66.4117 37.8392L66.4605 41.9186C68.102 42.3946 69.6715 43.0888 71.1296 43.9781L73.7417 41.301C74.675 40.3468 76.219 40.3305 77.1733 41.2616H77.171ZM58.225 27.7997V22.146C56.3838 21.6585 54.7028 20.6926 53.3561 19.3436C51.4058 17.384 50.1985 14.6884 50.1985 11.7234C50.1985 8.75846 51.4035 6.0698 53.3561 4.11715L53.3654 4.10786C55.3181 2.15754 58.0091 0.950195 60.9717 0.950195C63.9343 0.950195 66.6276 2.15754 68.5803 4.10786L68.5896 4.11715C70.5399 6.0698 71.7472 8.7631 71.7472 11.7234C71.7472 14.6837 70.5399 17.384 68.5849 19.3367C67.1617 20.7692 65.3646 21.7722 63.3957 22.2273V27.7184C61.8656 27.7254 60.3285 27.7579 58.7985 27.7764C58.6058 27.7788 58.4154 27.7857 58.225 27.7997ZM63.5373 98.7102C65.476 99.1839 67.2104 100.189 68.5803 101.557L68.5896 101.568C70.5399 103.521 71.7472 106.212 71.7472 109.175C71.7472 112.137 70.5399 114.828 68.5896 116.781L68.5803 116.793C66.6276 118.743 63.9343 119.95 60.9717 119.95C58.0091 119.95 55.3181 118.743 53.3654 116.793L53.3561 116.781C51.4035 114.828 50.1985 112.137 50.1985 109.175C50.1985 106.212 51.4035 103.521 53.3561 101.568L53.3654 101.557C54.726 100.199 56.4465 99.2001 58.3666 98.7195V93.1843C60.029 93.182 61.6984 93.1425 63.3585 93.1239L63.5373 93.1193V98.7102ZM64.935 105.202C63.9297 104.197 62.5273 103.572 60.9717 103.572C59.4161 103.572 58.016 104.197 57.0107 105.202L56.9991 105.211C55.9937 106.219 55.3692 107.619 55.3692 109.175C55.3692 110.73 55.9937 112.13 56.9991 113.138L57.0107 113.147C58.016 114.153 59.4184 114.777 60.9717 114.777C62.525 114.777 63.9297 114.153 64.935 113.147L64.9443 113.138C65.952 112.13 66.5766 110.73 66.5766 109.175C66.5766 107.619 65.952 106.219 64.9443 105.211L64.935 105.202ZM64.935 7.75311C63.9297 6.74545 62.5273 6.12088 60.9717 6.12088C59.4161 6.12088 58.016 6.74545 57.0107 7.75311L56.9991 7.7624C55.9937 8.76775 55.3692 10.1701 55.3692 11.7234C55.3692 13.2767 55.9937 14.6814 56.9991 15.6891C58.023 16.7014 59.4254 17.3283 60.9717 17.3283C62.518 17.3283 63.9227 16.7014 64.935 15.6891C65.952 14.6814 66.5766 13.279 66.5766 11.7234C66.5766 10.1678 65.952 8.76775 64.9443 7.7624L64.935 7.75311ZM103.359 74.0084C106.321 74.0084 109.015 75.2158 110.967 77.1661L110.977 77.1754C112.927 79.128 114.134 81.8213 114.134 84.784C114.134 87.7466 112.927 90.4376 110.977 92.3902L110.967 92.4019C109.015 94.3522 106.321 95.5572 103.359 95.5572C100.396 95.5572 97.7005 94.3499 95.7478 92.3949C93.7929 90.4515 92.5832 87.7559 92.5832 84.784C92.5832 83.6974 92.7457 82.6479 93.0452 81.6588L87.9326 78.7055C88.4481 77.4378 88.6988 76.0818 88.6826 74.7282C88.6779 74.1849 88.6268 73.6439 88.5363 73.1099L95.6759 77.2311L95.7409 77.1661C97.6889 75.2181 100.387 74.0084 103.359 74.0084ZM107.322 80.8113C106.317 79.8037 104.914 79.1791 103.359 79.1791C101.803 79.1791 100.408 79.8083 99.3954 80.8206C98.3436 81.8701 97.7539 83.298 97.7562 84.784C97.7562 86.3326 98.3831 87.7327 99.3954 88.745C100.403 89.7619 101.805 90.3865 103.359 90.3865C104.912 90.3865 106.317 89.7619 107.322 88.7566L107.331 88.745C108.339 87.7396 108.964 86.3396 108.964 84.784C108.964 83.2284 108.339 81.826 107.331 80.8206L107.322 80.8113ZM18.8029 74.0084C21.7144 74.0084 24.3613 75.1693 26.3 77.0477L32.9752 73.1912C32.9265 73.6207 32.9056 74.0502 32.9102 74.4821C32.9242 75.91 33.2399 77.3309 33.8459 78.6451L29.0421 81.4197C29.3904 82.4784 29.5784 83.6091 29.5784 84.784C29.5784 87.7559 28.3688 90.4515 26.4208 92.4019C24.4612 94.3499 21.7655 95.5572 18.8029 95.5572C15.8403 95.5572 13.1469 94.3522 11.1943 92.4019L11.185 92.3902C9.23469 90.4376 8.02734 87.7466 8.02734 84.784C8.02734 81.8213 9.23469 79.1257 11.1897 77.1707C13.133 75.2181 15.8286 74.0084 18.8029 74.0084ZM22.7662 80.8206C21.7168 79.7689 20.2888 79.1768 18.8029 79.1791C17.2542 79.1791 15.8519 79.8083 14.8395 80.8206C13.8226 81.826 13.198 83.2284 13.198 84.784C13.198 86.3396 13.8226 87.7396 14.8303 88.745L14.8395 88.7566C15.8449 89.7619 17.2473 90.3865 18.8029 90.3865C20.3585 90.3865 21.7586 89.7619 22.7662 88.7566C23.7785 87.7327 24.4054 86.3326 24.4054 84.784C24.4054 83.2353 23.7785 81.8329 22.7662 80.8206ZM103.359 25.2828C106.333 25.2828 109.029 26.4902 110.979 28.4405C112.927 30.3885 114.134 33.0841 114.134 36.0584C114.134 39.0326 112.927 41.7143 110.977 43.667L110.967 43.6762C109.015 45.6266 106.321 46.8339 103.359 46.8339C100.396 46.8339 97.6889 45.6242 95.7409 43.6762L95.6039 43.5346L89.2305 47.2193C89.2491 46.9523 89.256 46.6853 89.2514 46.4206C89.2351 44.8464 88.8544 43.2955 88.1393 41.8931L93.0151 39.0744C92.7364 38.1178 92.5832 37.1055 92.5832 36.0584C92.5832 33.0957 93.7906 30.4047 95.7409 28.4521L95.7525 28.4405C97.7051 26.4902 100.396 25.2828 103.359 25.2828ZM107.324 32.095C106.273 31.0432 104.847 30.4535 103.359 30.4558C101.803 30.4558 100.403 31.0804 99.3954 32.0857L99.3861 32.095C98.3808 33.1027 97.7562 34.5027 97.7562 36.0584C97.7562 37.614 98.3831 39.0094 99.3954 40.0217C100.445 41.0735 101.873 41.6655 103.359 41.6632C104.914 41.6632 106.317 41.0387 107.322 40.031L107.331 40.0217C108.339 39.0164 108.964 37.614 108.964 36.0584C108.964 34.5027 108.334 33.105 107.324 32.095ZM18.8029 25.2828C21.7655 25.2828 24.4565 26.4902 26.4092 28.4405L26.4208 28.4521C28.3711 30.4047 29.5784 33.0957 29.5784 36.0584C29.5784 36.9314 29.4716 37.7812 29.2766 38.5938L34.4357 41.7213C33.6393 43.4278 33.3282 45.3247 33.5418 47.1961L26.8967 43.1678C26.7435 43.3419 26.5833 43.5137 26.4208 43.6762C24.4728 45.6242 21.7748 46.8339 18.8029 46.8339C15.831 46.8339 13.133 45.6242 11.185 43.6762C9.23469 41.7166 8.02734 39.0233 8.02734 36.0584C8.02734 33.0934 9.23469 30.4047 11.185 28.4521L11.1943 28.4405C13.1469 26.4902 15.8403 25.2828 18.8029 25.2828ZM22.7662 32.0857C21.7586 31.0804 20.3585 30.4558 18.8029 30.4558C17.2473 30.4558 15.8449 31.0804 14.8395 32.0857L14.8303 32.095C13.8226 33.1027 13.198 34.5027 13.198 36.0584C13.198 37.614 13.8226 39.0164 14.8303 40.0217C15.8519 41.034 17.2542 41.6632 18.8029 41.6632C20.3515 41.6632 21.7539 41.034 22.7662 40.0217C23.818 38.9699 24.4077 37.5443 24.4054 36.0584C24.4054 34.5027 23.7809 33.1027 22.7755 32.095L22.7662 32.0857ZM60.9601 50.4861C66.4628 50.4211 70.9787 54.8302 71.0437 60.3306C71.1111 65.8333 66.6996 70.3493 61.1969 70.4143C55.6965 70.4816 51.1806 66.0701 51.1156 60.5698C51.0506 55.0671 55.4597 50.5511 60.9601 50.4861Z" fill="#3487B4"/>
</g>
<defs>
<clipPath id="clip0_674_3980">
<rect width="119" height="119" fill="white" transform="translate(0.589844 0.950195)"/>
</clipPath>
</defs>
</svg>
