<svg width="60" height="60" viewBox="0 0 60 60" fill="none" xmlns="http://www.w3.org/2000/svg">
<g id="Nest js">
<path id="Vector" d="M35.1073 2.1748C34.6994 2.1748 34.3206 2.26174 33.9693 2.37977C34.7136 2.87451 35.1235 3.53392 35.3263 4.27886C35.3426 4.37992 35.3709 4.45343 35.385 4.5545C35.4027 4.64143 35.4126 4.72978 35.4154 4.81812C35.4719 6.10232 35.0783 6.26488 34.8026 7.02324C34.3786 8.0007 34.4966 9.05167 35.0055 9.89767C35.0521 10.0108 35.1108 10.1196 35.18 10.2207C34.6266 6.52638 37.7082 5.97298 38.2757 4.81883C38.3202 3.81027 37.4891 3.13884 36.8318 2.67237C36.3158 2.34726 35.7179 2.17551 35.1073 2.17692V2.1748ZM39.7507 3.00667C39.6942 3.3438 39.7366 3.25616 39.7225 3.43073C39.7083 3.54876 39.7083 3.69436 39.6942 3.81027C39.6638 3.9283 39.6355 4.04562 39.5903 4.16153C39.562 4.27956 39.5196 4.39689 39.4723 4.5128L39.3146 4.8471C39.2673 4.90576 39.2419 4.96513 39.1966 5.02379L39.1097 5.15313C39.0404 5.25278 38.9669 5.35032 38.8906 5.44503C38.8037 5.53479 38.7302 5.63585 38.627 5.70865V5.72279C38.54 5.79558 38.4524 5.88322 38.3492 5.95814C38.0432 6.19137 37.694 6.36595 37.3717 6.58504C37.2707 6.65572 37.1668 6.71721 37.0798 6.80414C36.9809 6.87411 36.8876 6.95186 36.8021 7.03738C36.701 7.12431 36.6275 7.21195 36.5406 7.31514C36.4678 7.40207 36.3801 7.50384 36.3215 7.60703C36.248 7.70598 36.1794 7.80776 36.1165 7.91306C36.0579 8.03109 36.0154 8.13216 35.9561 8.24737C35.9116 8.3654 35.8691 8.46646 35.838 8.5845C35.7992 8.70465 35.766 8.82692 35.737 8.94989C35.7228 9.00856 35.7228 9.08206 35.7087 9.1386C35.6925 9.19726 35.6925 9.25663 35.6783 9.31529C35.6783 9.43332 35.6642 9.56266 35.6642 9.68069C35.6642 9.76763 35.6642 9.85527 35.6783 9.9422C35.6783 10.0602 35.6925 10.1776 35.7228 10.3076C35.737 10.4256 35.7653 10.543 35.7935 10.661C35.8409 10.7762 35.8691 10.8921 35.9116 11.0094C35.9419 11.0801 35.9843 11.1557 36.0154 11.2144L32.6562 9.91393C32.0886 9.75349 31.5324 9.6079 30.962 9.47573L30.0432 9.25663C29.1669 9.08206 28.2763 8.9506 27.3858 8.86296C27.3554 8.86296 27.3413 8.84883 27.313 8.84883C25.8083 8.69828 24.293 8.67849 22.7847 8.79016C21.8942 8.84883 21.0037 8.96474 20.1131 9.11033C19.4516 9.22412 18.7936 9.36123 18.1413 9.52026L17.484 9.69483C17.267 9.78176 17.0599 9.88354 16.8571 9.97259L16.3743 10.1917C16.3461 10.2058 16.3178 10.2058 16.3037 10.22C16.1552 10.2928 16.0259 10.3521 15.8937 10.4249C15.7043 10.5083 15.5184 10.6016 15.3375 10.7027C15.2364 10.7451 15.1347 10.8038 15.0456 10.849C15.0039 10.8751 14.9608 10.8985 14.9163 10.9197C14.7841 10.9953 14.6526 11.0681 14.5346 11.1409C14.4145 11.2073 14.2978 11.2808 14.1862 11.36C14.0823 11.4307 13.9812 11.4893 13.8943 11.5628C13.8801 11.5791 13.8639 11.5791 13.8498 11.5932C13.7628 11.6519 13.661 11.7254 13.572 11.7982L13.5437 11.8264L13.3246 12.001C13.2964 12.0173 13.266 12.0455 13.2377 12.0597C13.1649 12.1183 13.0914 12.1918 13.0186 12.2484C13.0045 12.2788 12.9741 12.2957 12.9599 12.307C12.873 12.3968 12.7854 12.4696 12.6984 12.5565C12.6822 12.5565 12.6822 12.5707 12.668 12.5848C12.5776 12.664 12.4899 12.7474 12.4065 12.8343C12.3903 12.8484 12.3903 12.8626 12.3761 12.8626C12.2998 12.9375 12.2263 13.0159 12.157 13.0979C12.1288 13.1262 12.0864 13.1545 12.056 13.1827C11.9775 13.2753 11.8941 13.3637 11.8065 13.4464C11.7923 13.4746 11.7641 13.4909 11.7499 13.517C11.6319 13.6351 11.5308 13.7524 11.4128 13.8704L11.3704 13.9128C11.1351 14.1623 10.8877 14.4097 10.6234 14.6288C10.3618 14.8641 10.0841 15.0811 9.80562 15.2719C9.24727 15.6706 8.6451 16.0035 8.01042 16.2635C7.70439 16.3957 7.3814 16.513 7.06123 16.6148C6.44846 16.747 5.81944 16.9943 5.28017 17.0389C5.16214 17.0389 5.03281 17.0671 4.91478 17.0813L4.54938 17.1682L4.19811 17.3004C4.08008 17.3449 3.96488 17.4043 3.84967 17.4608C3.74578 17.5336 3.63058 17.593 3.52668 17.6658C3.42279 17.7407 3.32525 17.8248 3.23478 17.9153C3.13372 17.9859 3.02982 18.0898 2.94289 18.1768C2.85596 18.2778 2.76832 18.3655 2.69552 18.4687C2.62272 18.5867 2.53508 18.6878 2.47642 18.8058C2.39938 18.9118 2.33083 19.0235 2.27146 19.1401C2.2128 19.2723 2.15343 19.3896 2.11102 19.5196C2.0665 19.6377 2.02409 19.7691 1.97886 19.8992C1.95059 20.0172 1.92019 20.1345 1.90818 20.2525C1.90818 20.2646 1.89192 20.2808 1.89192 20.295C1.86365 20.4271 1.86365 20.601 1.8474 20.6886C1.83326 20.7925 1.81913 20.8773 1.81913 20.9805C1.8163 21.2342 1.87637 21.4852 1.9937 21.7106V21.7247C2.03822 21.8117 2.09759 21.9014 2.15626 21.9884C2.2128 22.0753 2.27429 22.1629 2.34496 22.2499C2.41776 22.3227 2.5054 22.4124 2.59445 22.4852C2.67926 22.5708 2.77185 22.6485 2.87009 22.7185C3.22136 23.0245 3.30829 23.1263 3.76062 23.3595C3.83342 23.404 3.90692 23.4323 3.99598 23.4775C4.01011 23.4775 4.02425 23.4917 4.03838 23.4917C4.03838 23.5221 4.03838 23.5362 4.05252 23.5645C4.08644 23.8055 4.15005 24.0408 4.24122 24.2663C4.28858 24.3532 4.31685 24.4409 4.35925 24.5278C4.37551 24.5582 4.38965 24.5865 4.40661 24.6006C4.46315 24.7186 4.52181 24.8197 4.57835 24.9236L4.79745 25.2296C4.87025 25.3166 4.96001 25.4183 5.04694 25.5074C5.13387 25.5943 5.22151 25.6678 5.3247 25.7547C5.3247 25.7547 5.33884 25.7689 5.35297 25.7689C5.4399 25.8417 5.52754 25.9152 5.6166 25.9738C5.71837 26.0452 5.82509 26.1081 5.93676 26.1626C6.03783 26.2212 6.15586 26.2806 6.27107 26.3251C6.36507 26.3675 6.46331 26.4014 6.56296 26.4262C6.57922 26.4403 6.59335 26.4403 6.62162 26.4544C6.68028 26.4707 6.75379 26.4848 6.81033 26.499C6.76792 27.2884 6.75379 28.0305 6.87182 28.2942C7.00116 28.5861 7.64432 27.6955 8.28536 26.6735C8.20055 27.6821 8.14188 28.8645 8.28536 29.2158C8.44791 29.5812 9.32219 28.4405 10.0827 27.1852C20.4368 24.7914 29.8842 31.9439 30.8758 42.0507C30.6871 40.4725 28.7435 39.5982 27.853 39.8173C27.4148 40.8966 26.6705 42.284 25.4733 43.1462C25.5743 42.1801 25.5319 41.1906 25.327 40.2251C24.9997 41.5694 24.3813 42.826 23.5155 43.9053C22.1303 44.0064 20.7429 43.3349 20.0121 42.3271C19.9534 42.2847 19.9393 42.1977 19.894 42.1384C19.8516 42.0373 19.8071 41.9334 19.776 41.8323C19.7336 41.7348 19.7046 41.6316 19.6891 41.5263C19.6749 41.4224 19.6749 41.3213 19.6749 41.2033V40.9842C19.6926 40.8803 19.7166 40.7785 19.7477 40.6782C19.7781 40.5771 19.8064 40.4753 19.8516 40.3721C19.9082 40.2711 19.9527 40.1672 20.0262 40.0661C20.2736 39.3643 20.2736 38.7939 19.8212 38.4596C19.7336 38.4024 19.6403 38.3536 19.5435 38.3133C19.4869 38.2992 19.4141 38.2709 19.3548 38.2547L19.2367 38.2123C19.1371 38.1798 19.0346 38.1557 18.9307 38.1395C18.8311 38.1105 18.7279 38.0949 18.6247 38.0949C18.5187 38.078 18.4119 38.0688 18.3045 38.0667C18.2317 38.0667 18.1582 38.0808 18.0854 38.0808C17.9766 38.0808 17.8677 38.0949 17.7624 38.1253C17.6614 38.1395 17.5596 38.1536 17.4564 38.1819C17.3525 38.2101 17.25 38.2448 17.1504 38.2858C17.0493 38.3282 16.9617 38.3727 16.8585 38.4179C16.7715 38.4603 16.6839 38.519 16.5807 38.5642C13.179 40.7835 15.2096 45.9804 17.5299 47.4858C16.6535 47.6462 15.763 47.8342 15.5156 48.025L15.4852 48.0533C16.1142 48.4328 16.7715 48.7551 17.4571 49.0336C18.3922 49.3396 19.3845 49.6153 19.8227 49.7333V49.7474C21.0326 49.9962 22.2695 50.0846 23.5028 50.0111C29.9719 49.5587 35.2726 44.6375 36.2367 38.1536L36.3236 38.5331C36.3681 38.7968 36.4247 39.0752 36.4558 39.3509V39.365C36.484 39.4972 36.4982 39.6286 36.5144 39.7467V39.8032C36.5286 39.9354 36.5427 40.0668 36.5427 40.1849C36.5568 40.3453 36.571 40.505 36.571 40.6655V40.9008C36.571 40.9715 36.5872 41.0584 36.5872 41.1319C36.5872 41.2217 36.571 41.3086 36.571 41.3955V41.6005C36.571 41.7016 36.5568 41.7892 36.5568 41.8924C36.5568 41.9511 36.5568 42.0104 36.5427 42.0811C36.5427 42.185 36.5286 42.2861 36.5286 42.4041C36.5144 42.4465 36.5144 42.491 36.5144 42.5335L36.4671 42.8706C36.4671 42.9151 36.4671 42.9575 36.4551 43.0027C36.4388 43.149 36.4105 43.2805 36.3964 43.4268V43.4551L36.3095 43.865V43.9074L36.2225 44.3011C36.2225 44.3173 36.2063 44.3484 36.2063 44.3597C36.1794 44.4933 36.1455 44.6255 36.1052 44.7555V44.7979C36.0607 44.9442 36.0183 45.0757 35.9872 45.2079C35.973 45.222 35.973 45.2361 35.973 45.2361L35.8409 45.6743C35.7843 45.8206 35.7398 45.9521 35.6804 46.0984C35.6211 46.2447 35.5794 46.3903 35.52 46.5224C35.4613 46.6688 35.402 46.7981 35.3454 46.9465H35.3292C35.2726 47.0759 35.2111 47.2222 35.1405 47.3543C35.1285 47.389 35.1129 47.4229 35.0959 47.4554C35.0818 47.4695 35.0818 47.4858 35.0677 47.4999C34.1022 49.4329 32.6965 51.1129 30.9635 52.4049C30.8454 52.4777 30.7302 52.5674 30.6122 52.6544C30.5839 52.6827 30.5415 52.6968 30.5111 52.7251C30.4065 52.8021 30.2998 52.8763 30.191 52.9463L30.2334 53.0332H30.2496L30.8624 52.9463H30.8765C31.2561 52.8876 31.6349 52.8141 32.0144 52.7413C32.1183 52.7272 32.2335 52.6968 32.3374 52.6685L32.5424 52.624C32.6434 52.6099 32.7452 52.5816 32.8484 52.5675C32.9353 52.5371 33.023 52.5201 33.1099 52.4947C34.5708 52.1413 35.9865 51.6607 37.3456 51.0931C34.9984 54.2898 31.8773 56.837 28.2756 58.4951C29.9577 58.3771 31.6349 58.1015 33.2562 57.6329C39.1231 55.9083 44.0776 51.949 47.0545 46.6073C46.453 49.9884 45.1123 53.1951 43.127 55.9981C44.5419 55.0645 45.8501 53.9775 47.0262 52.7562C50.295 49.3439 52.4401 45.0128 53.1751 40.3453C53.6698 42.6543 53.8161 45.0333 53.5992 47.3826C64.1392 32.6797 54.4734 17.4347 50.4279 13.4202C50.4137 13.3898 50.3996 13.3757 50.3996 13.3474C50.3902 13.3568 50.3855 13.3663 50.3855 13.3757C50.3855 13.3663 50.3801 13.3568 50.3692 13.3474C50.3692 13.522 50.3551 13.6958 50.341 13.8725C50.3007 14.1998 50.2519 14.5256 50.1947 14.85C50.124 15.1702 50.0342 15.4932 49.9473 15.8162C49.8434 16.1222 49.7282 16.4431 49.5939 16.7491C49.4603 17.0516 49.3147 17.3484 49.1578 17.6396C48.832 18.2121 48.456 18.7542 48.0341 19.2602C47.815 19.5217 47.5817 19.755 47.3464 19.9903C47.2086 20.1161 47.0672 20.2377 46.9223 20.3557L46.588 20.6476C46.3272 20.8533 46.0544 21.0427 45.7703 21.2152C45.4911 21.3947 45.2034 21.5608 44.908 21.712C44.602 21.8583 44.2953 21.9898 43.9892 22.122C43.3651 22.3594 42.7199 22.5354 42.0619 22.6471C41.7247 22.7057 41.3904 22.734 41.0674 22.7651C40.8342 22.7814 40.601 22.7913 40.3677 22.7934C40.0356 22.7891 39.7041 22.7694 39.3733 22.7347C39.0397 22.7086 38.7082 22.6598 38.3817 22.5884C38.0502 22.5283 37.7237 22.4457 37.4042 22.341H37.388C37.711 22.3107 38.0312 22.2824 38.3541 22.223C39.0114 22.1092 39.6567 21.9332 40.2815 21.6979C40.6017 21.5799 40.9084 21.4343 41.2003 21.288C41.5063 21.1417 41.7848 20.9819 42.0767 20.8074C42.3545 20.6187 42.6301 20.4278 42.8944 20.2229C43.1581 20.0179 43.4054 19.7988 43.6387 19.5656C43.886 19.3465 44.1051 19.0991 44.3242 18.8496C44.5433 18.5881 44.7483 18.3245 44.937 18.063C44.9674 18.0185 44.9985 17.9591 45.0268 17.9167C45.1731 17.6813 45.3187 17.4481 45.4508 17.2149C45.7724 16.6339 46.036 16.0218 46.2375 15.3893C46.3414 15.0832 46.4141 14.7624 46.4869 14.4401C46.5456 14.1058 46.605 13.7849 46.6332 13.4626C46.6615 13.1283 46.6919 12.7912 46.6919 12.471C46.6919 12.2357 46.6757 12.0024 46.6615 11.7692C46.6325 11.442 46.593 11.1161 46.5435 10.7917C46.4869 10.4624 46.4141 10.1366 46.3265 9.81427C46.2226 9.50824 46.1215 9.18525 46.0035 8.87922C45.8855 8.57319 45.742 8.26645 45.5957 7.97455C45.4331 7.68266 45.2727 7.39005 45.0989 7.11229C44.9123 6.83948 44.7172 6.57232 44.5144 6.31152C44.2952 6.06204 44.0762 5.81184 43.8429 5.56447C43.7199 5.43937 43.5934 5.3171 43.4634 5.19907C42.804 4.68808 42.1205 4.20747 41.4328 3.76928C41.3381 3.71485 41.2406 3.66609 41.1409 3.62297C40.7077 3.35794 40.2412 3.15156 39.7536 3.01021V3.00809L39.7507 3.00667Z" fill="#9A9FA6"/>
</g>
</svg>
