<svg width="90" height="91" viewBox="0 0 90 91" fill="none" xmlns="http://www.w3.org/2000/svg">
<g id="node-js">
<path id="Vector" d="M44.9835 8.9375C43.957 8.9375 42.9306 9.18931 42.0447 9.69556L14.1724 25.785C12.3724 26.8257 11.25 28.7959 11.25 30.8772V60.0679C11.25 62.1772 12.3724 64.1194 14.1724 65.16L21.4893 69.3788C25.033 71.1225 26.2967 71.1201 27.8998 71.1201C33.1592 71.1201 36.167 67.9424 36.167 62.4299V32.3109C36.167 31.8609 35.804 31.4924 35.354 31.4924H31.8384C31.3603 31.4924 31.0199 31.8609 31.0199 32.3109V62.4025C31.0199 64.8775 28.4636 67.2956 24.3292 65.2424L16.6772 60.8259C16.396 60.6853 16.2268 60.3772 16.2268 60.0679V30.9047C16.2268 30.5672 16.396 30.2824 16.6772 30.1136L44.5496 14.0297C44.8027 13.8609 45.1417 13.8609 45.423 14.0297L73.2953 30.1136C73.5765 30.2824 73.7457 30.5678 73.7457 30.8772V60.0679C73.7457 60.3772 73.5759 60.6853 73.3228 60.8259L45.423 76.9429C45.1698 77.0835 44.8027 77.0835 44.5496 76.9429L37.3755 72.6967C37.1786 72.556 36.9022 72.5292 36.7053 72.6417C34.7084 73.7667 34.3428 73.9065 32.4866 74.5533C32.0366 74.694 31.333 74.9743 32.7393 75.7618L42.0447 81.277C42.9447 81.7832 43.96 82.0625 44.9725 82.0625C46.0132 82.0625 47.0224 81.7832 47.9224 81.277L75.8276 65.16C77.6276 64.1194 78.75 62.1772 78.75 60.0679V30.9047C78.75 28.7953 77.6276 26.8531 75.8276 25.8125L47.9224 9.69556C47.0364 9.18931 46.0101 8.9375 44.9835 8.9375ZM52.4817 31.454C44.5223 31.454 39.7705 34.8268 39.7705 40.4518C39.7705 46.5549 44.4911 48.2398 52.1411 48.9991C61.2817 49.8991 61.9849 51.2531 61.9849 53.0531C61.9849 56.1469 59.4859 57.4696 53.6078 57.4696C46.2109 57.4696 44.5786 55.6107 44.0442 51.9545C43.9879 51.5607 43.6524 51.2788 43.2587 51.2788H39.6277C39.1777 51.2788 38.8422 51.6479 38.8422 52.0698C38.8422 56.7667 41.4015 62.3585 53.6078 62.3585C62.439 62.3585 67.5 58.8754 67.5 52.8004C67.5 46.7817 63.4212 45.1755 54.8712 44.0223C46.1806 42.8973 45.3076 42.3065 45.3076 40.2815C45.3076 38.594 46.0692 36.3759 52.4817 36.3759C58.1911 36.3759 60.3275 37.6094 61.1993 41.4625C61.2837 41.8281 61.5911 42.1107 61.9849 42.1107H65.6158C65.8408 42.1107 66.0349 41.9993 66.2036 41.8306C66.3442 41.6899 66.4295 41.463 66.4014 41.2098C65.8389 34.5723 61.4254 31.454 52.4817 31.454Z" fill="#7C7F86"/>
</g>
</svg>
