<svg width="91" height="91" viewBox="0 0 91 91" fill="none" xmlns="http://www.w3.org/2000/svg">
<g id="python">
<path id="Vector" d="M76.8203 24.4062H68.3406C68.2141 30.3969 67.5812 34.8055 66.2734 38.0117C63.1727 45.6266 56.3594 46.5547 44.125 46.5547C30.182 46.5547 24.8664 49.5922 24.1703 66.5938C24.107 67.9227 24.0859 69.3148 24.0859 70.8125V77.1406C24.0859 82.9625 33.5359 87.6875 45.1797 87.6875C56.8234 87.6875 66.2734 82.9625 66.2734 77.1406V68.7031H45.1797V66.5938H66.2734H76.8203C82.6422 66.5938 87.3672 57.1437 87.3672 45.5C87.3672 33.8562 82.6422 24.4062 76.8203 24.4062ZM56.7812 73.2383C58.9328 73.2383 60.6836 74.9891 60.6836 77.1406C60.6836 79.2922 58.9328 81.043 56.7812 81.043C54.6297 81.043 52.8789 79.2922 52.8789 77.1406C52.8789 74.9891 54.6297 73.2383 56.7812 73.2383Z" fill="#9A9FA6"/>
<path id="Vector_2" d="M44.125 44.4453C61.4219 44.4453 65.9359 42.5047 66.2523 24.4062C66.2523 23.7102 66.2734 23.0562 66.2734 22.318V13.8594C66.2734 8.0375 56.8234 3.3125 45.1797 3.3125C33.5359 3.3125 24.0859 8.0375 24.0859 13.8594V22.2969H45.1797V24.4062H24.0859H13.5391C7.71719 24.4062 2.99219 33.8563 2.99219 45.5C2.99219 57.1437 7.71719 66.5938 13.5391 66.5938H22.0609C22.2719 61.4258 22.8836 57.3758 24.0859 54.2328C26.8703 46.8711 32.8188 44.4453 44.125 44.4453ZM33.5781 17.7617C31.4266 17.7617 29.6758 16.0109 29.6758 13.8594C29.6758 11.7078 31.4266 9.95703 33.5781 9.95703C35.7297 9.95703 37.4805 11.7078 37.4805 13.8594C37.4805 16.0109 35.7297 17.7617 33.5781 17.7617Z" fill="#9A9FA6"/>
</g>
</svg>
