<svg width="28" height="28" viewBox="0 0 28 28" fill="none" xmlns="http://www.w3.org/2000/svg">
<g id="Group">
<path id="Vector" d="M1.02063 5.02409L1.10025 5.05503C0.765789 5.91562 0.535919 6.90119 0.469736 8.3511M1.02063 5.02409L0.469736 8.3511M1.02063 5.02409L1.10025 5.05503C1.44587 4.16569 1.90716 3.41338 2.65865 2.66189C3.41013 1.91041 4.16245 1.44912 5.05179 1.10349C5.91238 0.769032 6.89795 0.539162 8.34785 0.47298C9.80825 0.406346 10.2734 0.390559 13.9975 0.390559C17.7216 0.390559 18.1867 0.406346 19.6471 0.47298C21.097 0.539162 22.0825 0.769032 22.9431 1.10349C23.8325 1.44912 24.5848 1.91041 25.3363 2.66189C26.0878 3.41338 26.549 4.16569 26.8947 5.05503C27.2291 5.91562 27.459 6.90119 27.5252 8.3511C27.5918 9.81144 27.6076 10.2766 27.6076 14.0007C27.6076 17.7248 27.5918 18.19 27.5252 19.6503C27.459 21.1002 27.2291 22.0858 26.8947 22.9464C26.549 23.8357 26.0878 24.588 25.3363 25.3395C24.5848 26.091 23.8325 26.5523 22.9431 26.8979C22.0825 27.2324 21.097 27.4622 19.6471 27.5284C18.1867 27.5951 17.7216 27.6108 13.9975 27.6108C10.2734 27.6108 9.80825 27.5951 8.34786 27.5284C6.89795 27.4622 5.91238 27.2324 5.05179 26.8979C4.16245 26.5523 3.41013 26.091 2.65865 25.3395C1.90716 24.588 1.44587 23.8357 1.10025 22.9464C0.765789 22.0858 0.535919 21.1002 0.469737 19.6503C0.403103 18.19 0.38737 17.7248 0.38737 14.0007C0.38737 10.2766 0.403103 9.81144 0.469736 8.3511M1.02063 5.02409L0.365678 8.34635L0.469736 8.3511M22.1235 3.21251L22.1235 3.21251C21.6298 3.02072 20.8925 2.79489 19.5439 2.73334C18.0954 2.66725 17.6598 2.65332 13.9975 2.65332C10.3351 2.65332 9.89952 2.66725 8.45094 2.73334C7.10238 2.79489 6.36509 3.02072 5.87147 3.21251L5.87146 3.21251C5.21801 3.46647 4.74883 3.77162 4.25861 4.26185C3.76838 4.75207 3.46322 5.22126 3.20932 5.87465C3.01748 6.36833 2.79165 7.10562 2.7301 8.45424C2.66401 9.90277 2.65007 10.3384 2.65007 14.0007C2.65007 17.663 2.66401 18.0986 2.7301 19.5472C2.79165 20.8958 3.01748 21.6331 3.20932 22.1268C3.46322 22.7802 3.76838 23.2493 4.25861 23.7396C4.74883 24.2298 5.21801 24.5349 5.87146 24.7888C6.36509 24.9807 7.10238 25.2065 8.45099 25.2681C9.8993 25.3342 10.3349 25.3481 13.9975 25.3481C17.66 25.3481 18.0956 25.3342 19.5439 25.2681C20.8925 25.2065 21.6298 24.9807 22.1235 24.7888C22.7769 24.5349 23.2461 24.2298 23.7363 23.7396C24.2265 23.2493 24.5317 22.7802 24.7856 22.1268C24.9774 21.6331 25.2033 20.8958 25.2648 19.5472C25.3309 18.0986 25.3448 17.663 25.3448 14.0007C25.3448 10.3384 25.3309 9.90276 25.2648 8.45418C25.2033 7.10562 24.9774 6.36833 24.7856 5.87465C24.5317 5.22126 24.2265 4.75207 23.7363 4.26185C23.2461 3.77162 22.7769 3.46647 22.1235 3.21251ZM7.05913 14.0007C7.05913 10.1688 10.1655 7.06238 13.9975 7.06238C17.8294 7.06238 20.9358 10.1688 20.9358 14.0007C20.9358 17.8326 17.8294 20.939 13.9975 20.939C10.1655 20.939 7.05913 17.8326 7.05913 14.0007ZM9.32184 14.0007C9.32184 16.5829 11.4152 18.6763 13.9975 18.6763C16.5797 18.6763 18.6731 16.5829 18.6731 14.0007C18.6731 11.4185 16.5797 9.32508 13.9975 9.32508C11.4152 9.32508 9.32184 11.4185 9.32184 14.0007ZM22.8597 6.67997C22.8597 7.53136 22.1696 8.22155 21.3182 8.22155C20.4668 8.22155 19.7766 7.53136 19.7766 6.67997C19.7766 5.8286 20.4668 5.13845 21.3182 5.13845C22.1696 5.13845 22.8597 5.82859 22.8597 6.67997Z" fill="#0D0316" stroke="#1B96DF" stroke-width="0.208333"/>
</g>
</svg>
