<svg width="24" height="24" viewBox="0 0 24 24" fill="none" xmlns="http://www.w3.org/2000/svg">
<g id="Group">
<path id="Vector" d="M1.38462 5.09471C0.842079 4.59097 0.572266 3.96745 0.572266 3.22556C0.572266 2.48367 0.843522 1.83271 1.38462 1.32753C1.92717 0.823793 2.62556 0.571205 3.48122 0.571205C4.33689 0.571205 5.00786 0.823793 5.54897 1.32753C6.09151 1.83126 6.36133 2.4649 6.36133 3.22556C6.36133 3.98621 6.09007 4.59097 5.54897 5.09471C5.00642 5.59844 4.31813 5.85103 3.48122 5.85103C2.64432 5.85103 1.92717 5.59844 1.38462 5.09471ZM5.90537 7.98433V23.4283H1.02678V7.98433H5.90537Z" fill="#0D0316"/>
<path id="Vector_2" d="M22.1452 9.51061C23.2086 10.6653 23.7396 12.2501 23.7396 14.268V23.1562H19.1063V14.8944C19.1063 13.8768 18.8423 13.0858 18.3156 12.5229C17.7889 11.96 17.079 11.6771 16.1902 11.6771C15.3013 11.6771 14.5914 11.9586 14.0647 12.5229C13.538 13.0858 13.274 13.8768 13.274 14.8944V23.1562H8.61328V7.94167H13.274V9.9595C13.7458 9.28689 14.3822 8.75574 15.1816 8.36459C15.9809 7.97343 16.8799 7.77857 17.8798 7.77857C19.6604 7.77857 21.0831 8.35592 22.1452 9.50917V9.51061Z" fill="#0D0316"/>
</g>
</svg>
