<svg width="28" height="28" viewBox="0 0 28 28" fill="none" xmlns="http://www.w3.org/2000/svg">
<g id="arrow">
<path id="Vector (Stroke)" fill-rule="evenodd" clip-rule="evenodd" d="M12.4537 7.8847C14.7794 5.37725 15.6356 2.36928 15.7142 0.393433L16.8561 0.438851C16.7681 2.65348 15.8243 5.93123 13.2916 8.66187C11.5315 10.5596 9.02381 12.1716 5.55229 12.9876L27.7137 12.9876V14.1304L5.5523 14.1304C9.02381 14.9464 11.5315 16.5584 13.2916 18.4561C15.8243 21.1868 16.7681 24.4645 16.8561 26.6791L15.7142 26.7246C15.6356 24.7487 14.7794 21.7407 12.4537 19.2333C10.1443 16.7434 6.34408 14.7019 0.285156 14.7019V12.4161C6.34408 12.4161 10.1443 10.3746 12.4537 7.8847Z" fill="black"/>
</g>
</svg>
