<svg width="20" height="21" viewBox="0 0 20 21" fill="none" xmlns="http://www.w3.org/2000/svg">
<g id="Group 2">
<path id="Vector" d="M6.11546 8.51186L9.99948 4.628L13.8856 8.51392L16.1456 6.25392L9.99948 0.107697L3.85547 6.25187L6.11546 8.51186Z" fill="white"/>
<path id="Vector_2" d="M4.51972 10.1074L2.25977 7.84746L-0.000300273 10.1075L2.25965 12.3675L4.51972 10.1074Z" fill="white"/>
<path id="Vector_3" d="M6.11683 11.7035L10.0008 15.5874L13.8868 11.7016L16.148 13.9604L16.1469 13.9616L10.0008 20.1077L3.85667 13.9637L3.85352 13.9605L6.11683 11.7035Z" fill="white"/>
<path id="Vector_4" d="M17.7399 12.3685L20 10.1084L17.74 7.84846L15.48 10.1085L17.7399 12.3685Z" fill="white"/>
<path id="Vector_5" d="M12.2919 10.1065H12.2928L9.99951 7.81319L8.30471 9.50798H8.30455L8.10994 9.70275L7.70824 10.1045L7.70508 10.1076L7.70824 10.1109L9.99951 12.4022L12.2928 10.1089L12.2939 10.1076L12.2919 10.1065Z" fill="white"/>
</g>
</svg>
