<svg width="636" height="287" viewBox="0 0 636 287" fill="none" xmlns="http://www.w3.org/2000/svg">
<path d="M81.4999 208.2C67.6999 208.2 53.9999 207.7 40.2999 208.3C20.8999 209.2 1.09989 194.5 0.899888 170.9C0.699888 151.2 0.69989 131.4 1.29989 111.7C1.79989 94.2 18.2999 78.4 35.6999 78.2C55.8999 77.9 76.0999 77.9 96.2999 78.2C113.2 78.4 129.2 93.6 130.7 110.4C131 113.7 131.2 117 131.2 120.3C131.2 148.1 131.2 175.9 131.2 203.8C131.2 208.2 131.2 208.2 126.9 208.2C111.7 208.2 96.5999 208.2 81.4999 208.2ZM104.1 181.8C104.2 180.4 104.3 179.5 104.3 178.5C104.3 157.9 104.3 137.3 104.3 116.7C104.3 109.3 99.8999 104.6 92.3999 104.5C74.7999 104.4 57.1999 104.4 39.5999 104.5C31.9999 104.5 27.4999 109.3 27.4999 116.9C27.4999 134 27.7999 151 27.3999 168.1C27.1999 176.9 32.5999 182 41.2999 181.9C60.9999 181.7 80.6999 181.8 100.5 181.8C101.5 181.8 102.7 181.8 104.1 181.8Z" fill="white"/>
<path d="M249.9 208.2C235.9 208.2 222 207.8 208 208.3C189.6 209 169.3 195.1 169.1 170.3C168.9 152.1 168.8 134 169.1 115.8C169.4 96.2 181.7 82 200.8 78.4C202.7 78 204.8 78 206.8 78C224.8 78 242.7 78.4 260.7 77.9C278.9 77.3 299.1 91 299.4 115.3C299.7 145.2 299.5 175.1 299.6 205C299.6 207.6 298.6 208.1 296.2 208.1C280.7 208.2 265.3 208.2 249.9 208.2ZM272.6 181.8C272.6 180.2 272.6 179.1 272.6 178C272.6 157.6 272.6 137.2 272.6 116.9C272.6 109.1 268.1 104.5 260.2 104.5C242.8 104.4 225.4 104.4 208 104.5C200.2 104.5 195.7 109.2 195.7 117C195.7 133.9 196 150.9 195.6 167.8C195.4 177.3 201.2 181.9 209.6 181.8C229.2 181.6 248.8 181.7 268.4 181.7C269.7 181.8 270.9 181.8 272.6 181.8Z" fill="white"/>
<path d="M386.7 208.2C371.5 208.2 356.3 208.1 341.1 208.3C337.9 208.3 337.2 207.3 337.2 204.3C337.3 175.2 337.2 146 337.3 116.9C337.4 96.8 349.5 82.2 369 78.5C370.9 78.1 373 78.1 375 78.1C393 78.1 410.9 78.5 428.9 78C447.2 77.4 467.5 91.2 467.7 116.1C467.8 134.2 467.9 152.2 467.7 170.3C467.4 190 455.2 204.4 435.9 207.9C434.1 208.2 432.2 208.2 430.3 208.2C415.7 208.2 401.2 208.2 386.7 208.2ZM364.1 181.4C364.9 181.6 365.2 181.8 365.5 181.8C386.8 181.8 408 181.9 429.3 181.8C436.6 181.7 440.9 176.9 440.9 169.7C440.9 152.2 440.9 134.7 440.9 117.2C440.9 109.4 436.5 104.7 428.7 104.6C411.2 104.5 393.7 104.5 376.2 104.6C368.5 104.6 364.1 109.3 364.1 116.9C364.1 137.4 364.1 157.9 364.1 178.4C364.1 179.3 364.1 180.3 364.1 181.4Z" fill="white"/>
<path d="M555.1 208.2C539.9 208.2 524.7 208.1 509.5 208.3C506.7 208.3 505.6 207.7 505.6 204.7C505.7 175 505.5 145.3 505.7 115.6C505.8 94.3 522.3 78.2 543.7 78.2C561.3 78.2 579 78.7 596.6 78.1C615.8 77.4 635.7 91.9 635.9 115.7C636 135.4 636.1 155.2 635.5 174.9C635 192.4 618.2 208 600.6 208.4C600.3 208.4 599.9 208.4 599.6 208.4C584.8 208.2 569.9 208.2 555.1 208.2ZM532.6 181.4C533.3 181.6 533.5 181.7 533.7 181.7C555.1 181.7 576.5 181.8 597.8 181.7C605 181.6 609.3 176.7 609.3 169.4C609.3 152 609.3 134.6 609.3 117.2C609.3 109 604.8 104.5 596.6 104.4C579.4 104.4 562.3 104.3 545.1 104.4C536.9 104.4 532.5 108.9 532.5 117.2C532.5 137.5 532.5 157.7 532.5 178C532.4 179.2 532.5 180.3 532.6 181.4Z" fill="white"/>
<path d="M104.3 52.2C104.3 51.2 104.3 50.2 104.3 49.1C104.3 34.2 104.4 19.2 104.2 4.3C104.2 1.3 105 0.199993 108.1 0.399993C114.6 0.599993 121.2 0.599993 127.7 0.399993C130.1 0.399993 131.1 0.999999 131.1 3.5C131 19 131.1 34.5 131.1 50C131.1 51.6 131 52.9 128.9 52.9C121.2 52.8 113.4 52.8 105.7 52.8C105.3 52.7 105 52.4 104.3 52.2Z" fill="white"/>
<path d="M364.1 260C364.1 267.6 364 275.3 364.1 282.9C364.1 285.1 363.5 286.1 361.1 286C354.1 285.9 347.1 285.9 340.2 286C338 286 337.3 285.2 337.3 283.1C337.3 267.5 337.3 251.9 337.3 236.3C337.3 234.3 338 233.5 340 233.5C347.1 233.5 354.2 233.6 361.3 233.5C363.4 233.5 364.2 234.3 364.2 236.4C364 244.3 364.1 252.2 364.1 260Z" fill="white"/>
<path d="M532.4 234.2C532.4 235.2 532.4 236.2 532.4 237.3C532.4 252.2 532.3 267.2 532.5 282.1C532.5 285.1 531.7 286.2 528.6 286C522.1 285.8 515.5 285.8 509 286C506.6 286 505.6 285.4 505.7 282.9C505.8 267.4 505.7 251.9 505.7 236.4C505.7 234.8 505.8 233.5 507.9 233.5C515.7 233.6 523.4 233.6 531.1 233.6C531.4 233.7 531.7 233.9 532.4 234.2Z" fill="white"/>
</svg>
