<svg width="368" height="161" viewBox="0 0 368 161" fill="none" xmlns="http://www.w3.org/2000/svg">
<path d="M0.4995 96V0.511993H0.627501L49.1395 69.376L43.8915 68.352L92.2755 0.511993H92.5315V96H80.2435V28.672L81.0115 34.944L46.0675 84.352H45.8115L10.3555 34.944L12.5315 29.184V96H0.4995ZM119.125 3.45599H179.285V15.36H131.541V43.52H174.165V55.424H131.541V84.096H181.076V96H119.125V3.45599ZM227.201 3.45599C231.894 3.45599 236.203 4.096 240.129 5.376C244.139 6.57067 247.595 8.40533 250.497 10.88C253.483 13.2693 255.787 16.256 257.409 19.84C259.115 23.3387 259.969 27.4347 259.969 32.128C259.969 35.7973 259.414 39.3813 258.305 42.88C257.281 46.3787 255.531 49.5787 253.057 52.48C250.582 55.296 247.339 57.6 243.329 59.392C239.403 61.0987 234.539 61.952 228.737 61.952H215.041V96H202.625V3.45599H227.201ZM228.481 50.048C232.15 50.048 235.179 49.4933 237.569 48.384C240.043 47.2747 241.963 45.8667 243.329 44.16C244.694 42.368 245.675 40.448 246.273 38.4C246.87 36.352 247.169 34.432 247.169 32.64C247.169 30.7627 246.827 28.8427 246.145 26.88C245.547 24.832 244.523 22.9547 243.073 21.248C241.707 19.5413 239.873 18.1333 237.569 17.024C235.35 15.9147 232.619 15.36 229.377 15.36H215.041V50.048H228.481ZM243.713 57.088L267.905 96H253.569L228.993 57.472L243.713 57.088ZM367.128 98.944L295.576 26.368L299.16 27.264L299.416 96H287V0.639992H287.64L358.424 73.472L355.48 72.832L355.224 3.45599H367.512V98.944H367.128ZM114.217 121.984C112.638 121.173 110.91 120.469 109.033 119.872C107.156 119.275 105.321 118.976 103.529 118.976C101.054 118.976 99.0703 119.552 97.577 120.704C96.1263 121.856 95.401 123.392 95.401 125.312C95.401 126.763 95.8703 128 96.809 129.024C97.7477 130.005 98.985 130.859 100.521 131.584C102.057 132.309 103.657 132.992 105.321 133.632C106.772 134.187 108.201 134.805 109.609 135.488C111.017 136.171 112.276 137.024 113.385 138.048C114.537 139.072 115.433 140.331 116.073 141.824C116.756 143.317 117.097 145.173 117.097 147.392C117.097 149.824 116.478 152.043 115.241 154.048C114.046 156.053 112.318 157.632 110.057 158.784C107.796 159.936 105.108 160.512 101.993 160.512C99.945 160.512 97.9823 160.277 96.105 159.808C94.2703 159.339 92.5637 158.741 90.985 158.016C89.4063 157.248 87.9983 156.459 86.761 155.648L89.513 150.784C90.537 151.509 91.7103 152.213 93.033 152.896C94.3557 153.536 95.7423 154.069 97.193 154.496C98.6437 154.88 100.052 155.072 101.417 155.072C102.868 155.072 104.297 154.816 105.705 154.304C107.156 153.749 108.35 152.917 109.289 151.808C110.228 150.699 110.697 149.227 110.697 147.392C110.697 145.813 110.27 144.512 109.417 143.488C108.606 142.421 107.518 141.525 106.153 140.8C104.788 140.032 103.337 139.349 101.801 138.752C100.35 138.197 98.8783 137.6 97.385 136.96C95.8917 136.277 94.505 135.467 93.225 134.528C91.945 133.547 90.921 132.352 90.153 130.944C89.385 129.536 89.001 127.829 89.001 125.824C89.001 123.392 89.577 121.28 90.729 119.488C91.9237 117.653 93.545 116.224 95.593 115.2C97.641 114.133 99.9877 113.557 102.633 113.472C105.62 113.472 108.244 113.835 110.505 114.56C112.809 115.285 114.836 116.181 116.585 117.248L114.217 121.984ZM123.827 113.728H154.547V119.68H142.131V160H135.923V119.68H123.827V113.728ZM156.173 160L176.397 111.808H176.781L196.941 160H189.837L174.733 121.536L179.149 118.656L162.253 160H156.173ZM168.013 142.464H185.229L187.277 147.84H166.221L168.013 142.464ZM237.14 156.544C236.372 157.056 235.327 157.632 234.004 158.272C232.681 158.912 231.124 159.445 229.332 159.872C227.583 160.299 225.663 160.512 223.572 160.512C219.988 160.469 216.745 159.829 213.844 158.592C210.985 157.355 208.553 155.669 206.548 153.536C204.543 151.403 202.985 148.949 201.876 146.176C200.809 143.36 200.276 140.373 200.276 137.216C200.276 133.76 200.831 130.581 201.94 127.68C203.092 124.736 204.692 122.197 206.74 120.064C208.788 117.888 211.199 116.203 213.972 115.008C216.788 113.813 219.86 113.216 223.188 113.216C225.961 113.216 228.479 113.6 230.74 114.368C233.001 115.093 234.943 115.968 236.564 116.992L234.068 122.752C232.788 121.899 231.231 121.088 229.396 120.32C227.604 119.552 225.599 119.168 223.38 119.168C221.119 119.168 218.985 119.616 216.98 120.512C214.975 121.408 213.204 122.667 211.668 124.288C210.132 125.909 208.916 127.808 208.02 129.984C207.167 132.117 206.74 134.421 206.74 136.896C206.74 139.413 207.124 141.76 207.892 143.936C208.703 146.069 209.833 147.925 211.284 149.504C212.777 151.083 214.569 152.32 216.66 153.216C218.751 154.112 221.097 154.56 223.7 154.56C226.047 154.56 228.137 154.197 229.972 153.472C231.807 152.747 233.321 151.936 234.516 151.04L237.14 156.544ZM253.866 132.352L253.674 134.656L254.506 133.504L273.45 113.728H281.45L262.314 133.568L282.538 160H274.666L257.77 137.536L253.866 141.312V160H247.594V113.728H253.866V132.352Z" fill="white"/>
</svg>
