<svg width="20" height="21" viewBox="0 0 20 21" fill="none" xmlns="http://www.w3.org/2000/svg">
<g id="Nest js" clip-path="url(#clip0_1013_3469)">
<path id="Vector" d="M11.7002 0.522736C11.5619 0.522736 11.4335 0.552204 11.3144 0.592215C11.5667 0.759923 11.7057 0.983453 11.7744 1.23597C11.7799 1.27023 11.7895 1.29515 11.7943 1.32941C11.8003 1.35888 11.8037 1.38883 11.8046 1.41878C11.8238 1.8541 11.6903 1.9092 11.5969 2.16627C11.4531 2.49762 11.4932 2.85388 11.6657 3.14066C11.6815 3.17899 11.7014 3.21589 11.7248 3.25015C11.5372 1.99785 12.5818 1.81025 12.7742 1.41901C12.7893 1.07713 12.5076 0.849527 12.2847 0.691402C12.1098 0.581194 11.9072 0.522975 11.7002 0.523454V0.522736ZM13.2742 0.804725C13.2551 0.919006 13.2694 0.889297 13.2646 0.948474C13.2598 0.988485 13.2598 1.03784 13.2551 1.07713C13.2448 1.11714 13.2352 1.15691 13.2198 1.1962C13.2103 1.23621 13.1959 1.27598 13.1798 1.31528L13.1264 1.4286C13.1103 1.44848 13.1017 1.46861 13.0864 1.48849L13.0569 1.53234C13.0334 1.56612 13.0085 1.59918 12.9826 1.63129C12.9532 1.66171 12.9283 1.69597 12.8933 1.72065V1.72544C12.8638 1.75012 12.8341 1.77983 12.7991 1.80522C12.6954 1.88428 12.577 1.94346 12.4678 2.01773C12.4335 2.04169 12.3983 2.06253 12.3688 2.092C12.3353 2.11572 12.3037 2.14208 12.2747 2.17107C12.2404 2.20053 12.2155 2.23024 12.186 2.26522C12.1614 2.29469 12.1316 2.32919 12.1118 2.36417C12.0868 2.39771 12.0636 2.43221 12.0423 2.46791C12.0224 2.50792 12.008 2.54218 11.9879 2.58123C11.9728 2.62124 11.9584 2.6555 11.9479 2.69551C11.9347 2.73624 11.9235 2.77769 11.9136 2.81938C11.9088 2.83926 11.9088 2.86418 11.904 2.88334C11.8985 2.90323 11.8985 2.92336 11.8937 2.94324C11.8937 2.98325 11.889 3.02709 11.889 3.0671C11.889 3.09657 11.889 3.12628 11.8937 3.15575C11.8937 3.19576 11.8985 3.23553 11.9088 3.27961C11.9136 3.31963 11.9232 3.3594 11.9328 3.39941C11.9488 3.43846 11.9584 3.47775 11.9728 3.51752C11.9831 3.54148 11.9975 3.56711 12.008 3.587L10.8693 3.14617C10.6769 3.09178 10.4883 3.04243 10.295 2.99763L9.98355 2.92336C9.68647 2.86418 9.38459 2.81962 9.08272 2.78991C9.07241 2.78991 9.06762 2.78512 9.05804 2.78512C8.54797 2.73408 8.0343 2.72738 7.52303 2.76523C7.22116 2.78512 6.91928 2.82441 6.61741 2.87376C6.39316 2.91233 6.17011 2.95881 5.94897 3.01272L5.72616 3.0719C5.65261 3.10137 5.58241 3.13587 5.51365 3.16605L5.35002 3.24032C5.34043 3.24512 5.33085 3.24512 5.32606 3.24991C5.27575 3.27458 5.2319 3.29471 5.1871 3.31939C5.12289 3.34766 5.05988 3.37928 4.99855 3.41354C4.96429 3.42792 4.92979 3.4478 4.8996 3.46314C4.88547 3.472 4.87085 3.47991 4.85576 3.48709C4.81096 3.51273 4.76639 3.53741 4.72638 3.56208C4.68565 3.5846 4.64612 3.60952 4.60827 3.63635C4.57305 3.66031 4.53879 3.6802 4.50932 3.70511C4.50453 3.71062 4.49902 3.71062 4.49423 3.71542C4.46476 3.7353 4.43026 3.76022 4.40007 3.7849L4.39049 3.79448L4.31622 3.85366C4.30663 3.85917 4.29633 3.86875 4.28675 3.87354C4.26207 3.89343 4.23715 3.91834 4.21248 3.93751C4.20769 3.94781 4.19738 3.95356 4.19259 3.95739C4.16312 3.98782 4.13342 4.0125 4.10395 4.04197C4.09844 4.04197 4.09844 4.04676 4.09364 4.05155C4.06298 4.07838 4.03327 4.10665 4.005 4.13612C3.99949 4.14092 3.99949 4.14571 3.9947 4.14571C3.96882 4.1711 3.94391 4.1977 3.92043 4.22549C3.91084 4.23507 3.89647 4.24465 3.88617 4.25424C3.85957 4.28562 3.8313 4.31557 3.80159 4.3436C3.7968 4.35319 3.78722 4.3587 3.78243 4.36756C3.74242 4.40757 3.70816 4.44734 3.66815 4.48735L3.65377 4.50173C3.57399 4.5863 3.49014 4.67015 3.40053 4.74442C3.31189 4.82421 3.21773 4.89776 3.12333 4.96244C2.93406 5.09757 2.72994 5.21041 2.51479 5.29858C2.41105 5.34338 2.30156 5.38315 2.19303 5.41765C1.98532 5.46245 1.77209 5.54631 1.58929 5.5614C1.54927 5.5614 1.50543 5.57098 1.46542 5.57578L1.34156 5.60525L1.22248 5.65005C1.18247 5.66514 1.14342 5.68527 1.10437 5.70443C1.06915 5.72911 1.0301 5.74923 0.99488 5.77391C0.959661 5.79931 0.926599 5.82782 0.895932 5.85848C0.861672 5.88244 0.826453 5.91766 0.796985 5.94713C0.767516 5.98139 0.737808 6.0111 0.713131 6.04608C0.688454 6.08609 0.658745 6.12035 0.63886 6.16036C0.612745 6.1963 0.589506 6.23415 0.569381 6.27368C0.549496 6.31848 0.529371 6.35825 0.514996 6.40234C0.499902 6.44235 0.485527 6.48691 0.470194 6.53099C0.46061 6.571 0.450308 6.61077 0.446235 6.65078C0.446235 6.65486 0.440725 6.66037 0.440725 6.66516C0.431142 6.70996 0.431142 6.7689 0.425631 6.79861C0.42084 6.83383 0.416048 6.86258 0.416048 6.89755C0.41509 6.98356 0.435454 7.06862 0.475225 7.14504V7.14984C0.490319 7.1793 0.510444 7.20973 0.530329 7.2392C0.549496 7.26867 0.570339 7.29838 0.594298 7.32785C0.618975 7.35252 0.648683 7.38295 0.67887 7.40763C0.70762 7.43662 0.739006 7.46297 0.772308 7.48669C0.89138 7.59043 0.920849 7.62493 1.07418 7.70399C1.09886 7.71908 1.12378 7.72867 1.15396 7.744C1.15875 7.744 1.16355 7.74879 1.16834 7.74879C1.16834 7.75909 1.16834 7.76389 1.17313 7.77347C1.18463 7.85517 1.20619 7.93495 1.2371 8.01138C1.25315 8.04084 1.26273 8.07055 1.27711 8.10002C1.28262 8.11032 1.28741 8.11991 1.29316 8.1247C1.31233 8.16471 1.33221 8.19897 1.35138 8.23419L1.42565 8.33793C1.45033 8.3674 1.48075 8.4019 1.51022 8.43208C1.53969 8.46155 1.5694 8.48647 1.60438 8.51594C1.60438 8.51594 1.60917 8.52073 1.61396 8.52073C1.64343 8.54541 1.67314 8.57032 1.70333 8.59021C1.73783 8.61441 1.774 8.63573 1.81186 8.65418C1.84612 8.67406 1.88613 8.69419 1.92518 8.70928C1.95704 8.72366 1.99035 8.73516 2.02413 8.74354C2.02964 8.74833 2.03443 8.74833 2.04401 8.75312C2.0639 8.75863 2.08882 8.76343 2.10798 8.76822C2.09361 9.03583 2.08882 9.28739 2.12883 9.37676C2.17267 9.47571 2.39069 9.17383 2.60799 8.82739C2.57924 9.16928 2.55936 9.5701 2.60799 9.68917C2.6631 9.81304 2.95946 9.42635 3.21725 9.00085C6.72714 8.18939 9.92964 10.614 10.2658 14.04C10.2018 13.505 9.54296 13.2086 9.24108 13.2829C9.09254 13.6488 8.84026 14.1191 8.43441 14.4114C8.46867 14.0838 8.45429 13.7484 8.38481 13.4212C8.27388 13.8768 8.06425 14.3028 7.77076 14.6687C7.30118 14.7029 6.83088 14.4753 6.58315 14.1337C6.56326 14.1193 6.55847 14.0898 6.54314 14.0697C6.52876 14.0354 6.51367 14.0002 6.50313 13.966C6.48875 13.9329 6.47893 13.8979 6.47366 13.8622C6.46887 13.827 6.46887 13.7927 6.46887 13.7527V13.6785C6.47486 13.6432 6.483 13.6087 6.49355 13.5747C6.50385 13.5405 6.51343 13.506 6.52876 13.471C6.54793 13.4367 6.56302 13.4015 6.58794 13.3672C6.67179 13.1293 6.67179 12.936 6.51846 12.8227C6.48875 12.8033 6.45713 12.7867 6.42431 12.7731C6.40514 12.7683 6.38046 12.7587 6.36034 12.7532L6.32033 12.7388C6.28655 12.7278 6.25181 12.7197 6.21659 12.7141C6.18281 12.7043 6.14783 12.6991 6.11285 12.6991C6.07691 12.6933 6.04073 12.6902 6.00432 12.6895C5.97964 12.6895 5.95472 12.6943 5.93005 12.6943C5.89315 12.6943 5.85626 12.6991 5.82056 12.7094C5.7863 12.7141 5.7518 12.7189 5.71682 12.7285C5.6816 12.7381 5.64686 12.7498 5.61308 12.7637C5.57882 12.7781 5.54911 12.7932 5.51413 12.8085C5.48466 12.8229 5.45495 12.8428 5.41997 12.8581C4.26686 13.6104 4.95518 15.3721 5.74173 15.8824C5.44465 15.9368 5.14278 16.0005 5.05892 16.0652L5.04862 16.0748C5.26185 16.2034 5.48466 16.3127 5.71706 16.4071C6.03403 16.5108 6.3704 16.6043 6.51894 16.6443V16.6491C6.92911 16.7334 7.34838 16.7633 7.76645 16.7384C9.95935 16.5851 11.7562 14.9169 12.083 12.7189L12.1125 12.8476C12.1276 12.937 12.1467 13.0314 12.1573 13.1248V13.1296C12.1669 13.1744 12.1717 13.2189 12.1772 13.259V13.2781C12.182 13.3229 12.1868 13.3675 12.1868 13.4075C12.1915 13.4619 12.1963 13.516 12.1963 13.5704V13.6502C12.1963 13.6742 12.2018 13.7036 12.2018 13.7285C12.2018 13.759 12.1963 13.7884 12.1963 13.8179V13.8874C12.1963 13.9216 12.1915 13.9514 12.1915 13.9863C12.1915 14.0062 12.1915 14.0263 12.1868 14.0503C12.1868 14.0855 12.182 14.1198 12.182 14.1598C12.1772 14.1742 12.1772 14.1893 12.1772 14.2036L12.1611 14.3179C12.1611 14.333 12.1611 14.3474 12.157 14.3627C12.1515 14.4123 12.1419 14.4569 12.1372 14.5065V14.516L12.1077 14.655V14.6694L12.0782 14.8028C12.0782 14.8083 12.0727 14.8189 12.0727 14.8227C12.0636 14.868 12.0521 14.9128 12.0385 14.9569V14.9713C12.0234 15.0209 12.009 15.0654 11.9984 15.1102C11.9936 15.115 11.9936 15.1198 11.9936 15.1198L11.9488 15.2683C11.9297 15.3179 11.9146 15.3625 11.8945 15.4121C11.8743 15.4617 11.8602 15.511 11.8401 15.5558C11.8202 15.6054 11.8001 15.6493 11.7809 15.6996H11.7754C11.7562 15.7434 11.7354 15.793 11.7114 15.8378C11.7073 15.8496 11.7021 15.8611 11.6963 15.8721C11.6915 15.8769 11.6915 15.8824 11.6867 15.8872C11.3595 16.5424 10.8829 17.1119 10.2955 17.5499C10.2555 17.5746 10.2164 17.605 10.1764 17.6345C10.1668 17.644 10.1525 17.6488 10.1422 17.6584C10.1067 17.6845 10.0705 17.7097 10.0336 17.7334L10.048 17.7629H10.0535L10.2612 17.7334H10.266C10.3947 17.7135 10.5231 17.6886 10.6517 17.6639C10.687 17.6591 10.726 17.6488 10.7612 17.6392L10.8307 17.6242C10.865 17.6194 10.8995 17.6098 10.9345 17.605C10.9639 17.5947 10.9936 17.5889 11.0231 17.5803C11.5183 17.4605 11.9982 17.2976 12.4589 17.1052C11.6633 18.1889 10.6053 19.0523 9.38435 19.6144C9.95456 19.5744 10.5231 19.4809 11.0727 19.3221C13.0615 18.7375 14.7409 17.3954 15.7501 15.5846C15.5462 16.7308 15.0917 17.8177 14.4187 18.7679C14.8984 18.4514 15.3418 18.083 15.7405 17.669C16.8486 16.5123 17.5757 15.0441 17.8249 13.4619C17.9926 14.2446 18.0422 15.051 17.9686 15.8474C21.5415 10.8634 18.265 5.69557 16.8936 4.33474C16.8888 4.32444 16.884 4.31964 16.884 4.31006C16.8808 4.31326 16.8792 4.31645 16.8792 4.31964C16.8792 4.31645 16.8774 4.31326 16.8737 4.31006C16.8737 4.36924 16.8689 4.42817 16.8641 4.48807C16.8505 4.599 16.8339 4.70944 16.8145 4.81941C16.7906 4.92794 16.7601 5.03743 16.7307 5.14692C16.6955 5.25066 16.6564 5.35943 16.6109 5.46317C16.5656 5.56571 16.5163 5.66634 16.4631 5.76505C16.3526 5.95911 16.2252 6.14287 16.0821 6.31441C16.0079 6.40306 15.9288 6.48212 15.849 6.5619C15.8023 6.60455 15.7544 6.64575 15.7053 6.68576L15.5919 6.78471C15.5035 6.85443 15.4111 6.91864 15.3147 6.9771C15.2201 7.03795 15.1226 7.09425 15.0225 7.14552C14.9187 7.19512 14.8147 7.23968 14.711 7.28448C14.4994 7.36498 14.2807 7.42464 14.0577 7.46249C13.9434 7.48238 13.8301 7.49196 13.7206 7.5025C13.6415 7.50801 13.5624 7.51137 13.4834 7.51208C13.3708 7.51065 13.2584 7.50394 13.1463 7.4922C13.0332 7.48333 12.9208 7.4668 12.8101 7.44261C12.6978 7.42224 12.5871 7.39421 12.4788 7.35875H12.4733C12.5828 7.34845 12.6913 7.33887 12.8008 7.31874C13.0236 7.28017 13.2424 7.22051 13.4541 7.14073C13.5627 7.10072 13.6667 7.05137 13.7656 7.00177C13.8693 6.95218 13.9637 6.89803 14.0627 6.83886C14.1568 6.77489 14.2503 6.7102 14.3399 6.64072C14.4292 6.57124 14.5131 6.49697 14.5922 6.41791C14.676 6.34364 14.7503 6.25979 14.8246 6.17521C14.8988 6.08657 14.9683 5.9972 15.0323 5.90856C15.0426 5.89346 15.0531 5.87334 15.0627 5.85896C15.1123 5.77918 15.1617 5.70012 15.2065 5.62106C15.3155 5.42412 15.4048 5.21664 15.4731 5.00222C15.5083 4.89848 15.533 4.78971 15.5577 4.68046C15.5776 4.56713 15.5977 4.45836 15.6073 4.34911C15.6169 4.23579 15.6272 4.12151 15.6272 4.01298C15.6272 3.9332 15.6217 3.85413 15.6169 3.77507C15.607 3.66415 15.5936 3.5537 15.5768 3.44373C15.5577 3.33208 15.533 3.22164 15.5033 3.11239C15.4681 3.00865 15.4338 2.89916 15.3938 2.79542C15.3538 2.69168 15.3052 2.5877 15.2556 2.48875C15.2005 2.3898 15.1461 2.29062 15.0871 2.19646C15.0239 2.10398 14.9578 2.01342 14.889 1.92501C14.8147 1.84044 14.7405 1.75563 14.6614 1.67177C14.6197 1.62937 14.5768 1.58792 14.5327 1.54791C14.3092 1.37469 14.0775 1.21178 13.8444 1.06323C13.8123 1.04479 13.7793 1.02826 13.7455 1.01364C13.5986 0.923797 13.4405 0.853839 13.2752 0.805922V0.805204L13.2742 0.804725Z" fill="white"/>
</g>
<defs>
<clipPath id="clip0_1013_3469">
<rect width="20" height="20" fill="white" transform="translate(0 0.107697)"/>
</clipPath>
</defs>
</svg>
