<svg width="20" height="21" viewBox="0 0 20 21" fill="none" xmlns="http://www.w3.org/2000/svg">
<g id="python" clip-path="url(#clip0_1013_3242)">
<path id="Vector" d="M17.0312 5.4202H15.1469C15.1187 6.75145 14.9781 7.73113 14.6875 8.44363C13.9984 10.1358 12.4844 10.3421 9.76562 10.3421C6.66719 10.3421 5.48594 11.0171 5.33125 14.7952C5.31719 15.0905 5.3125 15.3999 5.3125 15.7327V17.1389C5.3125 18.4327 7.4125 19.4827 10 19.4827C12.5875 19.4827 14.6875 18.4327 14.6875 17.1389V15.2639H10V14.7952H14.6875H17.0312C18.325 14.7952 19.375 12.6952 19.375 10.1077C19.375 7.5202 18.325 5.4202 17.0312 5.4202ZM12.5781 16.2718C13.0563 16.2718 13.4453 16.6608 13.4453 17.1389C13.4453 17.6171 13.0563 18.0061 12.5781 18.0061C12.1 18.0061 11.7109 17.6171 11.7109 17.1389C11.7109 16.6608 12.1 16.2718 12.5781 16.2718Z" fill="white"/>
<path id="Vector_2" d="M9.76562 9.87332C13.6094 9.87332 14.6125 9.44207 14.6828 5.4202C14.6828 5.26551 14.6875 5.1202 14.6875 4.95613V3.07645C14.6875 1.7827 12.5875 0.732697 10 0.732697C7.4125 0.732697 5.3125 1.7827 5.3125 3.07645V4.95145H10V5.4202H5.3125H2.96875C1.675 5.4202 0.625 7.5202 0.625 10.1077C0.625 12.6952 1.675 14.7952 2.96875 14.7952H4.8625C4.90938 13.6468 5.04531 12.7468 5.3125 12.0483C5.93125 10.4124 7.25312 9.87332 9.76562 9.87332ZM7.42188 3.94363C6.94375 3.94363 6.55469 3.55457 6.55469 3.07645C6.55469 2.59832 6.94375 2.20926 7.42188 2.20926C7.9 2.20926 8.28906 2.59832 8.28906 3.07645C8.28906 3.55457 7.9 3.94363 7.42188 3.94363Z" fill="white"/>
</g>
<defs>
<clipPath id="clip0_1013_3242">
<rect width="20" height="20" fill="white" transform="translate(0 0.107697)"/>
</clipPath>
</defs>
</svg>
