<svg width="60" height="59" viewBox="0 0 60 59" fill="none" xmlns="http://www.w3.org/2000/svg">
<g id="Avalanche" clip-path="url(#clip0_408_1987)">
<path id="Vector" d="M15.5505 54.6875H5.63894C3.55255 54.6875 2.52008 54.6875 1.8963 54.3048C1.56266 54.0979 1.2845 53.8143 1.08529 53.4782C0.886107 53.1425 0.771765 52.7642 0.752029 52.3754C0.713296 51.6485 1.22952 50.7729 2.26199 49.0049L26.7483 6.96585C27.7979 5.18076 28.3313 4.28822 28.998 3.96095C29.3514 3.78126 29.7429 3.6875 30.1402 3.6875C30.5376 3.6875 30.9291 3.78126 31.2825 3.96095C31.9448 4.28822 32.461 5.18076 33.4935 6.96585L38.5483 15.5258L38.5654 15.5641C39.3959 16.7754 40.054 18.0929 40.5186 19.4785C40.798 20.5708 40.798 21.7566 40.5186 22.8659C40.0531 24.2654 39.3959 25.5953 38.5654 26.8186L25.6984 48.9708L25.6598 49.0431C25.0016 50.3649 24.1542 51.5931 23.1519 52.6855C22.2855 53.4846 21.2448 54.0763 20.1105 54.4153C19.0608 54.6875 17.8993 54.6875 15.5548 54.6875M40.613 54.6875H54.8093C56.9301 54.6875 57.9797 54.6875 58.608 54.2879C58.9408 54.0801 59.2178 53.7965 59.4166 53.4608C59.6149 53.1247 59.7284 52.7467 59.7479 52.3582C59.7866 51.6485 59.2877 50.8111 58.2939 49.1492L58.1821 48.9708L51.0667 37.1298L50.9935 36.9852C49.9955 35.3446 49.4793 34.5072 48.8341 34.1799C48.4839 33.9998 48.0951 33.9054 47.7004 33.9054C47.3057 33.9054 46.9172 33.9998 46.567 34.1799C45.9045 34.5072 45.3882 35.3828 44.3557 37.1298L37.2362 48.9877V49.0262C36.1866 50.7686 35.6703 51.6485 35.709 52.3582C35.7293 52.7487 35.8429 53.1288 36.0411 53.4675C36.2394 53.8058 36.5164 54.0926 36.8491 54.3048C37.4598 54.6875 38.5097 54.6875 40.613 54.6875Z" fill="#9A9FA6"/>
</g>
<defs>
<clipPath id="clip0_408_1987">
<rect width="59" height="59" fill="white" transform="translate(0.75)"/>
</clipPath>
</defs>
</svg>
