<svg width="60" height="59" viewBox="0 0 60 59" fill="none" xmlns="http://www.w3.org/2000/svg">
<g id="Group 2">
<path id="Vector" d="M18.542 24.7923L29.9998 13.3349L41.4638 24.7984L48.1308 18.1314L29.9998 0L11.875 18.1253L18.542 24.7923Z" fill="#9A9FA6"/>
<path id="Vector_2" d="M13.8339 29.4994L7.16699 22.8325L0.499799 29.4997L7.16667 36.1666L13.8339 29.4994Z" fill="#9A9FA6"/>
<path id="Vector_3" d="M18.542 34.2077L29.9999 45.6651L41.4633 34.2021L48.134 40.8654L48.1308 40.8691L29.9999 59L11.8746 40.8752L11.8652 40.8659L18.542 34.2077Z" fill="#9A9FA6"/>
<path id="Vector_4" d="M52.8328 36.1691L59.5 29.502L52.8331 22.8351L46.1659 29.5023L52.8328 36.1691Z" fill="#9A9FA6"/>
<path id="Vector_5" d="M36.7615 29.4963H36.7643L29.999 22.731L24.9994 27.7306H24.9989L24.4248 28.3052L23.2398 29.4902L23.2305 29.4995L23.2398 29.5093L29.999 36.2686L36.7643 29.5033L36.7676 29.4995L36.7615 29.4963Z" fill="#9A9FA6"/>
</g>
</svg>
