<svg width="91" height="90" viewBox="0 0 91 90" fill="none" xmlns="http://www.w3.org/2000/svg">
<g id="Near" clip-path="url(#clip0_408_1952)">
<path id="Vector" d="M70.4002 5.12278L52.018 32.4028C50.7469 34.2606 53.1914 36.5094 54.9514 34.945L73.0403 19.2028C73.5291 18.8117 74.2136 19.105 74.2136 19.7894V68.9717C74.2136 69.6561 73.3336 69.9494 72.9425 69.4606L18.1869 3.94944C16.4269 1.79833 13.8847 0.625 11.0491 0.625H9.09358C4.00913 0.625 -0.195312 4.82944 -0.195312 10.0117V79.2383C-0.195312 84.4206 4.00913 88.625 9.19136 88.625C12.418 88.625 15.4491 86.9628 17.2091 84.1272L35.5914 56.8472C36.8625 54.9894 34.418 52.7406 32.658 54.305L14.5691 69.9494C14.0802 70.3406 13.3958 70.0472 13.3958 69.3628V20.2783C13.3958 19.5939 14.2758 19.3006 14.6669 19.7894L69.4225 85.3006C71.1825 87.4517 73.8225 88.625 76.5602 88.625H78.5158C83.698 88.625 87.9025 84.4206 87.9025 79.2383V10.0117C87.9025 4.82944 83.698 0.625 78.5158 0.625C75.1914 0.625 72.1602 2.28722 70.4002 5.12278Z" fill="#9A9FA6"/>
</g>
<defs>
<clipPath id="clip0_408_1952">
<rect width="90" height="90" fill="white" transform="translate(0.179688)"/>
</clipPath>
</defs>
</svg>
