<svg width="120" height="120" viewBox="0 0 120 120" fill="none" xmlns="http://www.w3.org/2000/svg">
<g id="Docker" clip-path="url(#clip0_674_4310)">
<path id="Vector" d="M117.095 49.4918C114.471 47.6712 108.458 46.9885 103.757 47.8988C103.21 43.3473 100.696 39.3649 96.3228 35.8375L93.8083 34.0169L92.0591 36.634C89.8726 40.0476 88.7793 44.8266 89.1073 49.378C89.2166 50.971 89.7632 53.8156 91.4031 56.3189C89.8726 57.2292 86.7021 58.367 82.5477 58.367H3.50476L3.28611 59.2773C2.52082 63.8287 2.52082 78.0519 11.4856 88.9753C18.2638 97.2816 28.3218 101.492 41.5503 101.492C70.1938 101.492 91.4031 87.7236 101.352 62.8046C105.288 62.9184 113.706 62.8046 117.969 54.2707C118.079 54.0432 118.297 53.588 119.063 51.8812L119.5 50.971L117.095 49.4918ZM66.6954 17.4043H54.6695V28.7828H66.6954V17.4043ZM66.6954 31.0585H54.6695V42.4371H66.6954V31.0585ZM52.483 31.0585H40.4571V42.4371H52.483V31.0585ZM38.2705 31.0585H26.2446V42.4371H38.2705V31.0585ZM24.0581 44.7128H12.0322V56.0913H24.0581V44.7128ZM38.2705 44.7128H26.2446V56.0913H38.2705V44.7128ZM52.483 44.7128H40.4571V56.0913H52.483V44.7128ZM66.6954 44.7128H54.6695V56.0913H66.6954V44.7128ZM80.9078 44.7128H68.8819V56.0913H80.9078V44.7128Z" fill="#3487B4"/>
</g>
<defs>
<clipPath id="clip0_674_4310">
<rect width="119" height="119" fill="white" transform="translate(0.5 0.0498047)"/>
</clipPath>
</defs>
</svg>
