<svg width="90" height="90" viewBox="0 0 90 90" fill="none" xmlns="http://www.w3.org/2000/svg">
<g id="Kubernetes ">
<path id="Vector" fill-rule="evenodd" clip-rule="evenodd" d="M0.140665 54.4729L7.86136 20.8859C8.25966 19.1548 9.48596 17.6303 11.0987 16.8598L42.3928 1.90761C44.0033 1.12972 45.7127 1.16911 47.5875 1.90761L78.8853 16.8516C80.498 17.6221 81.7243 19.1467 82.1234 20.8784L89.8551 54.4649C90.2542 56.1971 89.8158 58.0994 88.699 59.4877L67.0467 86.423C65.9291 87.8094 64.1575 88.6535 62.3677 88.6522L27.6326 88.6604C25.8421 88.6611 24.0705 87.815 22.9536 86.4273L1.29316 59.4957C0.075082 57.9724 -0.213043 56.2808 0.140665 54.4729ZM43.3812 57.5544L38.1142 67.0703C42.7876 68.5659 47.3937 68.6427 51.9223 67.0834L46.6465 57.5503C45.6978 56.2133 44.087 56.3491 43.3812 57.5544ZM35.5137 52.2081L24.8115 54.0243C26.4629 58.594 29.5507 62.3186 33.4276 64.8063L37.5736 54.7857C38.0302 53.2911 37.0486 52.068 35.5137 52.2081ZM52.4226 54.7241L56.6137 64.8463C60.6532 62.2729 63.6759 58.4273 65.2561 53.9884L54.4604 52.1638C52.8863 52.0132 51.9443 53.3172 52.4226 54.7241ZM41.2504 45.8734L41.9951 49.1072L44.9985 50.5511L47.9928 49.1114L48.7368 45.8776L46.6638 43.2862H43.3283L41.2504 45.8734ZM55.9001 45.8998L66.3898 48.9209C66.868 44.1053 65.6895 39.6427 63.2668 35.4453L55.1692 42.6922C54.2195 43.8034 54.2953 45.1815 55.9001 45.8998ZM34.8139 42.7234L26.672 35.441C24.2556 39.3774 23.1108 44.0993 23.6416 48.9564L34.0788 45.9441C35.4815 45.3766 35.9408 43.9376 34.8139 42.7234ZM51.1601 37.6643L60.0199 31.3829C56.6774 28.1096 52.3153 25.9742 47.5989 25.3936L48.2143 36.2515C48.4479 38.0744 49.841 38.3653 51.1601 37.6643ZM29.9058 31.3787L38.823 37.7003C40.2815 38.6022 41.6661 37.6383 41.7867 36.2689L42.4021 25.3936C37.5274 26.0599 33.2321 28.0759 29.9058 31.3787ZM78.1914 56.4074C77.3042 56.1206 74.5446 54.8979 72.7162 54.6266C72.1536 54.5823 71.8669 54.8508 71.5554 55.0563L70.6694 54.9013C68.6831 61.144 64.4526 66.5499 58.7178 69.9359L59.0632 70.7735C58.9317 71.1229 58.7352 71.458 58.9034 71.9958C59.6841 73.8785 60.846 75.3599 61.854 76.9399C63.7253 80.0735 60.0465 82.2455 58.241 79.0961C57.5478 77.1598 56.9493 74.746 56.0952 73.3517C55.7789 72.8846 55.3914 72.825 55.0363 72.7093L54.5933 71.912C48.1269 74.2941 41.751 74.2354 35.461 71.8629L34.9911 72.7136C34.6415 72.807 34.3045 72.9025 34.0975 73.149C33.1184 74.3946 32.3221 77.7974 31.6375 79.301C30.2007 82.0677 26.6435 80.1758 27.8902 77.5331C28.7161 75.834 29.7897 74.9584 31.1448 71.946C31.2458 71.5992 31.1579 71.0685 30.9599 70.7735L31.3365 69.8694C25.8178 66.5997 21.46 61.3884 19.3806 54.9408L18.4768 55.0958C18.2658 54.8666 17.7473 54.639 17.2848 54.675C16.178 54.8355 14.9214 54.9909 13.6704 55.7382C7.8961 59.1872 5.81754 51.7869 12.873 52.2476C15.6226 52.4271 16.7379 52.0187 17.48 50.7372L18.3479 50.4847C17.3755 43.747 19.0215 37.1348 22.5785 31.7816L21.914 31.1884C21.8718 30.9295 21.8163 30.3314 21.4979 29.9923C18.8831 27.7586 17.7913 27.7632 16.2659 26.4748C13.8634 24.5939 16.4196 21.3289 18.8221 23.2098C20.2449 24.3349 21.0323 25.7467 23.4423 27.5511C23.9296 27.8348 24.304 27.7207 24.6743 27.6709L25.4226 28.2025C29.2846 24.135 35.1549 20.596 42.717 19.8874L42.7655 19.0105C43.0418 18.7433 43.3512 18.3591 43.4391 17.9383C43.6504 15.8015 42.93 13.2595 42.9254 11.6167C42.9625 8.63558 46.9603 8.46589 47.0716 11.6167C47.1183 13.4547 46.5127 14.4329 46.5579 17.9383C46.6395 18.4961 46.9656 18.7169 47.2355 18.975L47.284 19.9005C53.8762 20.4862 59.9977 23.5004 64.494 28.2156L65.2824 27.6528C65.5496 27.6687 66.1386 27.7497 66.5408 27.5158C67.5829 26.8466 69.1424 25.1952 70.7049 23.5378C73.0248 21.1445 76.3191 23.9752 73.7484 26.4124C72.4618 27.5187 70.8128 27.9635 68.4857 29.9522C68.1001 30.364 68.1294 30.7544 68.0953 31.1262L67.3603 31.7864C71.1618 37.7087 72.6426 43.6017 71.6795 50.4445L72.5169 50.6881C72.6671 50.9013 72.9765 51.419 73.4112 51.5879C75.2165 52.1635 77.0287 52.1771 79.4185 52.4293C83.028 52.8103 81.6596 57.4773 78.1914 56.4074Z" fill="#9A9FA6"/>
</g>
</svg>
