<svg width="60" height="60" viewBox="0 0 60 60" fill="none" xmlns="http://www.w3.org/2000/svg">
<g id="Polygon" clip-path="url(#clip0_478_1399)">
<path id="Vector" d="M45.6033 20.0543C44.525 19.4382 43.1386 19.4382 41.9062 20.0543L33.2796 25.1379L27.4258 28.3729L18.9532 33.4564C17.8749 34.0726 16.4884 34.0726 15.2561 33.4564L8.63204 29.4512C7.55371 28.835 6.78347 27.6026 6.78347 26.2162V18.5139C6.78347 17.2815 7.39966 16.0491 8.63204 15.2789L15.2561 11.4277C16.3344 10.8115 17.7208 10.8115 18.9532 11.4277L25.5772 15.4329C26.6555 16.0491 27.4258 17.2815 27.4258 18.6679V23.7515L33.2796 20.3624V15.1248C33.2796 13.8925 32.6634 12.6601 31.431 11.8898L19.1072 4.64964C18.0289 4.03345 16.6425 4.03345 15.4101 4.64964L2.77825 12.0439C1.54588 12.6601 0.929688 13.8925 0.929688 15.1248V29.6053C0.929688 30.8376 1.54588 32.07 2.77825 32.8402L15.2561 40.0805C16.3344 40.6966 17.7208 40.6966 18.9532 40.0805L27.4258 35.1509L33.2796 31.7619L41.7521 26.8324C42.8305 26.2162 44.2169 26.2162 45.4493 26.8324L52.0733 30.6836C53.1516 31.2998 53.9219 32.5321 53.9219 33.9186V41.6209C53.9219 42.8533 53.3057 44.0857 52.0733 44.8559L45.6033 48.7071C44.525 49.3233 43.1386 49.3233 41.9062 48.7071L35.2822 44.8559C34.2038 44.2397 33.4336 43.0073 33.4336 41.6209V36.6914L27.5798 40.0805V45.164C27.5798 46.3964 28.196 47.6288 29.4284 48.399L41.9062 55.6392C42.9845 56.2554 44.3709 56.2554 45.6033 55.6392L58.0811 48.399C59.1595 47.7828 59.9297 46.5504 59.9297 45.164V30.5295C59.9297 29.2972 59.3135 28.0648 58.0811 27.2945L45.6033 20.0543Z" fill="#9A9FA6"/>
</g>
<defs>
<clipPath id="clip0_478_1399">
<rect width="59" height="59" fill="white" transform="translate(0.929688 0.5)"/>
</clipPath>
</defs>
</svg>
