<svg width="90" height="90" viewBox="0 0 90 90" fill="none" xmlns="http://www.w3.org/2000/svg">
<g id="Solana">
<path id="Vector" d="M89.5359 67.4498L74.6785 82.9721C74.3537 83.3106 73.9632 83.5794 73.531 83.7618C73.0955 83.9459 72.6275 84.0405 72.1547 84.0401H1.72449C1.38949 84.0404 1.06137 83.9451 0.778744 83.7652C0.499326 83.5875 0.278195 83.3317 0.142747 83.0295C0.00905575 82.7302 -0.0319561 82.3979 0.0249978 82.0751C0.0827311 81.7508 0.235428 81.4508 0.463746 81.2134L15.332 65.6911C15.6561 65.3534 16.0455 65.0852 16.4765 64.9028C16.9105 64.7189 17.3769 64.6237 17.8483 64.6231H88.2744C88.6096 64.6228 88.9378 64.7183 89.2205 64.8983C89.4997 65.0761 89.7209 65.3316 89.8569 65.6333C89.9905 65.9328 90.0314 66.2655 89.9743 66.5884C89.9165 66.9126 89.764 67.2123 89.5359 67.4498ZM74.6785 36.1918C74.3537 35.8533 73.9632 35.5846 73.531 35.4021C73.0955 35.2181 72.6275 35.1235 72.1547 35.1238H1.72449C1.38945 35.1236 1.06131 35.2191 0.778744 35.3991C0.499382 35.5767 0.278257 35.8324 0.142747 36.1345C0.00900279 36.4338 -0.0320096 36.7663 0.0249978 37.0892C0.0828445 37.4134 0.23553 37.7132 0.463746 37.9506L15.332 53.4733C15.6562 53.8109 16.0455 54.0791 16.4765 54.2615C16.9093 54.4452 17.3765 54.5405 17.8483 54.5412H88.2744C88.6096 54.5415 88.9378 54.446 89.2205 54.266C89.4998 54.0881 89.721 53.8325 89.8569 53.5306C89.9904 53.2312 90.0313 52.8987 89.9743 52.5759C89.9165 52.2518 89.7639 51.952 89.5359 51.7145L74.6785 36.1918ZM1.72486 25.042H72.1551C72.6279 25.0424 73.0959 24.9478 73.5314 24.7638C73.9636 24.5813 74.354 24.3125 74.6789 23.974L89.5363 8.45136C89.7645 8.21392 89.9171 7.91417 89.975 7.58999C90.032 7.26712 89.991 6.9346 89.8573 6.63525C89.7213 6.33348 89.5001 6.07802 89.2209 5.90025C88.9382 5.72022 88.6099 5.62473 88.2748 5.625H17.8483C17.377 5.62558 16.9105 5.72058 16.4765 5.90437C16.0455 6.0868 15.6561 6.35499 15.332 6.69262L0.467121 22.2153C0.239136 22.4525 0.0865863 22.752 0.0287478 23.0759C-0.0283641 23.3985 0.0123847 23.7307 0.145747 24.0299C0.280896 24.3316 0.501479 24.5872 0.780244 24.7649C1.0622 24.9453 1.39016 25.0414 1.72486 25.042Z" fill="#9A9FA6"/>
</g>
</svg>
