<svg width="60" height="59" viewBox="0 0 60 59" fill="none" xmlns="http://www.w3.org/2000/svg">
<g id="TON logo" clip-path="url(#clip0_478_1416)">
<path id="Vector" d="M58.5563 15.1567L32.8502 56.0922C32.5374 56.5867 32.1042 56.9934 31.592 57.2756C31.0792 57.5578 30.5036 57.7055 29.9189 57.7055C29.3291 57.7067 28.7491 57.5578 28.2331 57.2723C27.717 56.9872 27.2824 56.5749 26.9698 56.0751L1.76687 15.1394C1.06082 13.992 0.688417 12.6706 0.691424 11.3233C0.723389 9.33438 1.54308 7.4393 2.97066 6.054C4.39828 4.66868 6.31709 3.90628 8.30614 3.93408H52.0864C56.2669 3.93408 59.6665 7.22979 59.6665 11.306C59.6665 12.6589 59.2849 13.9946 58.5563 15.1567ZM7.95925 13.7864L26.7097 42.7016V10.8724H9.91929C7.97656 10.8724 7.1093 12.1559 7.95925 13.7864ZM33.6479 42.7016L52.3987 13.7864C53.2662 12.1559 52.3813 10.8724 50.4387 10.8724H33.6479V42.7016Z" fill="#9A9FA6"/>
</g>
<defs>
<clipPath id="clip0_478_1416">
<rect width="59" height="59" fill="white" transform="translate(0.679688)"/>
</clipPath>
</defs>
</svg>
