<svg width="101" height="25" viewBox="0 0 101 25" fill="none" xmlns="http://www.w3.org/2000/svg">
<g id="coinscribble" clip-path="url(#clip0_1439_6170)">
<path id="Vector" d="M7.13619 14.5185H3.67111V11.0582H0.206055V14.5233H3.67111V17.9836H7.13619H10.6036V14.5185H7.13619Z" fill="#6CB5DD"/>
<path id="Vector_2" d="M14.0686 11.0535H10.6035V14.5185H14.0686V11.0535Z" fill="#6CB5DD"/>
<path id="Vector_3" d="M10.6008 7.586H7.13574V11.0511H10.6008V7.586Z" fill="#6CB5DD"/>
<path id="Vector_4" d="M7.13596 4.09737H3.6709V7.56241H7.13596V4.09737Z" fill="#6CB5DD"/>
<path id="Vector_5" d="M10.6032 4.12097H14.0422V7.56236H17.5073V4.09732H14.0682V0.655914H10.6032H7.13574V4.12097H10.6032Z" fill="#6CB5DD"/>
<path id="Vector_6" d="M25.3527 7.25487C27.453 7.25487 28.8438 8.40434 28.9857 10.2634H26.786C26.6299 9.55387 26.19 9.21324 25.4379 9.21324C24.5154 9.21324 23.9194 9.90864 23.9194 11.0013C23.9194 12.0941 24.4728 12.8037 25.4095 12.8037C26.1758 12.8037 26.6441 12.4489 26.786 11.7535H28.9857C28.8438 13.5416 27.3962 14.7621 25.4095 14.7621C23.1672 14.7621 21.7197 13.272 21.7197 11.0013C21.7197 8.73073 23.224 7.25487 25.3527 7.25487Z" fill="#1F6890"/>
<path id="Vector_7" d="M33.2859 7.26917C35.5424 7.26917 37.1886 8.77341 37.1886 11.0156C37.1886 13.2579 35.5424 14.748 33.2859 14.748C31.0295 14.748 29.3691 13.2579 29.3691 11.0156C29.3691 8.77341 31.0153 7.26917 33.2859 7.26917ZM33.2859 12.7896C34.2935 12.7896 34.9889 12.08 34.9889 11.0014C34.9889 9.92294 34.2935 9.22754 33.2859 9.22754C32.2783 9.22754 31.5688 9.93713 31.5688 11.0014C31.5688 12.0658 32.2641 12.7896 33.2859 12.7896Z" fill="#1F6890"/>
<path id="Vector_8" d="M37.8555 5.12616C37.8555 4.43078 38.4089 3.89151 39.1043 3.89151C39.7996 3.89151 40.3389 4.43078 40.3389 5.12616C40.3389 5.82153 39.7855 6.375 39.1043 6.375C38.4231 6.375 37.8555 5.82153 37.8555 5.12616ZM38.0257 7.4819H40.2112V14.5776H38.0257V7.4819Z" fill="#1F6890"/>
<path id="Vector_9" d="M41.4316 14.5776V7.4819H43.4894L43.6313 8.21984C44.0713 7.60964 44.8802 7.25487 45.8026 7.25487C47.4914 7.25487 48.4706 8.33338 48.4706 10.1924V14.5776H46.2851V10.7175C46.2851 9.82348 45.7884 9.24162 45.0362 9.24162C44.1706 9.24162 43.6171 9.80929 43.6171 10.6892V14.5776H41.4316Z" fill="#1F6890"/>
<path id="Vector_10" d="M51.0826 12.3354C51.1111 12.832 51.4799 13.1301 52.1471 13.1301C52.8142 13.1301 53.1406 12.8888 53.1406 12.5198C53.1406 12.307 53.0271 12.0799 52.5019 11.9664L51.196 11.6826C49.8906 11.3987 49.252 10.8311 49.252 9.58225C49.252 8.10634 50.5149 7.25487 52.218 7.25487C53.9212 7.25487 55.0136 8.21984 55.0136 9.65317H52.9417C52.9417 9.17066 52.6438 8.84427 52.1186 8.84427C51.6218 8.84427 51.3095 9.09975 51.3095 9.4829C51.3095 9.80929 51.5794 9.9938 52.0761 10.1073L53.3959 10.3911C54.5594 10.6466 55.198 11.1859 55.198 12.3212C55.198 13.8396 53.9067 14.7621 52.0621 14.7621C50.217 14.7621 49.0107 13.7687 49.0107 12.3354H51.0826Z" fill="#1F6890"/>
<path id="Vector_11" d="M59.1561 7.25487C61.2566 7.25487 62.6474 8.40434 62.7893 10.2634H60.5899C60.4335 9.55387 59.9937 9.21324 59.2416 9.21324C58.319 9.21324 57.7228 9.90864 57.7228 11.0013C57.7228 12.0941 58.2766 12.8037 59.2131 12.8037C59.9792 12.8037 60.448 12.4489 60.5899 11.7535H62.7893C62.6474 13.5416 61.2001 14.7621 59.2131 14.7621C56.9707 14.7621 55.5234 13.272 55.5234 11.0013C55.5234 8.73073 57.0277 7.25487 59.1561 7.25487Z" fill="#1F6890"/>
<path id="Vector_12" d="M68.4382 9.53967H67.743C66.4942 9.53967 65.742 10.0931 65.742 11.4981V14.5776H63.5566V7.49614H65.6141L65.7276 8.54632C66.0259 7.85091 66.6501 7.3826 67.6011 7.3826C67.8565 7.3826 68.1403 7.41099 68.4382 7.48195V9.53967Z" fill="#1F6890"/>
<path id="Vector_13" d="M68.9492 5.12616C68.9492 4.43078 69.5024 3.89151 70.1976 3.89151C70.8932 3.89151 71.4325 4.43078 71.4325 5.12616C71.4325 5.82153 70.8788 6.375 70.1976 6.375C69.5164 6.375 68.9492 5.82153 68.9492 5.12616ZM69.1191 7.4819H71.3045V14.5776H69.1191V7.4819Z" fill="#1F6890"/>
<path id="Vector_14" d="M72.5244 14.5777V3.87735H74.7098V8.30504C75.1356 7.66646 76.0726 7.24072 77.0941 7.24072C79.0811 7.24072 80.344 8.78755 80.344 11.1007C80.344 13.4139 78.9392 14.7621 76.9237 14.7621C75.9307 14.7621 75.0791 14.3222 74.6958 13.6694L74.5824 14.5777H72.5244ZM76.4555 12.7612C77.4914 12.7612 78.1441 12.0374 78.1441 10.9872C78.1441 9.93707 77.4914 9.21329 76.4555 9.21329C75.4195 9.21329 74.7243 9.92288 74.7243 10.9872C74.7243 12.0516 75.434 12.7612 76.4555 12.7612Z" fill="#1F6890"/>
<path id="Vector_15" d="M81.1816 14.5777V3.87735H83.3671V8.30504C83.7928 7.66646 84.7294 7.24072 85.7514 7.24072C87.7384 7.24072 89.0012 8.78755 89.0012 11.1007C89.0012 13.4139 87.5964 14.7621 85.5809 14.7621C84.5874 14.7621 83.7364 14.3222 83.3531 13.6694L83.2396 14.5777H81.1816ZM85.1127 12.7612C86.1487 12.7612 86.8013 12.0374 86.8013 10.9872C86.8013 9.93707 86.1487 9.21329 85.1127 9.21329C84.0767 9.21329 83.3815 9.92288 83.3815 10.9872C83.3815 12.0516 84.0912 12.7612 85.1127 12.7612Z" fill="#1F6890"/>
<path id="Vector_16" d="M89.8389 14.5777V3.87735H92.0243V14.5777H89.8389Z" fill="#1F6890"/>
<path id="Vector_17" d="M92.8613 11.0155C92.8613 8.80169 94.3511 7.25487 96.494 7.25487C98.6369 7.25487 100.113 8.71654 100.113 11.0297V11.5832L94.9618 11.6116C95.0892 12.5482 95.6144 12.9882 96.5795 12.9882C97.4026 12.9882 97.9843 12.6902 98.1402 12.1793H100.141C99.8858 13.7545 98.481 14.7621 96.537 14.7621C94.3941 14.7621 92.8613 13.201 92.8613 11.0155ZM94.9898 10.2634H97.9418C97.9418 9.51129 97.3881 9.02878 96.5085 9.02878C95.6284 9.02878 95.1602 9.41194 94.9898 10.2634Z" fill="#1F6890"/>
<path id="Vector_18" d="M79.1113 19.4683H78.7314V19.9399H79.1113V19.4683Z" fill="#489BC8"/>
<path id="Vector_19" d="M79.439 19.2325V18.9967H79.2031V19.9399H79.9103V19.2325H79.439Z" fill="#489BC8"/>
<path id="Vector_20" d="M74.099 20.3731C74.8966 20.3731 75.4239 20.8095 75.4783 21.5155H74.6433C74.5843 21.2463 74.4169 21.1169 74.1315 21.1169C73.7812 21.1169 73.5553 21.3811 73.5553 21.7956C73.5553 22.2102 73.7652 22.4798 74.121 22.4798C74.4119 22.4798 74.5898 22.345 74.6433 22.0813H75.4783C75.4244 22.76 74.8747 23.2232 74.121 23.2232C73.269 23.2232 72.7197 22.6575 72.7197 21.7956C72.7197 20.9338 73.2909 20.3731 74.099 20.3731Z" fill="#489BC8"/>
<path id="Vector_21" d="M77.1108 20.3786C77.9674 20.3786 78.5925 20.9497 78.5925 21.8011C78.5925 22.6524 77.9679 23.2181 77.1108 23.2181C76.2542 23.2181 75.624 22.6524 75.624 21.8011C75.624 20.9497 76.2492 20.3786 77.1108 20.3786ZM77.1108 22.4744C77.4936 22.4744 77.7575 22.2051 77.7575 21.7956C77.7575 21.3861 77.4936 21.1219 77.1108 21.1219C76.7285 21.1219 76.4591 21.3911 76.4591 21.7956C76.4591 22.2001 76.723 22.4744 77.1108 22.4744Z" fill="#489BC8"/>
<path id="Vector_22" d="M78.9102 20.4596H79.7397V23.1535H78.9102V20.4596Z" fill="#489BC8"/>
<path id="Vector_23" d="M80.2031 23.1535V20.4596H80.9847L81.0382 20.7397C81.2056 20.5079 81.5125 20.3735 81.8628 20.3735C82.5035 20.3735 82.8758 20.783 82.8758 21.4886V23.1535H82.0457V21.6881C82.0457 21.3487 81.8573 21.1278 81.5719 21.1278C81.2426 21.1278 81.0327 21.3433 81.0327 21.6772V23.1535H80.2031Z" fill="#489BC8"/>
<path id="Vector_24" d="M83.3062 23.1535V19.0908H84.1357V20.7716C84.2977 20.5293 84.653 20.3676 85.0408 20.3676C85.7954 20.3676 86.2747 20.9548 86.2747 21.833C86.2747 22.7112 85.7409 23.2232 84.9758 23.2232C84.5985 23.2232 84.2752 23.056 84.1298 22.8082L84.0868 23.1531H83.3057L83.3062 23.1535ZM84.7984 22.4638C85.1917 22.4638 85.4396 22.1891 85.4396 21.7905C85.4396 21.392 85.1917 21.1169 84.7984 21.1169C84.4056 21.1169 84.1413 21.3861 84.1413 21.7905C84.1413 22.195 84.4106 22.4638 84.7984 22.4638Z" fill="#489BC8"/>
<path id="Vector_25" d="M87.935 20.3786C88.7911 20.3786 89.4168 20.9497 89.4168 21.8011C89.4168 22.6524 88.7916 23.2181 87.935 23.2181C87.0779 23.2181 86.4482 22.6524 86.4482 21.8011C86.4482 20.9497 87.0729 20.3786 87.935 20.3786ZM87.935 22.4744C88.3173 22.4744 88.5812 22.2051 88.5812 21.7956C88.5812 21.3861 88.3173 21.1219 87.935 21.1219C87.5522 21.1219 87.2828 21.3911 87.2828 21.7956C87.2828 22.2001 87.5467 22.4744 87.935 22.4744Z" fill="#489BC8"/>
<path id="Vector_26" d="M92.2884 20.4596V23.1535H91.5073L91.4533 22.8519C91.2859 23.0729 90.952 23.2236 90.6287 23.2236C90.015 23.2236 89.6377 22.8141 89.6377 22.1514V20.4596H90.4673V21.8494C90.4673 22.2912 90.6177 22.4852 90.957 22.4852C91.2964 22.4852 91.4583 22.3021 91.4583 21.8603V20.4596H92.2879H92.2884Z" fill="#489BC8"/>
<path id="Vector_27" d="M92.751 23.1535V20.4596H93.5321L93.5861 20.7397C93.753 20.5079 94.0598 20.3735 94.4102 20.3735C95.0513 20.3735 95.4231 20.783 95.4231 21.4886V23.1535H94.5941V21.6881C94.5941 21.3487 94.4052 21.1278 94.1198 21.1278C93.791 21.1278 93.5806 21.3433 93.5806 21.6772V23.1535H92.751Z" fill="#489BC8"/>
<path id="Vector_28" d="M95.709 21.8159C95.709 20.9591 96.2212 20.3665 97.0398 20.3665C97.3737 20.3665 97.6915 20.5013 97.8479 20.7004V19.0842H98.6775V23.1465H97.8964L97.8529 22.8016C97.708 23.0494 97.3736 23.2166 96.9858 23.2166C96.2102 23.2166 95.709 22.6673 95.709 21.8159ZM97.8424 21.7835C97.8424 21.3795 97.5731 21.1099 97.1847 21.1099C96.7969 21.1099 96.5441 21.3845 96.5441 21.7835C96.5441 22.1825 96.7919 22.4568 97.1847 22.4568C97.5781 22.4568 97.8424 22.1876 97.8424 21.7835Z" fill="#489BC8"/>
<path id="Vector_29" d="M99.2076 19.1808H99.0146V19.0842H99.5034V19.1808H99.31V19.6656H99.2076V19.1808ZM99.6698 19.6656H99.5734V19.0842H99.6698L99.8732 19.5629L100.077 19.0842H100.173V19.6656H100.077V19.2896L99.9162 19.6656H99.8297L99.6698 19.2958V19.6656Z" fill="#489BC8"/>
<path id="Vector_30" d="M65.5449 22.9435V18.8564H66.38V20.5475C66.5429 20.3039 66.9002 20.1407 67.2906 20.1407C68.0497 20.1407 68.5324 20.732 68.5324 21.6142C68.5324 22.4964 67.9952 23.012 67.2266 23.012C66.8483 23.012 66.5219 22.8441 66.375 22.5958L66.3325 22.9435H65.5474H65.5449ZM67.0467 22.2505C67.442 22.2505 67.6929 21.9737 67.6929 21.574C67.6929 21.1743 67.4445 20.8952 67.0467 20.8952C66.6494 20.8952 66.3845 21.1672 66.3845 21.574C66.3845 21.9808 66.6569 22.2505 67.0467 22.2505Z" fill="#489BC8"/>
<path id="Vector_31" d="M68.528 23.5442H68.9888C69.2706 23.5442 69.3911 23.4567 69.4975 23.1658L69.547 23.0357L68.457 20.2329H69.3511L69.9423 21.9737L70.5975 20.2329H71.4655L70.0887 23.5347C69.8618 24.0882 69.5565 24.32 69.0812 24.32C68.8803 24.32 68.6909 24.2939 68.528 24.2443V23.5442Z" fill="#489BC8"/>
</g>
<defs>
<clipPath id="clip0_1439_6170">
<rect width="100" height="23.6882" fill="white" transform="translate(0.206055 0.655914)"/>
</clipPath>
</defs>
</svg>
