<svg width="145" height="15" viewBox="0 0 145 15" fill="none" xmlns="http://www.w3.org/2000/svg">
<g id="Group 1">
<path id="Vector" d="M3.00665 14.7679H0.780039C0.727275 14.7679 0.685066 14.7577 0.642855 14.7372C0.600645 14.7167 0.558434 14.686 0.537329 14.645C0.505671 14.604 0.495117 14.563 0.495117 14.5118C0.495117 14.4606 0.495117 14.4196 0.516222 14.3786L7.74479 0.375509C7.7659 0.334535 7.79756 0.303804 7.83977 0.273072C7.88198 0.242341 7.92419 0.232101 7.97695 0.232101H10.2036C10.2563 0.232101 10.2985 0.242344 10.3407 0.262831C10.383 0.283319 10.4252 0.314052 10.4463 0.355027C10.4779 0.396002 10.4885 0.436975 10.4885 0.488194C10.4885 0.539412 10.4885 0.580386 10.4674 0.621361L3.23881 14.6245C3.2177 14.6655 3.18605 14.6962 3.14383 14.7269C3.10162 14.7577 3.05941 14.7679 3.00665 14.7679Z" fill="#3487B4"/>
<path id="Vector_2" d="M9.8621 14.7679H7.5713C7.52927 14.7679 7.48723 14.7577 7.4452 14.7372C7.40317 14.7167 7.37164 14.686 7.35063 14.6552C7.32961 14.6245 7.30859 14.5835 7.30859 14.5426C7.30859 14.5016 7.30859 14.4606 7.32961 14.4196L14.5593 0.355027C14.5803 0.314052 14.6118 0.283319 14.6434 0.262831C14.6749 0.242344 14.7169 0.232101 14.759 0.232101H17.0393C17.0813 0.232101 17.1233 0.242344 17.1654 0.262831C17.2074 0.283319 17.2389 0.314049 17.2599 0.34478C17.2809 0.375511 17.302 0.416489 17.302 0.457464C17.302 0.498439 17.302 0.539409 17.2809 0.580383L10.0513 14.645C10.0302 14.686 9.99871 14.7167 9.96719 14.7372C9.93566 14.7577 9.90414 14.7679 9.8621 14.7679Z" fill="#3487B4"/>
<path id="Vector_3" d="M24.0092 2.52924C23.7778 2.52924 23.6621 2.64611 23.6621 2.87985V13.494C23.6621 13.7384 23.7883 13.8447 24.0092 13.8447H25.6499C25.692 13.8553 25.7446 13.8447 25.7866 13.834C25.8287 13.8234 25.8708 13.7915 25.9023 13.7597C25.9339 13.7278 25.9549 13.6853 25.9759 13.6322C25.9865 13.5897 25.997 13.5365 25.9865 13.4834V9.18037H33.0857V13.4834C33.0752 13.5365 33.0857 13.579 33.0963 13.6322C33.1068 13.6747 33.1383 13.7172 33.1699 13.7597C33.2014 13.7915 33.2435 13.8234 33.2856 13.834C33.3277 13.8447 33.3802 13.8553 33.4223 13.8447H35.063C35.2944 13.8447 35.4101 13.7278 35.4101 13.494V2.87985C35.4101 2.63548 35.2839 2.52924 35.063 2.52924H33.4328C33.3908 2.51861 33.3382 2.52924 33.2961 2.53987C33.254 2.55049 33.212 2.58236 33.1804 2.61423C33.1489 2.64611 33.1278 2.68861 33.1068 2.74173C33.0963 2.78423 33.0857 2.83736 33.0963 2.89048V7.0979H25.997V2.89048C26.0075 2.83736 25.997 2.79486 25.9865 2.74173C25.9759 2.69923 25.9444 2.65673 25.9128 2.61423C25.8813 2.58236 25.8392 2.55049 25.7972 2.53987C25.7551 2.52924 25.7025 2.51861 25.6604 2.52924H24.0092ZM47.4631 2.52924C46.8215 2.52924 46.3693 2.78424 45.875 3.76172L40.9002 13.4834C40.795 13.6959 40.8371 13.8553 41.1 13.8553H43.0668C43.1404 13.8659 43.2141 13.8553 43.2772 13.8128C43.3403 13.7703 43.3929 13.7172 43.4139 13.6428L44.4551 11.5603H51.586L52.6587 13.6428C52.6798 13.7172 52.7324 13.7809 52.7955 13.8128C52.8586 13.8553 52.9322 13.8659 53.0058 13.8553H54.9305C55.1724 13.8553 55.2145 13.6959 55.1093 13.4834L50.0925 3.76172C49.5876 2.79486 49.1249 2.52924 48.3466 2.52924H47.4631ZM47.7997 4.94107C47.8102 4.90919 47.8417 4.87732 47.8628 4.85607C47.8943 4.83482 47.9259 4.8242 47.9679 4.8242H48.0626C48.0942 4.8242 48.1362 4.83482 48.1678 4.85607C48.1993 4.87732 48.2204 4.90919 48.2309 4.94107L50.6394 9.67973H45.4122L47.7997 4.94107ZM60.347 2.52924C60.1156 2.52924 59.9999 2.64611 59.9999 2.87985V9.57348C59.9999 12.6759 61.1779 13.8447 64.249 13.8447H70.4858C70.5279 13.8553 70.5805 13.8447 70.6225 13.834C70.6646 13.8234 70.7067 13.7915 70.7382 13.7597C70.7698 13.7278 70.7908 13.6853 70.8119 13.6322C70.8224 13.5897 70.8329 13.5365 70.8224 13.4834V11.9003C70.8329 11.8472 70.8224 11.8047 70.8119 11.7516C70.8013 11.7091 70.7698 11.6666 70.7382 11.6241C70.7067 11.5922 70.6646 11.5603 70.6225 11.5497C70.5805 11.5391 70.5279 11.5284 70.4858 11.5391H64.3436C62.787 11.5391 62.3243 11.0397 62.3243 9.31849V2.86923C62.3348 2.81611 62.3243 2.77361 62.3138 2.72048C62.3032 2.67798 62.2717 2.63549 62.2401 2.59299C62.2086 2.56112 62.1665 2.52924 62.1244 2.51861C62.0824 2.50799 62.0298 2.49736 61.9877 2.50799H60.347V2.52924ZM76.8489 2.52924C76.7858 2.51861 76.7227 2.52924 76.6596 2.55049C76.5965 2.57174 76.5439 2.60361 76.5018 2.65674C76.4597 2.69924 76.4282 2.76298 76.4071 2.82673C76.3861 2.89048 76.3861 2.95423 76.3861 3.01798V13.3665C76.3756 13.4303 76.3861 13.5047 76.4071 13.5578C76.4282 13.6215 76.4597 13.6747 76.5018 13.7278C76.5439 13.7703 76.5965 13.8128 76.6596 13.834C76.7227 13.8553 76.7858 13.8659 76.8489 13.8553H85.8623C87.8817 13.8553 88.5443 12.7715 88.5443 11.061V10.126C88.5758 9.71161 88.4917 9.28661 88.3024 8.92537C88.1131 8.5535 87.8396 8.24538 87.4925 8.04351C87.8081 7.82039 88.0605 7.51227 88.2393 7.15103C88.4076 6.78978 88.4917 6.38604 88.4707 5.9823V5.20669C88.4707 3.4111 87.6819 2.53987 85.5889 2.53987H76.8489V2.52924ZM84.9368 8.99975C85.936 8.99975 86.2515 9.35036 86.2515 10.0197V10.636C86.2515 11.3159 85.936 11.6241 85.1261 11.6241H78.9103C78.7736 11.6241 78.7105 11.5603 78.7105 11.4116V8.99975H84.9368ZM78.721 4.97294C78.721 4.82419 78.7841 4.76045 78.9208 4.76045H85.1261C85.9149 4.76045 86.2515 5.06857 86.2515 5.72731V6.27979C86.2515 6.90666 85.9465 7.23602 84.9473 7.23602H78.7315V4.97294H78.721ZM98.6831 2.52924C95.6225 2.52924 94.4341 3.69797 94.4341 6.80041V9.58411C94.4341 12.6866 95.612 13.8553 98.6831 13.8553H103.363C106.445 13.8553 107.612 12.6866 107.612 9.58411V6.80041C107.612 3.69797 106.445 2.52924 103.363 2.52924H98.6831ZM96.7584 6.98103C96.7584 5.28106 97.2107 4.7817 98.7778 4.7817H103.279C104.846 4.7817 105.299 5.28106 105.299 6.98103V9.40349C105.299 11.1035 104.846 11.6028 103.279 11.6028H98.7778C97.2107 11.6028 96.7584 11.1035 96.7584 9.40349V6.98103ZM114.175 2.52924C114.112 2.51861 114.049 2.52924 113.986 2.55049C113.923 2.57174 113.87 2.60361 113.828 2.65674C113.786 2.69924 113.755 2.76298 113.734 2.82673C113.713 2.89048 113.713 2.95423 113.713 3.01798V13.5047C113.713 13.749 113.828 13.8553 114.06 13.8553H115.69C115.732 13.8659 115.784 13.8553 115.827 13.8447C115.869 13.834 115.911 13.8022 115.942 13.7703C115.974 13.7384 115.995 13.6959 116.016 13.6428C116.026 13.6003 116.037 13.5472 116.026 13.494V10.2747H120.928L123.326 13.6428C123.42 13.7915 123.494 13.8553 123.746 13.8553H125.702C125.745 13.8553 125.797 13.8447 125.829 13.8234C125.871 13.8022 125.902 13.7597 125.923 13.7172C125.944 13.6747 125.955 13.6215 125.944 13.579C125.944 13.5259 125.923 13.4834 125.892 13.4515L123.304 10.0197C124.893 9.71161 125.566 8.62787 125.566 6.77916V5.8548C125.566 3.66609 124.63 2.51861 122.305 2.51861L114.175 2.52924ZM116.037 4.94107C116.037 4.81357 116.1 4.74982 116.237 4.74982H121.853C122.884 4.74982 123.262 5.21731 123.262 6.19479V6.87478C123.262 7.84164 122.884 8.31976 121.853 8.31976H116.047V4.94107H116.037ZM133.033 2.52924C132.108 2.52924 131.666 2.9011 131.666 4.20795V13.494C131.666 13.7384 131.782 13.8447 132.013 13.8447H133.601C133.643 13.8553 133.696 13.8447 133.738 13.834C133.78 13.8234 133.822 13.7915 133.853 13.7597C133.885 13.7278 133.906 13.6853 133.927 13.6322C133.938 13.5897 133.948 13.5365 133.938 13.4834V5.03669C133.938 4.91982 133.969 4.87732 134.064 4.87732H134.201C134.243 4.87732 134.274 4.88795 134.316 4.9092C134.348 4.93045 134.379 4.96232 134.4 4.99419L140.059 12.8884C140.669 13.749 140.89 13.8447 141.815 13.8447H143.119C144.045 13.8447 144.487 13.4728 144.487 12.1659V2.87985C144.497 2.82673 144.487 2.78423 144.476 2.73111C144.466 2.68861 144.434 2.64611 144.402 2.60361C144.371 2.57174 144.329 2.53986 144.287 2.52924C144.245 2.51861 144.192 2.50799 144.15 2.51861H142.562C142.52 2.50799 142.467 2.51861 142.425 2.52924C142.383 2.53986 142.341 2.57174 142.31 2.60361C142.278 2.63549 142.257 2.67799 142.236 2.73111C142.225 2.77361 142.215 2.82673 142.225 2.87985V11.3266C142.225 11.4434 142.183 11.4859 142.099 11.4859H141.962C141.92 11.4859 141.878 11.4753 141.847 11.4647C141.815 11.4435 141.784 11.4116 141.763 11.3797L136.125 3.48547C135.547 2.65673 135.336 2.52924 134.369 2.52924H133.033Z" fill="#1F6890"/>
</g>
</svg>
