<svg width="59" height="25" viewBox="0 0 59 25" fill="none" xmlns="http://www.w3.org/2000/svg">
<g id="zivoe" clip-path="url(#clip0_1439_6081)">
<g id="Clip path group">
<mask id="mask0_1439_6081" style="mask-type:luminance" maskUnits="userSpaceOnUse" x="0" y="0" width="59" height="25">
<g id="clip0_109_3208">
<path id="Vector" d="M58.2064 0.5H0.275391V24.5H58.2064V0.5Z" fill="white"/>
</g>
</mask>
<g mask="url(#mask0_1439_6081)">
<g id="Group">
<path id="Vector_2" d="M10.6593 4.88281V5.2513L2.11995 19.8719H0.275391V19.5352L7.77361 6.66051H0.602245V4.88281H10.6593ZM4.58964 18.0942H10.8685V19.8719H3.66737L4.58964 18.0942Z" fill="#1F6890"/>
<path id="Vector_3" d="M13.3076 4.88281H15.1225V11.1659L13.3076 12.5151V4.88281ZM13.3076 19.8707V13.7101L15.1225 12.3303V19.8707H13.3076Z" fill="#1F6890"/>
<path id="Vector_4" d="M19.3174 4.88281L23.3939 15.3347L22.5608 18.2167L17.3242 4.88281H19.3174ZM28.6602 4.88281H30.6533L24.8807 19.8707H23.2145L24.0179 17.0206L28.6602 4.88281Z" fill="#1F6890"/>
<path id="Vector_5" d="M33.5698 12.3927C33.5698 13.4969 33.8178 14.487 34.3138 15.3665C34.4132 15.5301 34.4726 15.6325 34.492 15.6725C34.1538 16.1435 33.7972 16.7144 33.4201 17.389C33.1424 17.0617 32.8943 16.705 32.6761 16.3165C32.0212 15.1522 31.6943 13.8442 31.6943 12.3927C31.6943 10.9411 32.0212 9.60369 32.6761 8.43816C33.3104 7.27387 34.2132 6.34379 35.3835 5.64919C36.5538 4.97463 37.8635 4.63792 39.3114 4.63792C40.7594 4.63792 42.0587 4.97463 43.2087 5.64919C43.2484 5.67038 43.2782 5.69041 43.2976 5.71043C42.7423 6.22134 42.2565 6.6711 41.8394 7.05957C41.0657 6.67226 40.2223 6.47682 39.3103 6.47682C38.2189 6.47682 37.2372 6.7323 36.3652 7.24325C35.4726 7.77539 34.7881 8.48057 34.3115 9.35765C33.8155 10.2571 33.5675 11.2683 33.5675 12.3915L33.5698 12.3927ZM45.9182 8.43816C46.5732 9.60249 46.9001 10.921 46.9001 12.3927C46.9001 13.8643 46.5732 15.151 45.9182 16.3165C45.2838 17.4809 44.3809 18.4109 43.2107 19.1055C42.06 19.7801 40.7606 20.1168 39.3137 20.1168C37.8669 20.1168 36.556 19.7801 35.3857 19.1055C35.1275 18.9219 34.8806 18.7476 34.6417 18.584C34.8989 18.1354 35.2269 17.5939 35.6235 16.9593C35.7618 17.1018 36.0109 17.276 36.3675 17.4797C37.2395 18.0118 38.2223 18.2767 39.3126 18.2767C40.4029 18.2767 41.3354 18.0212 42.228 17.5103C43.1205 16.9993 43.8145 16.2941 44.3102 15.3959C44.8063 14.4965 45.0542 13.4958 45.0542 12.3915C45.0542 11.2872 44.8063 10.2571 44.3102 9.35765C43.9924 8.7855 43.6063 8.30517 43.1491 7.91666C43.2873 7.77419 43.5116 7.55405 43.819 7.25736C44.1265 6.96187 44.3491 6.74173 44.4885 6.5981C45.0244 7.06784 45.4998 7.68121 45.9169 8.437L45.9182 8.43816Z" fill="#1F6890"/>
<path id="Vector_6" d="M51.5713 18.0625H58.2069V19.8707H49.7568V4.88281H57.9988V6.69113H51.5713V18.0625ZM57.4629 13.0354H52.4937V11.2884H57.4629V13.0354Z" fill="#1F6890"/>
<path id="Vector_7" d="M39.3952 13.7842C40.0945 13.7842 40.6614 13.2002 40.6614 12.4798C40.6614 11.7594 40.0945 11.1754 39.3952 11.1754C38.6958 11.1754 38.1289 11.7594 38.1289 12.4798C38.1289 13.2002 38.6958 13.7842 39.3952 13.7842Z" fill="#1F6890"/>
</g>
</g>
</g>
</g>
<defs>
<clipPath id="clip0_1439_6081">
<rect width="57.931" height="24" fill="white" transform="translate(0.275391 0.5)"/>
</clipPath>
</defs>
</svg>
