<svg width="90" height="90" viewBox="0 0 90 90" fill="none" xmlns="http://www.w3.org/2000/svg">
<g id="MongoDB">
<path id="Vector" d="M46.0503 0C44.2872 10.5777 26.0298 19.4112 26.0298 45.1953C26.0298 68.5125 38.8674 75.6225 41.5125 76.725C46.3599 71.6553 45.6093 29.7504 46.0503 0Z" fill="#9A9FA6"/>
<path id="Vector_2" d="M46.6875 5.7373C48.9375 11.6998 63.7137 26.683 63.7137 45.1951C63.7137 63.7072 55.5597 72.3013 48.5082 77.3692C48.5082 77.3692 48.5082 84.4765 48.5082 86.0191C48.5082 87.5617 47.2689 88.333 46.4976 88.333C45.7263 88.333 44.3214 87.6166 44.3214 86.4043C44.3214 85.192 44.3214 77.92 44.3214 77.92C50.7114 75.0553 47.0178 24.3592 46.6875 5.7373Z" fill="#9A9FA6"/>
</g>
</svg>
