<svg width="120" height="120" viewBox="0 0 120 120" fill="none" xmlns="http://www.w3.org/2000/svg">
<g id="MySQL">
<path id="Vector" d="M106.377 89.7211C100.307 89.568 95.6028 90.1826 91.6571 91.8713C90.519 92.3318 88.6977 92.3323 88.5459 93.7908C89.1533 94.4054 89.229 95.4035 89.7602 96.2478C90.6713 97.7829 92.264 99.8566 93.7059 100.932C95.2991 102.16 96.8928 103.388 98.5617 104.463C101.521 106.306 104.86 107.381 107.743 109.224C109.413 110.298 111.081 111.681 112.751 112.832C113.586 113.446 114.116 114.445 115.179 114.828V114.598C114.648 113.907 114.496 112.909 113.965 112.141C113.207 111.373 112.448 110.682 111.689 109.914C109.488 106.92 106.757 104.31 103.797 102.16C101.37 100.471 96.0579 98.1673 95.0716 95.3264C95.0716 95.3264 94.9954 95.2498 94.9198 95.1732C96.5891 95.0196 98.5617 94.4054 100.155 93.9445C102.735 93.2533 105.087 93.4069 107.743 92.7162C108.957 92.4089 110.171 92.025 111.385 91.6411V90.9504C110.02 89.568 109.033 87.7256 107.591 86.4202C103.722 83.0412 99.4723 79.7403 95.0716 76.9765C92.7191 75.4409 89.684 74.4423 87.1802 73.1375C86.2701 72.676 84.7521 72.4463 84.2213 71.6785C82.8552 69.9893 82.0964 67.7629 81.1101 65.7664C78.9104 61.5431 76.785 56.8602 74.8881 52.4071C73.5229 49.4125 72.688 46.4179 71.0186 43.6541C63.2034 30.6017 54.7051 22.6935 41.6542 14.9385C38.8466 13.3263 35.5083 12.6351 31.942 11.7907C30.0456 11.7137 28.1482 11.5605 26.2513 11.4834C25.0374 10.9459 23.8231 9.48737 22.7606 8.79616C18.4365 6.03182 7.28205 0.0436192 4.09513 7.95179C2.04636 12.9424 7.13021 17.856 8.87526 20.3901C10.1657 22.1559 11.8346 24.152 12.7453 26.1485C13.2765 27.4529 13.4279 28.8358 13.9591 30.2177C15.1734 33.5952 16.3111 37.3581 17.9048 40.5064C18.7397 42.1185 19.6499 43.8078 20.7123 45.2663C21.3192 46.1106 22.3812 46.495 22.6092 47.877C21.5473 49.4125 21.4711 51.7159 20.8637 53.6354C18.1323 62.3113 19.1948 73.0604 23.0643 79.433C24.2782 81.352 27.1618 85.5758 31.0314 83.9632C34.4459 82.5812 33.6871 78.2047 34.6734 74.3658C34.9014 73.4438 34.7495 72.8302 35.2046 72.216C35.205 72.2926 35.2046 72.3697 35.2046 72.3697C36.2671 74.5194 37.3291 76.5926 38.3154 78.7422C40.6678 82.5041 44.7649 86.4202 48.1794 89.0309C50.0011 90.4123 51.4424 92.7928 53.7187 93.6376V93.4069H53.5669C53.1113 92.7157 52.4287 92.4089 51.8218 91.8713C50.4561 90.4894 48.9381 88.8001 47.8761 87.2646C44.6897 82.9646 41.8817 78.2047 39.3778 73.2907C38.164 70.9107 37.1015 68.3 36.1152 65.9201C35.6597 64.9981 35.6597 63.6167 34.9009 63.1562C33.7628 64.845 32.0939 66.304 31.2589 68.3771C29.818 71.6785 29.6657 75.7477 29.1345 79.9705C28.8313 80.0476 28.9826 79.9705 28.8308 80.1242C26.4031 79.5096 25.5682 76.9764 24.6575 74.8262C22.3812 69.3751 22.0018 60.6221 23.9749 54.3266C24.5062 52.714 26.7825 47.6467 25.8718 46.1111C25.4168 44.6521 23.8988 43.8078 23.0643 42.6561C22.078 41.1971 21.0155 39.3547 20.3329 37.742C18.5117 33.4426 17.6011 28.6822 15.6285 24.3822C14.7179 22.3857 13.1246 20.313 11.8346 18.4706C10.3933 16.3975 8.79957 14.9385 7.66141 12.4815C7.2825 11.6371 6.75079 10.2552 7.35771 9.3337C7.50956 8.71957 7.81278 8.48933 8.42017 8.33567C9.40648 7.49081 12.214 8.56591 13.2003 9.02639C16.0078 10.1776 18.3598 11.2532 20.7123 12.8654C21.7743 13.6331 22.9124 15.0921 24.2781 15.476H25.8718C28.3 16.0131 31.0313 15.6297 33.3077 16.3204C37.3295 17.6253 40.971 19.5452 44.2341 21.6184C54.1743 27.9909 62.3684 37.0513 67.9078 47.877C68.8184 49.6423 69.1973 51.2554 70.0323 53.0978C71.626 56.8602 73.5986 60.6992 75.1918 64.3845C76.785 67.9927 78.3025 71.6785 80.5788 74.6731C81.7175 76.2848 86.2696 77.1296 88.3183 77.9745C89.8359 78.6652 92.1884 79.2799 93.554 80.1242C96.1336 81.7359 98.7136 83.5793 101.142 85.3451C102.356 86.2661 106.149 88.186 106.377 89.7211Z" fill="#3487B4"/>
<path id="Vector_2" d="M29.7404 24.1621C28.1598 24.1621 27.0447 24.3201 25.929 24.5561C25.929 24.5561 25.929 24.6351 25.929 24.7136H26.115C26.8592 25.9725 28.1599 26.8385 29.0895 27.9399C29.8338 29.1988 30.4841 30.4582 31.2283 31.7177C31.321 31.6387 31.4138 31.5602 31.4138 31.5602C32.7161 30.7727 33.3665 29.5138 33.3665 27.6254C32.8083 27.0744 32.7156 26.5235 32.2507 25.9725C31.6931 25.185 30.4841 24.7921 29.7404 24.1621Z" fill="#3487B4"/>
</g>
</svg>
