<svg width="91" height="91" viewBox="0 0 91 91" fill="none" xmlns="http://www.w3.org/2000/svg">
<g id="PostgreSQL">
<path id="Vector" d="M37.6729 31.5917C37.9036 31.7389 38.1649 31.8505 38.4462 31.8896C39.4381 32.028 40.2875 31.2221 40.341 30.836C40.395 30.4495 39.6338 30.0238 38.6396 29.8857C37.6471 29.7472 36.7977 29.9486 36.7452 30.3342H36.7448C36.7059 30.6113 37.0878 31.2188 37.6729 31.5917ZM37.0611 30.9607C36.8856 30.7282 36.7821 30.4919 36.7936 30.3537L36.7954 30.3411C36.8316 30.0772 37.3382 29.8927 38.0281 29.8927C38.2233 29.8927 38.4268 29.9074 38.6328 29.9362C39.1069 30.0022 39.5426 30.1359 39.8585 30.3123C40.1559 30.4785 40.3131 30.667 40.2908 30.8291C40.2484 31.1337 39.5758 31.8548 38.6741 31.8548C38.6004 31.8548 38.5261 31.8496 38.4533 31.8396C38.1971 31.8042 37.9586 31.7043 37.7457 31.575C37.7017 31.5484 37.658 31.5217 37.6165 31.4925C37.3875 31.3319 37.1966 31.1403 37.0611 30.9607ZM85.2682 53.5283C85.1061 53.0385 84.3787 51.4805 81.8297 52.007C77.7929 52.8403 75.4173 52.7574 74.0299 52.4377C82.9793 37.5822 87.6731 18.545 83.3766 13.0543C78.8121 7.22152 72.1102 4.0933 63.9946 4.00666C58.0039 3.94425 53.2843 5.54257 52.7256 5.79806C50.7821 5.30919 48.6619 5.00897 46.3505 4.97096C42.5057 4.90978 39.1446 5.75067 36.3051 7.4701C34.5678 6.90539 31.8427 6.13151 28.6919 5.63822C21.4121 4.4973 15.6514 5.39529 11.5704 8.30498C6.7832 11.718 4.57243 17.7736 4.99906 26.3029C5.14156 29.1556 6.87461 38.0772 9.63525 46.7471C13.2136 57.9861 17.0275 64.3514 20.9701 65.6667C21.4245 65.8177 21.9487 65.9246 22.526 65.9246C23.8524 65.9241 25.4586 65.3615 27.1367 63.5017C27.3547 64.6737 28.9859 65.2584 30.795 65.7942C30.8317 65.8051 30.8691 65.814 30.9069 65.8209C31.3682 65.9052 31.8199 65.9948 32.2639 66.0829C33.8189 66.3916 35.2874 66.6833 36.7867 66.6833C36.7867 66.6833 36.7867 66.6833 36.7873 66.6833C38.6996 66.6833 40.3768 66.1948 41.9793 65.1492C41.9896 72.7304 42.5821 79.1728 43.5497 81.5931C43.9686 82.6404 46.1701 87.201 52.6822 87.2005C53.75 87.2005 54.9328 87.0782 56.2433 86.7974C62.8553 85.3801 65.83 82.5159 66.853 76.5823C67.451 73.119 68.2353 66.6356 68.5772 63.2349C69.4627 63.4554 70.538 63.5563 71.6879 63.5563C74.4809 63.5563 77.7147 62.9593 79.7436 62.0172C83.2523 60.3864 86.093 56.0235 85.2682 53.5283ZM78.0628 59.9891C75.9772 60.9571 73.1556 61.4108 70.745 61.4108C69.2505 61.4108 67.9144 61.2361 67.009 60.9018C66.5965 64.7586 65.644 72.4723 65.0956 75.6514C64.1078 81.3822 61.6714 83.861 55.7857 85.1229C54.8025 85.3331 53.91 85.4277 53.0979 85.4277C51.137 85.4277 49.6529 84.8762 48.5188 84.0856C47.2851 83.4558 46.196 82.4314 45.5421 80.7956C45.4072 80.4587 45.2748 79.984 45.1484 79.3908C45.1289 79.3429 45.11 79.2947 45.092 79.2497C44.1876 76.9888 43.8899 69.1287 43.9689 61.594C41.9058 63.6751 39.2441 64.7657 36.1688 64.7657C34.9833 64.7657 33.7354 64.6037 32.4598 64.2842C31.8516 64.1327 31.0476 63.8367 30.3712 63.4062C30.2619 63.3491 30.2244 63.3072 30.1208 63.2356C29.4894 62.7757 29.0221 62.185 29.037 61.4638C29.069 59.9251 31.1136 59.3266 32.6482 59.0103C36.376 58.2426 36.6495 57.8955 37.7995 56.4357C38.0431 56.1263 38.3322 55.7599 38.69 55.3395C38.6732 55.1841 38.6609 55.0279 38.6577 54.8699C36.9183 54.8662 35.2133 54.4072 33.6804 53.5463C32.8305 54.4478 30.0379 57.444 27.0368 61.0544C25.9655 62.3424 24.9266 63.039 23.9793 63.3717C22.8172 64.0192 21.9934 63.7455 21.6492 63.6304C21.4448 63.5623 21.2411 63.4709 21.038 63.3634C12.767 60.4087 7.01022 31.973 6.74731 26.7152C6.34685 18.71 8.40009 13.0522 12.8501 9.89994C16.534 7.28976 21.9317 6.46603 28.4601 7.51749C32.4539 8.16088 35.6897 9.29933 36.7972 9.71765C39.5926 7.77315 42.9823 6.81698 46.9205 6.88506C49.0356 6.91953 50.9791 7.19022 52.7627 7.63153V7.541C52.9402 7.57283 53.1174 7.60448 53.2913 7.63913C54.4057 7.23814 58.2909 6.10075 63.1392 6.10075C64.4883 6.10075 65.9755 6.19357 67.5313 6.44233C72.3975 7.11296 77.6509 9.22012 81.6866 14.3765C82.228 15.0694 82.5767 16.1804 82.7339 17.6233C83.3039 20.7222 82.8841 25.2634 81.4739 30.723C79.4939 38.3911 75.8266 46.609 71.3655 53.4128C71.3655 53.4128 71.2993 53.527 71.2307 53.6335C72.0062 54.2871 74.3987 55.0345 80.0622 53.8654C81.8557 53.4947 82.9239 53.7908 83.2386 54.7429C83.8368 56.5509 80.4711 58.8708 78.0628 59.9891ZM68.5992 53.48C67.315 53.8608 65.1433 54.7656 65.3541 58.9302C65.3417 59.0904 65.3233 59.2962 65.3008 59.5338C65.3 59.5404 65.2987 59.548 65.298 59.5545C65.2879 59.6636 65.2764 59.7796 65.2643 59.9033C65.2634 59.9071 65.2634 59.911 65.2628 59.9152C64.9202 63.3214 63.8689 71.9413 63.283 75.3385C62.4299 80.2871 60.5142 82.2273 55.3996 83.3241C49.9762 84.486 48.0621 81.7234 46.7989 78.566C45.9997 76.5676 45.6045 67.6411 45.8804 57.8017C45.8832 57.6867 45.8625 57.5769 45.8268 57.4742C45.7976 57.256 45.7568 57.0357 45.6929 56.813C45.3118 55.4814 44.3515 54.325 43.2463 53.8665C42.8918 53.7198 42.3559 53.4977 41.7131 53.4977C41.3305 53.4977 40.9622 53.5767 40.6036 53.7282C40.8011 52.6812 41.2474 51.4807 41.739 50.1624L41.9153 49.6889C42.1167 49.1477 42.3671 48.5919 42.6319 48.0029C44.0384 44.879 45.9643 40.6001 43.8697 30.915C43.3531 28.5269 42.011 26.9728 39.9931 26.3467C39.9268 26.3261 39.8585 26.3085 39.7908 26.29C39.6863 26.2612 39.5801 26.2348 39.4721 26.211C39.4029 26.1956 39.3336 26.1804 39.2632 26.1671C39.1234 26.1409 38.9812 26.1187 38.8364 26.1003C38.7981 26.0951 38.7611 26.0882 38.7224 26.084C38.5403 26.0635 38.3532 26.0508 38.1628 26.0428C38.1007 26.04 38.0374 26.0394 37.9747 26.038C37.8304 26.035 37.6837 26.035 37.535 26.0386C37.4724 26.0402 37.41 26.0412 37.3467 26.044C37.1391 26.0532 36.9289 26.0665 36.713 26.089C34.3534 26.3333 32.1901 27.2879 31.1106 27.8349C30.6977 28.0442 30.3471 28.2401 30.0409 28.4249C30.048 28.3201 30.0559 28.2113 30.0644 28.0999C30.0724 27.9958 30.0817 27.8878 30.0911 27.7782C30.0913 27.7746 30.0916 27.7711 30.092 27.7675C30.1118 27.5388 30.1353 27.2976 30.162 27.0476C30.1622 27.0456 30.1624 27.0439 30.1625 27.0421C30.5768 23.1846 31.876 16.9308 35.9308 12.8356C38.7049 10.0341 42.3931 8.65612 46.8892 8.72436C61.2228 8.95934 67.6 20.6702 69.2189 25.1105C69.2201 25.1139 69.2213 25.1167 69.2226 25.1201C69.2669 25.2415 69.3074 25.3575 69.3449 25.4677C69.3462 25.4717 69.347 25.4756 69.3483 25.4799C69.3859 25.5907 69.4199 25.6972 69.4505 25.7956C69.1812 25.764 68.9174 25.738 68.6587 25.7161C68.5677 25.7083 68.4798 25.7037 68.3898 25.697C68.2257 25.685 68.062 25.6733 67.902 25.6652C67.7938 25.6598 67.6877 25.657 67.5811 25.6535C67.4459 25.6489 67.3111 25.6443 67.1796 25.6429C67.0641 25.6413 66.951 25.6423 66.8378 25.6429C66.7213 25.6436 66.605 25.6452 66.4906 25.6484C66.3714 25.6517 66.254 25.6567 66.138 25.6629C66.0371 25.6678 65.9372 25.674 65.8389 25.6811C65.716 25.6901 65.5945 25.7003 65.4752 25.7124C65.3912 25.7207 65.309 25.7304 65.2264 25.7403C65.0986 25.7557 64.9723 25.7716 64.8489 25.7907C64.7848 25.8006 64.7222 25.8124 64.6587 25.823C64.5229 25.8464 64.3877 25.8704 64.2572 25.8982C64.2239 25.9054 64.1918 25.9137 64.159 25.9212C63.1182 26.1551 62.24 26.5331 61.5294 27.0582C61.4092 27.147 61.2948 27.2398 61.1836 27.3367C61.1809 27.339 61.179 27.3411 61.1765 27.3434C61.0662 27.4403 60.9608 27.5411 60.8604 27.6461C60.6822 27.8317 60.5153 28.0266 60.3673 28.238C57.1538 32.8318 62.217 41.9114 64.6504 46.2748C65.1051 47.0908 65.4985 47.7952 65.6263 48.1058C66.4131 50.0127 67.4365 51.2913 68.1837 52.225C68.5281 52.6552 68.8382 53.0431 69.0169 53.3608C68.9659 53.3753 68.9156 53.3895 68.8702 53.4024C68.7855 53.4261 68.6941 53.4519 68.5983 53.4802C68.5992 53.48 68.5992 53.48 68.5992 53.48ZM80.4345 55.6666C80.7904 55.5934 81.0537 55.561 81.2459 55.5502C80.7216 56.2159 79.3337 57.3713 77.2881 58.3208C74.7198 59.5128 69.6957 59.9746 67.6888 59.2027C67.2719 59.0418 67.1946 58.9002 67.1937 58.9002C67.0192 55.8326 68.2668 55.4821 69.3681 55.1731C69.5297 55.1278 69.7532 55.0652 69.9825 54.9673C70.107 55.0781 70.2502 55.1887 70.4135 55.297C72.2811 56.5295 75.653 56.6542 80.4345 55.6666ZM40.0163 49.5194L40.1913 49.0486C40.4144 48.4487 40.6768 47.8655 40.9551 47.2476C42.3289 44.1952 44.0386 40.3966 42.0722 31.3033C41.6625 29.4094 40.654 28.3241 38.9885 27.9857C38.8925 27.9663 38.7951 27.9498 38.6973 27.9357C38.6043 27.9219 38.5106 27.9113 38.4163 27.9016C38.414 27.9014 38.4125 27.901 38.4102 27.9009C35.0095 27.5609 30.7515 29.9499 29.9764 30.7297C29.9841 30.9447 30.0018 31.2396 30.0223 31.5862C30.1426 33.6161 30.3669 37.3946 29.7608 41.7274C29.3144 44.9193 30.2902 48.0349 32.4378 50.2759C33.9822 51.8873 35.9722 52.84 38.0489 53.004C38.0505 53.004 38.0519 53.004 38.0537 53.0042C38.1876 53.015 38.3221 53.0226 38.4567 53.0265C38.5935 53.0304 38.7309 53.0313 38.8683 53.0288C39.1149 51.9354 39.5479 50.7747 40.0163 49.5194ZM37.6007 31.6055C37.279 31.3883 37.0624 31.1318 36.9798 31.0224C36.7774 30.754 36.6707 30.4941 36.6941 30.327L36.7036 30.2833C36.7873 29.9826 37.2975 29.7909 38.0283 29.7909C38.1418 29.7909 38.2581 29.7971 38.3757 29.8065C38.4657 29.8135 38.5557 29.8226 38.6465 29.8351C38.654 29.8362 38.6603 29.8378 38.6676 29.8388H38.6674C39.1462 29.9074 39.5863 30.0434 39.9086 30.2232C40.2493 30.4136 40.421 30.6337 40.3918 30.8431C40.3375 31.234 39.5926 31.9566 38.6743 31.9566C38.596 31.9566 38.5168 31.9511 38.4393 31.9402C38.1112 31.8947 37.8324 31.761 37.6045 31.6079C37.603 31.6071 37.602 31.6062 37.6007 31.6055ZM69.2553 31.2778C69.4388 30.0867 69.6119 28.9491 69.6119 27.6696C66.4699 27.2493 64.196 27.4967 62.815 28.401C62.7888 28.4184 62.761 28.435 62.7354 28.4527C62.6779 28.4923 62.6233 28.5338 62.5692 28.5757C62.5268 28.6086 62.4845 28.642 62.4444 28.6765C62.4016 28.7133 62.359 28.7502 62.3183 28.7884C62.2669 28.8356 62.2198 28.8846 62.1732 28.9345C62.1438 28.9656 62.1134 28.996 62.0853 29.0278C62.0114 29.1127 61.941 29.2002 61.8768 29.2923C59.3234 32.9419 64.1833 41.6576 66.2583 45.379C66.7811 46.3162 67.1591 46.9935 67.3283 47.4048C67.5986 48.06 67.9008 48.6274 68.2114 49.1322C69.9038 45.9267 69.5233 42.6936 69.1469 39.5578C68.9636 38.0375 68.791 36.6013 68.8378 35.1658C68.8845 33.6858 69.0732 32.4614 69.2553 31.2778ZM65.0316 31.1431C64.1424 31.1431 63.391 30.4253 63.338 30.0517C63.3047 29.8033 63.5747 29.5467 64.0211 29.3519C64.0491 29.3397 64.0782 29.3279 64.1069 29.3165C64.3767 29.2085 64.7024 29.1226 65.0616 29.0725C65.271 29.0434 65.4778 29.0287 65.6771 29.0287C66.4283 29.0287 66.9423 29.2304 66.986 29.543C67.0205 29.7943 66.7381 30.2766 66.2894 30.6463C66.257 30.6725 66.2245 30.6979 66.1907 30.723C65.9223 30.9233 65.6048 31.08 65.2628 31.1276C65.1872 31.1376 65.1095 31.1431 65.0316 31.1431ZM30.9599 53.7735C30.4958 54.2795 29.9536 54.8782 29.3545 55.5502C28.2495 56.7896 26.9572 58.2723 25.6225 59.8782C23.6168 62.29 22.1822 61.8114 21.7114 61.6543C14.7905 59.3461 8.85236 31.989 8.58396 26.6236C8.21727 19.2899 10.0088 14.1691 13.9099 11.4035C19.8997 7.15645 29.4958 9.33134 34.0081 10.7193C34.0376 10.7281 34.065 10.7369 34.0938 10.7458C34.2485 10.7937 34.3961 10.8404 34.5378 10.886C34.5692 10.8961 34.6007 10.906 34.6315 10.916C34.8007 10.9707 34.9633 11.0241 35.1117 11.0741C34.9471 11.2269 34.7833 11.3809 34.6242 11.5419C34.0073 12.165 33.4497 12.8301 32.944 13.5232C32.8413 13.6636 32.7448 13.8072 32.6465 13.9502C32.5878 14.0354 32.527 14.1198 32.4698 14.2055C32.3779 14.3438 32.2906 14.4836 32.2029 14.6235C32.1445 14.7168 32.0846 14.8095 32.0277 14.9032C31.9435 15.0423 31.8623 15.1831 31.7819 15.3236C31.7267 15.4195 31.6712 15.5155 31.6175 15.6122C31.5393 15.7534 31.4636 15.8956 31.389 16.0381C31.3378 16.1355 31.2868 16.2329 31.2375 16.3307C31.1648 16.4743 31.0941 16.618 31.0248 16.7626C30.978 16.8599 30.9322 16.9575 30.8871 17.0553C30.8195 17.2013 30.7525 17.3475 30.6882 17.4943C30.6465 17.5897 30.6061 17.6852 30.5655 17.7805C30.5016 17.9306 30.4387 18.0809 30.3781 18.2312C30.3422 18.3205 30.3082 18.4101 30.2734 18.4994C30.2126 18.6561 30.1516 18.8127 30.0941 18.9694C30.0665 19.0448 30.0405 19.1205 30.0135 19.1962C29.9527 19.3661 29.8918 19.5365 29.8349 19.7061C29.828 19.7263 29.8222 19.7462 29.8155 19.7662C29.6051 20.3985 29.4215 21.026 29.2601 21.6425C29.2451 21.7003 29.2283 21.7586 29.2138 21.8161C29.1726 21.977 29.1344 22.1359 29.0962 22.2951C29.078 22.3714 29.0591 22.4489 29.0411 22.5251C29.0061 22.6761 28.9737 22.8248 28.9412 22.9735C28.9231 23.0553 28.9051 23.1375 28.8883 23.2185C28.8579 23.3626 28.8292 23.5055 28.8017 23.6473C28.785 23.7304 28.769 23.8133 28.7536 23.8959C28.7272 24.0345 28.7019 24.1719 28.6779 24.3083C28.6632 24.3902 28.6494 24.4719 28.6356 24.553C28.6128 24.6872 28.5907 24.8207 28.5697 24.9523C28.5575 25.0308 28.5457 25.1082 28.534 25.1857C28.514 25.3165 28.4946 25.4472 28.4767 25.5748C28.4663 25.6484 28.4569 25.72 28.4472 25.7925C28.4302 25.9199 28.4129 26.0472 28.3977 26.171C28.3897 26.2366 28.3825 26.2997 28.3752 26.3642C28.3602 26.4914 28.3448 26.6192 28.3314 26.7421C28.3284 26.7695 28.3262 26.7949 28.3234 26.822C28.2911 27.1282 28.2635 27.4205 28.241 27.697C28.2392 27.7164 28.2375 27.7375 28.2359 27.7569C28.2278 27.8621 28.2207 27.9615 28.2136 28.0619C28.2094 28.1203 28.2048 28.1809 28.2009 28.2378C28.1949 28.327 28.1901 28.4111 28.1851 28.496C28.1813 28.5579 28.1775 28.621 28.1744 28.6802C28.1701 28.7589 28.1668 28.8335 28.1632 28.9078C28.1604 28.9666 28.1576 29.0262 28.1554 29.0826C28.1524 29.1512 28.1501 29.217 28.1482 29.2815C28.1461 29.3363 28.1443 29.3903 28.1427 29.4417C28.1411 29.5004 28.1395 29.5572 28.1383 29.6113C28.1371 29.6625 28.136 29.7119 28.1353 29.7589C28.1344 29.8056 28.1335 29.8521 28.1328 29.8947C28.1323 29.9412 28.1318 29.9845 28.1314 30.0262C28.1314 30.0627 28.1309 30.1001 28.1309 30.1327C28.1309 30.1733 28.1309 30.2092 28.1309 30.2441C28.131 30.2688 28.131 30.296 28.131 30.3174C28.1312 30.354 28.1316 30.3836 28.1321 30.4111C28.1323 30.4232 28.1323 30.4393 28.1326 30.4497C28.1332 30.4833 28.1337 30.51 28.1344 30.5252C28.1344 30.7906 28.1565 31.1712 28.1876 31.6953C28.3041 33.6614 28.5211 37.3209 27.9403 41.473C27.9107 41.6864 27.8879 41.8994 27.8688 42.1119C27.8616 42.1927 27.857 42.273 27.8517 42.3536C27.8427 42.4816 27.8349 42.6095 27.8298 42.737C27.8257 42.8407 27.8229 42.9447 27.8216 43.0481C27.82 43.1448 27.8204 43.2414 27.8211 43.3377C27.8222 43.4611 27.8234 43.5846 27.828 43.7076C27.8301 43.7608 27.834 43.8135 27.8365 43.8664C27.8729 44.5729 27.9668 45.2692 28.1192 45.9483C28.1194 45.9507 28.1203 45.953 28.1206 45.9557C28.5922 48.0477 29.6065 49.978 31.1116 51.5486C31.4391 51.8902 31.7849 52.2044 32.1438 52.4959C32.0973 52.5458 32.0436 52.6032 31.9905 52.6605C31.9642 52.6884 31.9394 52.7151 31.9113 52.745C31.8717 52.7876 31.8277 52.8354 31.7851 52.881C31.7361 52.9339 31.6878 52.986 31.6352 53.0426C31.6093 53.0702 31.5812 53.1008 31.5545 53.1292C31.4796 53.2104 31.4034 53.2929 31.3213 53.3813C31.3072 53.3969 31.2923 53.4135 31.2778 53.4287C31.182 53.5325 31.0826 53.6404 30.9787 53.7542C30.9714 53.7608 30.9656 53.7673 30.9599 53.7735ZM58.1424 8.35219C58.1473 8.3513 58.1521 8.35059 58.156 8.34971C59.5768 8.11792 61.2727 7.93988 63.1391 7.93988C70.3509 7.93988 76.0393 10.5348 80.0441 15.6523C81.6078 17.65 81.4695 23.3851 79.6933 30.2632C77.9541 36.998 74.8788 44.17 71.1068 50.3795C71.0941 50.4009 71.0804 50.423 71.0672 50.4446C70.7836 50.9112 70.4965 51.3732 70.2047 51.8276C70.0256 51.5832 69.8287 51.3355 69.6211 51.0753C69.5454 50.9812 69.4669 50.8827 69.3879 50.7834C71.869 46.8093 71.3941 42.8464 70.9722 39.3377C70.7984 37.8889 70.6335 36.5203 70.6752 35.2243C70.7191 33.8553 70.8996 32.6873 71.0736 31.5577C71.2963 30.1107 71.5042 28.737 71.4385 27.0598C71.4818 26.9042 71.5012 26.7171 71.48 26.4875C71.3299 24.8989 69.5048 20.1313 65.7793 15.7945C63.65 13.316 60.5013 10.5292 56.1597 8.74187C56.3444 8.69926 56.5393 8.65629 56.7426 8.6135C56.7539 8.61103 56.7645 8.60855 56.7758 8.60608C56.9799 8.56347 57.1934 8.52121 57.4139 8.47984C57.4231 8.47807 57.4323 8.4763 57.4411 8.47471C57.666 8.43281 57.9005 8.39179 58.1424 8.35219ZM43.9249 57.3186C44.0347 57.703 44.1562 58.4346 43.7357 59.0236C43.6109 59.1982 43.4827 59.3659 43.3519 59.5283C43.3298 59.5552 43.307 59.581 43.2847 59.6081C43.1708 59.7469 43.0548 59.8825 42.9362 60.0124C42.9222 60.0276 42.9079 60.0421 42.8938 60.0577C42.7631 60.1995 42.6294 60.3353 42.4931 60.467C42.4892 60.4709 42.4852 60.4742 42.4811 60.478C42.3363 60.6171 42.1881 60.7508 42.0364 60.8783C42.0356 60.8791 42.0348 60.88 42.0338 60.8807C40.4224 62.2379 38.4595 62.9264 36.1681 62.9264C35.1932 62.9264 34.1612 62.7943 33.1 62.5431C33.0347 62.5277 32.9707 62.5165 32.905 62.4999C31.9741 62.2676 31.1917 61.8111 30.9387 61.5319C31.1254 61.3903 31.6534 61.0936 33.0187 60.8119C37.218 59.9472 37.8163 59.3865 39.2438 57.5743C39.5767 57.1512 39.9544 56.672 40.4793 56.0859C41.1485 55.337 41.5734 55.337 41.7132 55.337C41.9698 55.337 42.2295 55.4362 42.5423 55.5658C43.1309 55.8094 43.6993 56.5303 43.9249 57.3186Z" fill="#9A9FA6"/>
</g>
</svg>
