<svg width="120" height="120" viewBox="0 0 120 120" fill="none" xmlns="http://www.w3.org/2000/svg">
<g id="AWS">
<path id="Vector" d="M35.3061 50.5075C35.1779 54.5435 37.195 56.3307 37.2449 57.4658C37.2211 57.6968 37.1424 57.9188 37.0153 58.1132C36.8882 58.3075 36.7164 58.4687 36.5143 58.5831L34.2334 60.1796C33.9383 60.3866 33.5903 60.5052 33.2302 60.5218C33.1536 60.5182 31.7709 60.8478 29.5809 55.9583C28.2448 57.6261 26.5448 58.9661 24.6111 59.8756C22.6773 60.7852 20.5611 61.2403 18.4244 61.206C15.5235 61.3646 7.66173 59.5595 8.06622 51.1899C7.7829 44.3688 14.1354 40.1315 20.7052 40.4896C21.9704 40.4932 24.5542 40.5556 29.0784 41.6069V38.8235C29.5577 34.1086 26.459 30.4504 21.0937 30.9992C20.666 31.001 17.6368 30.9101 12.9255 32.8007C11.614 33.403 11.4465 33.3032 11.0099 33.3032C9.68954 33.3032 10.233 29.4757 10.486 28.991C11.4144 27.8506 16.8759 25.7212 22.2359 25.7515C25.8197 25.4346 29.3844 26.5406 32.1593 28.8306C33.2873 30.0924 34.1479 31.5696 34.689 33.1732C35.2302 34.7768 35.4407 36.4735 35.3079 38.1607L35.3061 50.5075ZM19.907 56.2791C25.6857 56.1953 28.1322 52.7206 28.6899 50.8496C29.1283 49.0588 29.0552 47.9255 29.0552 45.9672C27.3321 45.5538 24.8517 45.103 22.006 45.0994C19.3065 44.8963 14.3759 46.1026 14.5684 50.8478C14.3474 53.8396 16.5499 56.443 19.907 56.2791ZM50.3632 60.3863C48.9626 60.5146 48.3105 59.5203 48.1038 58.5385L39.2299 29.1995C39.057 28.7041 38.943 28.1927 38.8878 27.6706C38.855 27.4554 38.9091 27.2359 39.0381 27.0605C39.167 26.8851 39.3604 26.7681 39.5756 26.7351C39.6183 26.728 39.196 26.7351 43.5403 26.7351C45.1048 26.5783 45.6144 27.8096 45.7766 28.583L52.1415 53.6775L58.0503 28.583C58.1448 28.0092 58.5742 26.6104 60.3312 26.7583H63.3889C63.7756 26.7262 65.3686 26.6692 65.6484 28.6061L71.6035 54.0214L78.1733 28.6061C78.2589 28.2177 78.658 26.5801 80.4328 26.7583H83.9467C84.0982 26.7351 85.0426 26.614 84.8822 28.2872C84.8056 28.6168 85.4898 26.3877 75.4827 58.5617C75.2778 59.5435 74.6238 60.5378 73.2232 60.4095H69.8928C67.9434 60.6144 67.6637 58.6882 67.6334 58.494L61.7246 34.0587L55.8835 58.469C55.855 58.6632 55.5753 60.5895 53.6241 60.3846H50.3632V60.3863ZM99.0946 61.3895C98.0469 61.3913 93.0504 61.3361 88.8737 59.1996C88.4576 59.0234 88.1032 58.7277 87.8555 58.3499C87.6077 57.972 87.4777 57.5291 87.482 57.0773V55.1618C87.482 53.6561 88.5868 53.9323 89.0554 54.1123C90.8444 54.8357 91.992 55.3845 94.1891 55.8229C100.72 57.1647 103.592 55.413 104.296 55.0246C106.639 53.6329 106.825 50.4487 105.232 48.7969C103.364 47.2306 102.473 47.1718 95.7643 45.0549C94.9375 44.825 87.9774 42.6297 87.9613 35.7248C87.8526 30.6927 92.425 25.7141 100.349 25.7551C102.607 25.7533 108.622 26.491 110.251 28.5384C110.492 28.9108 110.611 29.3492 110.593 29.7929V31.5944C110.593 32.3855 110.305 32.7811 109.725 32.7811C108.352 32.6279 105.914 30.7907 100.966 30.8656C99.7379 30.8014 93.8576 31.0277 94.1214 35.315C94.0447 38.6935 98.863 39.9604 99.4136 40.1065C105.91 42.0613 108.083 42.3856 110.661 45.3774C113.715 49.3421 112.069 53.984 111.436 55.2562C108.036 61.9366 99.2443 61.3931 99.0946 61.3895ZM106.258 80.0746C93.7792 89.2906 75.6644 94.1961 60.1975 94.1961C39.328 94.3338 19.1618 86.66 3.66315 72.6832C2.49957 71.6337 3.52594 70.1957 4.94077 70.9958C22.1334 80.8304 41.599 85.9978 61.4057 85.9851C76.1967 85.9058 90.8264 82.9053 104.455 77.1558C106.554 76.2649 108.334 78.5457 106.258 80.0746ZM111.459 74.1426C109.863 72.0899 100.896 73.1839 96.8815 73.6633C95.6716 73.8005 95.4667 72.7509 96.5626 71.9758C103.703 66.9562 115.429 68.3942 116.776 70.0817C118.122 71.7691 116.411 83.519 109.727 89.132C108.701 89.9998 107.719 89.5418 108.175 88.4014C109.679 84.6148 113.056 76.1971 111.459 74.1426Z" fill="#3487B4"/>
</g>
</svg>
