<svg width="90" height="90" viewBox="0 0 90 90" fill="none" xmlns="http://www.w3.org/2000/svg">
<g id="Azure">
<path id="Vector" d="M33.0203 7.83881C33.8095 7.83895 34.5788 8.08424 35.2198 8.54013C35.8608 8.99603 36.3412 9.63956 36.5934 10.3801L59.5065 77.6059C59.6981 78.1679 59.7518 78.767 59.6632 79.3536C59.5745 79.9402 59.346 80.4975 58.9966 80.9793C58.6472 81.4611 58.1869 81.8535 57.6539 82.1241C57.1209 82.3948 56.5304 82.5358 55.9314 82.5355H82.3347C82.9333 82.535 83.5233 82.3934 84.0558 82.1226C84.5883 81.8518 85.0482 81.4595 85.3974 80.978C85.7469 80.4961 85.9754 79.9387 86.0639 79.352C86.1525 78.7652 86.0985 78.166 85.9066 77.604L62.9955 10.3782C62.7433 9.63741 62.2626 8.99368 61.6214 8.53775C60.9801 8.08182 60.2105 7.83669 59.421 7.83691L33.0203 7.83881ZM32.1678 8.14083C31.3772 8.14081 30.6064 8.38647 29.9643 8.84317C29.3221 9.29988 28.8408 9.94462 28.5882 10.6865L5.67838 77.9085C5.4869 78.4703 5.43326 79.0691 5.52189 79.6555C5.61053 80.2419 5.83888 80.7989 6.18807 81.2805C6.53726 81.7621 6.99724 82.1545 7.52996 82.4252C8.06268 82.6958 8.65282 82.8369 9.25156 82.8369H27.6873C28.4779 82.8369 29.248 82.5779 29.8899 82.1337C30.532 81.6772 31.0133 81.0328 31.2662 80.2912L35.7448 67.2057L27.1877 59.0821C27.0307 58.9096 26.3244 57.6453 26.9522 56.5534C27.6592 55.5052 28.8377 55.5052 28.8377 55.5052H39.8667L45.6566 38.9856L35.7582 10.1564C35.7314 10.0269 35.175 9.29395 34.3028 8.71581C33.4286 8.13767 32.1684 8.14146 32.1684 8.14146L32.1678 8.14083ZM29.054 55.9968C28.7047 55.9962 28.3634 56.0999 28.0745 56.2944C27.7856 56.4888 27.5625 56.7649 27.4344 57.0867C27.3063 57.4085 27.2791 57.761 27.3563 58.0983C27.4335 58.4357 27.6115 58.7422 27.8672 58.9778L52.0054 81.2883C52.7079 81.9391 53.6018 82.3188 54.5621 82.3188C54.5621 82.3188 55.3801 82.3618 55.8733 82.298C57.0327 82.1255 58.1225 81.1808 58.483 80.7878C59.4127 79.5627 58.9897 77.6602 58.9897 77.6602L51.6838 56.0006L29.054 55.9968Z" fill="#9A9FA6"/>
</g>
</svg>
