<svg width="87" height="70" viewBox="0 0 87 70" fill="none" xmlns="http://www.w3.org/2000/svg">
<g id="google-cloud logo" clip-path="url(#clip0_674_4064)">
<g id="Group">
<path id="Vector" d="M57.4149 19.4682L64.9122 11.9708L65.4119 8.81393C51.7497 -3.60911 30.0318 -2.20047 17.7159 11.7532C14.2949 15.6287 11.7569 20.4604 10.4036 25.4497L13.0888 25.0714L28.0831 22.5988L29.2408 21.4148C35.9107 14.0897 47.1882 13.1042 54.8894 19.3368L57.4149 19.4682Z" fill="#7C7F86"/>
<path id="Vector_2" d="M75.5923 25.2296C73.869 18.8835 70.3311 13.1785 65.4118 8.81445L54.8893 19.337C59.3325 22.9675 61.8637 28.437 61.7553 34.1736V36.0415C66.9272 36.0415 71.1205 40.2344 71.1205 45.4064C71.1205 50.5787 66.9272 54.6664 61.7553 54.6664H42.9989L41.1573 56.6657V67.8984L42.9989 69.6608H61.7553C75.2082 69.7656 86.1991 59.05 86.3038 45.5971C86.3672 37.4427 82.3468 29.7981 75.5923 25.2296Z" fill="#9A9FA6"/>
<path id="Vector_3" d="M24.2688 69.6605H42.9989V54.6658H24.2688C22.9343 54.6655 21.6419 54.3788 20.4283 53.8242L17.7711 54.6396L10.2212 62.1369L9.56354 64.6887C13.7975 67.8857 18.9634 69.6834 24.2688 69.6605Z" fill="#9A9FA6"/>
<path id="Vector_4" d="M24.2689 21.0207C10.8156 21.1009 -0.024995 32.0721 0.0551905 45.5251C0.1 53.0376 3.60862 60.1094 9.56358 64.6891L20.4284 53.8246C15.7146 51.695 13.62 46.1477 15.7497 41.4343C17.879 36.7209 23.4266 34.6263 28.1397 36.7556C30.2167 37.6939 31.8801 39.3576 32.8184 41.4343L43.6832 30.5698C39.0604 24.5266 31.8774 20.9934 24.2689 21.0207Z" fill="#9A9FA6"/>
</g>
</g>
<defs>
<clipPath id="clip0_674_4064">
<rect width="86.25" height="69.4043" fill="white" transform="translate(0.0546875 0.325195)"/>
</clipPath>
</defs>
</svg>
